<svg width="263" height="420" viewBox="0 0 263 420" fill="none" xmlns="http://www.w3.org/2000/svg">
<g filter="url(#filter0_d_1001_2375)">
<rect x="4" width="255" height="412" rx="8" fill="#F6F7F9" shape-rendering="crispEdges"/>
<rect width="255" height="36" transform="translate(4 8)" fill="#DEE6ED"/>
<path d="M21.9787 31H20.348L24.0121 20.8182H25.7869L29.451 31H27.8203L24.9418 22.6676H24.8622L21.9787 31ZM22.2521 27.0128H27.5419V28.3054H22.2521V27.0128ZM30.9213 31V20.8182H32.4078V24.6016H32.4973C32.5835 24.4425 32.7078 24.2585 32.8702 24.0497C33.0326 23.8409 33.258 23.6586 33.5463 23.5028C33.8347 23.3438 34.2159 23.2642 34.6898 23.2642C35.3063 23.2642 35.8565 23.42 36.3404 23.7315C36.8243 24.0431 37.2038 24.4922 37.4789 25.0788C37.7573 25.6655 37.8965 26.3714 37.8965 27.1967C37.8965 28.022 37.7589 28.7296 37.4838 29.3196C37.2087 29.9062 36.8309 30.3587 36.3503 30.6768C35.8697 30.9917 35.3212 31.1491 34.7047 31.1491C34.2407 31.1491 33.8612 31.0713 33.5662 30.9155C33.2746 30.7597 33.0459 30.5774 32.8801 30.3686C32.7144 30.1598 32.5868 29.9742 32.4973 29.8118H32.373V31H30.9213ZM32.378 27.1818C32.378 27.7187 32.4559 28.1894 32.6117 28.5938C32.7675 28.9981 32.9928 29.3146 33.2878 29.5433C33.5828 29.7687 33.9441 29.8814 34.3716 29.8814C34.8158 29.8814 35.187 29.7637 35.4853 29.5284C35.7836 29.2898 36.0089 28.9666 36.1614 28.5589C36.3172 28.1513 36.3951 27.6922 36.3951 27.1818C36.3951 26.678 36.3188 26.2256 36.1664 25.8246C36.0172 25.4235 35.7918 25.107 35.4902 24.875C35.1919 24.643 34.8191 24.527 34.3716 24.527C33.9408 24.527 33.5762 24.638 33.2779 24.8601C32.9829 25.0821 32.7592 25.392 32.6067 25.7898C32.4542 26.1875 32.378 26.6515 32.378 27.1818ZM42.8569 31.1541C42.1045 31.1541 41.4566 30.9934 40.913 30.6719C40.3728 30.3471 39.9551 29.8913 39.6602 29.3047C39.3685 28.7147 39.2227 28.0237 39.2227 27.2315C39.2227 26.4493 39.3685 25.7599 39.6602 25.1634C39.9551 24.5668 40.3661 24.1011 40.8931 23.7663C41.4234 23.4316 42.0432 23.2642 42.7525 23.2642C43.1834 23.2642 43.601 23.3355 44.0053 23.478C44.4097 23.6205 44.7726 23.8442 45.0941 24.1491C45.4156 24.4541 45.6692 24.8501 45.8548 25.3374C46.0404 25.8213 46.1332 26.4096 46.1332 27.1023V27.6293H40.0629V26.5156H44.6765C44.6765 26.1245 44.5969 25.7782 44.4379 25.4766C44.2788 25.1716 44.055 24.9313 43.7667 24.7557C43.4817 24.58 43.1469 24.4922 42.7624 24.4922C42.3448 24.4922 41.9802 24.5949 41.6687 24.8004C41.3604 25.0026 41.1218 25.2678 40.9528 25.5959C40.7871 25.9207 40.7042 26.2737 40.7042 26.6548V27.5249C40.7042 28.0353 40.7937 28.4695 40.9727 28.8274C41.1549 29.1854 41.4085 29.4588 41.7333 29.6477C42.0581 29.8333 42.4376 29.9261 42.8718 29.9261C43.1535 29.9261 43.4104 29.8864 43.6424 29.8068C43.8744 29.724 44.0749 29.6013 44.244 29.4389C44.413 29.2765 44.5423 29.076 44.6317 28.8374L46.0387 29.0909C45.926 29.5052 45.7238 29.8681 45.4322 30.1797C45.1438 30.4879 44.7809 30.7282 44.3434 30.9006C43.9092 31.0696 43.4137 31.1541 42.8569 31.1541ZM47.7825 31V23.3636H49.2193V24.5767H49.2988C49.438 24.1657 49.6833 23.8426 50.0346 23.6072C50.3893 23.3686 50.7903 23.2493 51.2377 23.2493C51.3306 23.2493 51.4399 23.2526 51.5659 23.2592C51.6951 23.2659 51.7962 23.2741 51.8691 23.2841V24.706C51.8095 24.6894 51.7034 24.6712 51.551 24.6513C51.3985 24.6281 51.246 24.6165 51.0936 24.6165C50.7422 24.6165 50.429 24.6911 50.1539 24.8402C49.8822 24.986 49.6667 25.1899 49.5076 25.4517C49.3485 25.7102 49.269 26.0052 49.269 26.3366V31H47.7825ZM57.1713 23.3636V24.5568H53.0002V23.3636H57.1713ZM54.1188 21.5341H55.6053V28.7578C55.6053 29.0462 55.6484 29.2633 55.7346 29.4091C55.8207 29.5516 55.9318 29.6494 56.0676 29.7024C56.2069 29.7521 56.3577 29.777 56.5201 29.777C56.6394 29.777 56.7438 29.7687 56.8333 29.7521C56.9228 29.7356 56.9924 29.7223 57.0421 29.7124L57.3105 30.9403C57.2244 30.9735 57.1017 31.0066 56.9426 31.0398C56.7836 31.0762 56.5847 31.0961 56.3461 31.0994C55.955 31.1061 55.5904 31.0365 55.2523 30.8906C54.9142 30.7448 54.6408 30.5194 54.432 30.2145C54.2232 29.9096 54.1188 29.5268 54.1188 29.0661V21.5341ZM61.9503 31.1541C61.2344 31.1541 60.6096 30.9901 60.076 30.6619C59.5424 30.3338 59.1281 29.8748 58.8331 29.2848C58.5381 28.6948 58.3906 28.0054 58.3906 27.2166C58.3906 26.4245 58.5381 25.7318 58.8331 25.1385C59.1281 24.5452 59.5424 24.0845 60.076 23.7564C60.6096 23.4283 61.2344 23.2642 61.9503 23.2642C62.6662 23.2642 63.291 23.4283 63.8246 23.7564C64.3582 24.0845 64.7725 24.5452 65.0675 25.1385C65.3625 25.7318 65.5099 26.4245 65.5099 27.2166C65.5099 28.0054 65.3625 28.6948 65.0675 29.2848C64.7725 29.8748 64.3582 30.3338 63.8246 30.6619C63.291 30.9901 62.6662 31.1541 61.9503 31.1541ZM61.9553 29.9062C62.4193 29.9062 62.8037 29.7836 63.1087 29.5384C63.4136 29.2931 63.639 28.9666 63.7848 28.5589C63.9339 28.1513 64.0085 27.7022 64.0085 27.2116C64.0085 26.7244 63.9339 26.277 63.7848 25.8693C63.639 25.4583 63.4136 25.1286 63.1087 24.88C62.8037 24.6314 62.4193 24.5071 61.9553 24.5071C61.4879 24.5071 61.1001 24.6314 60.7919 24.88C60.487 25.1286 60.2599 25.4583 60.1108 25.8693C59.965 26.277 59.892 26.7244 59.892 27.2116C59.892 27.7022 59.965 28.1513 60.1108 28.5589C60.2599 28.9666 60.487 29.2931 60.7919 29.5384C61.1001 29.7836 61.4879 29.9062 61.9553 29.9062Z" fill="black"/>
<path d="M29.5753 60.1293H28.0241C27.9645 59.7978 27.8535 59.5062 27.6911 59.2543C27.5286 59.0024 27.3298 58.7886 27.0945 58.6129C26.8591 58.4373 26.5956 58.3047 26.304 58.2152C26.0156 58.1257 25.709 58.081 25.3842 58.081C24.7976 58.081 24.2723 58.2285 23.8082 58.5234C23.3475 58.8184 22.983 59.2509 22.7145 59.821C22.4493 60.3911 22.3168 61.0871 22.3168 61.9091C22.3168 62.7377 22.4493 63.437 22.7145 64.0071C22.983 64.5772 23.3492 65.008 23.8132 65.2997C24.2772 65.5914 24.7992 65.7372 25.3793 65.7372C25.7008 65.7372 26.0057 65.6941 26.294 65.608C26.5857 65.5185 26.8492 65.3875 27.0845 65.2152C27.3198 65.0429 27.5187 64.8324 27.6811 64.5838C27.8468 64.3319 27.9612 64.0436 28.0241 63.7188L29.5753 63.7237C29.4924 64.2242 29.3317 64.6849 29.093 65.1058C28.8577 65.5234 28.5545 65.8847 28.1832 66.1896C27.8153 66.4912 27.3944 66.7249 26.9205 66.8906C26.4465 67.0563 25.9295 67.1392 25.3693 67.1392C24.4877 67.1392 23.7022 66.9304 23.0128 66.5128C22.3234 66.0919 21.7798 65.4903 21.3821 64.7081C20.9877 63.9259 20.7905 62.9929 20.7905 61.9091C20.7905 60.822 20.9893 59.889 21.3871 59.1101C21.7848 58.3279 22.3284 57.728 23.0178 57.3104C23.7071 56.8894 24.491 56.679 25.3693 56.679C25.9096 56.679 26.4134 56.7569 26.8807 56.9126C27.3513 57.0651 27.7739 57.2905 28.1484 57.5888C28.523 57.8838 28.8329 58.245 29.0781 58.6726C29.3234 59.0968 29.4891 59.5824 29.5753 60.1293ZM36.1316 63.8331V59.3636H37.623V67H36.1614V65.6776H36.0819C35.9062 66.0852 35.6245 66.425 35.2367 66.6967C34.8522 66.9652 34.3733 67.0994 33.7999 67.0994C33.3094 67.0994 32.8752 66.9917 32.4973 66.7763C32.1228 66.5575 31.8278 66.2344 31.6124 65.8068C31.4003 65.3793 31.2942 64.8506 31.2942 64.2209V59.3636H32.7807V64.0419C32.7807 64.5623 32.9249 64.9766 33.2132 65.2848C33.5016 65.593 33.8761 65.7472 34.3368 65.7472C34.6152 65.7472 34.892 65.6776 35.1671 65.5384C35.4455 65.3991 35.6758 65.1887 35.8581 64.907C36.0437 64.6252 36.1349 64.2673 36.1316 63.8331ZM45.3427 61.228L43.9954 61.4666C43.939 61.2943 43.8496 61.1302 43.7269 60.9744C43.6076 60.8187 43.4452 60.6911 43.2397 60.5916C43.0342 60.4922 42.7773 60.4425 42.4691 60.4425C42.0482 60.4425 41.6969 60.5369 41.4151 60.7259C41.1334 60.9115 40.9925 61.1518 40.9925 61.4467C40.9925 61.7019 41.087 61.9074 41.2759 62.0632C41.4648 62.219 41.7698 62.3466 42.1907 62.446L43.4038 62.7244C44.1064 62.8868 44.6301 63.1371 44.9748 63.4751C45.3195 63.8132 45.4918 64.2524 45.4918 64.7926C45.4918 65.25 45.3593 65.6577 45.0941 66.0156C44.8323 66.3703 44.466 66.6487 43.9954 66.8509C43.5281 67.053 42.9862 67.1541 42.3697 67.1541C41.5146 67.1541 40.8169 66.9718 40.2766 66.6072C39.7364 66.2393 39.4049 65.7173 39.2823 65.0412L40.7191 64.8224C40.8086 65.197 40.9925 65.4804 41.271 65.6726C41.5494 65.8615 41.9123 65.956 42.3597 65.956C42.8469 65.956 43.2364 65.8549 43.5281 65.6527C43.8197 65.4472 43.9656 65.197 43.9656 64.902C43.9656 64.6634 43.8761 64.4628 43.6971 64.3004C43.5214 64.138 43.2513 64.0154 42.8867 63.9325L41.5941 63.6491C40.8815 63.4867 40.3545 63.2282 40.0131 62.8736C39.6751 62.5189 39.506 62.0698 39.506 61.5263C39.506 61.0755 39.632 60.6811 39.8839 60.343C40.1358 60.005 40.4838 59.7415 40.9279 59.5526C41.372 59.3603 41.8808 59.2642 42.4542 59.2642C43.2795 59.2642 43.9291 59.4432 44.4031 59.8011C44.877 60.1558 45.1902 60.6314 45.3427 61.228ZM50.6909 59.3636V60.5568H46.5197V59.3636H50.6909ZM47.6383 57.5341H49.1248V64.7578C49.1248 65.0462 49.1679 65.2633 49.2541 65.4091C49.3403 65.5516 49.4513 65.6494 49.5872 65.7024C49.7264 65.7521 49.8772 65.777 50.0396 65.777C50.1589 65.777 50.2633 65.7687 50.3528 65.7521C50.4423 65.7356 50.5119 65.7223 50.5616 65.7124L50.8301 66.9403C50.7439 66.9735 50.6213 67.0066 50.4622 67.0398C50.3031 67.0762 50.1042 67.0961 49.8656 67.0994C49.4745 67.1061 49.1099 67.0365 48.7718 66.8906C48.4338 66.7448 48.1603 66.5194 47.9515 66.2145C47.7427 65.9096 47.6383 65.5268 47.6383 65.0661V57.5341ZM55.4698 67.1541C54.7539 67.1541 54.1291 66.9901 53.5955 66.6619C53.0619 66.3338 52.6476 65.8748 52.3526 65.2848C52.0576 64.6948 51.9102 64.0054 51.9102 63.2166C51.9102 62.4245 52.0576 61.7318 52.3526 61.1385C52.6476 60.5452 53.0619 60.0845 53.5955 59.7564C54.1291 59.4283 54.7539 59.2642 55.4698 59.2642C56.1857 59.2642 56.8105 59.4283 57.3441 59.7564C57.8777 60.0845 58.292 60.5452 58.587 61.1385C58.882 61.7318 59.0295 62.4245 59.0295 63.2166C59.0295 64.0054 58.882 64.6948 58.587 65.2848C58.292 65.8748 57.8777 66.3338 57.3441 66.6619C56.8105 66.9901 56.1857 67.1541 55.4698 67.1541ZM55.4748 65.9062C55.9388 65.9062 56.3233 65.7836 56.6282 65.5384C56.9331 65.2931 57.1585 64.9666 57.3043 64.5589C57.4535 64.1513 57.5281 63.7022 57.5281 63.2116C57.5281 62.7244 57.4535 62.277 57.3043 61.8693C57.1585 61.4583 56.9331 61.1286 56.6282 60.88C56.3233 60.6314 55.9388 60.5071 55.4748 60.5071C55.0075 60.5071 54.6197 60.6314 54.3114 60.88C54.0065 61.1286 53.7795 61.4583 53.6303 61.8693C53.4845 62.277 53.4116 62.7244 53.4116 63.2116C53.4116 63.7022 53.4845 64.1513 53.6303 64.5589C53.7795 64.9666 54.0065 65.2931 54.3114 65.5384C54.6197 65.7836 55.0075 65.9062 55.4748 65.9062ZM60.6887 67V59.3636H62.1156V60.6065H62.21C62.3691 60.1856 62.6293 59.8575 62.9906 59.6222C63.3519 59.3835 63.7844 59.2642 64.2882 59.2642C64.7986 59.2642 65.2261 59.3835 65.5708 59.6222C65.9189 59.8608 66.1757 60.1889 66.3414 60.6065H66.421C66.6033 60.1989 66.8933 59.8741 67.291 59.6321C67.6887 59.3868 68.1627 59.2642 68.7129 59.2642C69.4056 59.2642 69.9707 59.4813 70.4082 59.9155C70.849 60.3497 71.0694 61.0043 71.0694 61.8793V67H69.5829V62.0185C69.5829 61.5014 69.4421 61.1269 69.1603 60.8949C68.8786 60.6629 68.5422 60.5469 68.1511 60.5469C67.6672 60.5469 67.291 60.696 67.0225 60.9943C66.7541 61.2893 66.6199 61.6688 66.6199 62.1328V67H65.1383V61.924C65.1383 61.5097 65.0091 61.1766 64.7505 60.9247C64.492 60.6728 64.1556 60.5469 63.7413 60.5469C63.4596 60.5469 63.1994 60.6214 62.9608 60.7706C62.7254 60.9164 62.5349 61.1203 62.389 61.3821C62.2465 61.6439 62.1752 61.9472 62.1752 62.2919V67H60.6887Z" fill="black"/>
<path d="M29.5753 96.1293H28.0241C27.9645 95.7978 27.8535 95.5062 27.6911 95.2543C27.5286 95.0024 27.3298 94.7886 27.0945 94.6129C26.8591 94.4373 26.5956 94.3047 26.304 94.2152C26.0156 94.1257 25.709 94.081 25.3842 94.081C24.7976 94.081 24.2723 94.2285 23.8082 94.5234C23.3475 94.8184 22.983 95.2509 22.7145 95.821C22.4493 96.3911 22.3168 97.0871 22.3168 97.9091C22.3168 98.7377 22.4493 99.437 22.7145 100.007C22.983 100.577 23.3492 101.008 23.8132 101.3C24.2772 101.591 24.7992 101.737 25.3793 101.737C25.7008 101.737 26.0057 101.694 26.294 101.608C26.5857 101.518 26.8492 101.388 27.0845 101.215C27.3198 101.043 27.5187 100.832 27.6811 100.584C27.8468 100.332 27.9612 100.044 28.0241 99.7188L29.5753 99.7237C29.4924 100.224 29.3317 100.685 29.093 101.106C28.8577 101.523 28.5545 101.885 28.1832 102.19C27.8153 102.491 27.3944 102.725 26.9205 102.891C26.4465 103.056 25.9295 103.139 25.3693 103.139C24.4877 103.139 23.7022 102.93 23.0128 102.513C22.3234 102.092 21.7798 101.49 21.3821 100.708C20.9877 99.9259 20.7905 98.9929 20.7905 97.9091C20.7905 96.822 20.9893 95.889 21.3871 95.1101C21.7848 94.3279 22.3284 93.728 23.0178 93.3104C23.7071 92.8894 24.491 92.679 25.3693 92.679C25.9096 92.679 26.4134 92.7569 26.8807 92.9126C27.3513 93.0651 27.7739 93.2905 28.1484 93.5888C28.523 93.8838 28.8329 94.245 29.0781 94.6726C29.3234 95.0968 29.4891 95.5824 29.5753 96.1293ZM34.5108 103.154C33.7949 103.154 33.1702 102.99 32.6365 102.662C32.1029 102.334 31.6886 101.875 31.3936 101.285C31.0987 100.695 30.9512 100.005 30.9512 99.2166C30.9512 98.4245 31.0987 97.7318 31.3936 97.1385C31.6886 96.5452 32.1029 96.0845 32.6365 95.7564C33.1702 95.4283 33.7949 95.2642 34.5108 95.2642C35.2267 95.2642 35.8515 95.4283 36.3851 95.7564C36.9187 96.0845 37.333 96.5452 37.628 97.1385C37.923 97.7318 38.0705 98.4245 38.0705 99.2166C38.0705 100.005 37.923 100.695 37.628 101.285C37.333 101.875 36.9187 102.334 36.3851 102.662C35.8515 102.99 35.2267 103.154 34.5108 103.154ZM34.5158 101.906C34.9798 101.906 35.3643 101.784 35.6692 101.538C35.9741 101.293 36.1995 100.967 36.3453 100.559C36.4945 100.151 36.5691 99.7022 36.5691 99.2116C36.5691 98.7244 36.4945 98.277 36.3453 97.8693C36.1995 97.4583 35.9741 97.1286 35.6692 96.88C35.3643 96.6314 34.9798 96.5071 34.5158 96.5071C34.0485 96.5071 33.6607 96.6314 33.3525 96.88C33.0475 97.1286 32.8205 97.4583 32.6713 97.8693C32.5255 98.277 32.4526 98.7244 32.4526 99.2116C32.4526 99.7022 32.5255 100.151 32.6713 100.559C32.8205 100.967 33.0475 101.293 33.3525 101.538C33.6607 101.784 34.0485 101.906 34.5158 101.906ZM41.2163 92.8182V103H39.7298V92.8182H41.2163ZM45.4384 103.169C44.9545 103.169 44.517 103.08 44.1259 102.901C43.7348 102.718 43.4249 102.455 43.1962 102.11C42.9708 101.765 42.8581 101.343 42.8581 100.842C42.8581 100.411 42.941 100.057 43.1067 99.7784C43.2724 99.5 43.4962 99.2796 43.7779 99.1172C44.0596 98.9548 44.3745 98.8321 44.7225 98.7493C45.0705 98.6664 45.4251 98.6035 45.7864 98.5604C46.2438 98.5073 46.615 98.4643 46.9 98.4311C47.1851 98.3946 47.3922 98.3366 47.5215 98.2571C47.6507 98.1776 47.7154 98.0483 47.7154 97.8693V97.8345C47.7154 97.4003 47.5927 97.0639 47.3475 96.8253C47.1055 96.5866 46.7443 96.4673 46.2637 96.4673C45.7632 96.4673 45.3688 96.5784 45.0804 96.8004C44.7954 97.0192 44.5982 97.2628 44.4888 97.5312L43.0918 97.2131C43.2575 96.7491 43.4995 96.3745 43.8176 96.0895C44.1391 95.8011 44.5087 95.5923 44.9263 95.4631C45.3439 95.3305 45.7831 95.2642 46.2438 95.2642C46.5487 95.2642 46.8719 95.3007 47.2132 95.3736C47.5579 95.4432 47.8794 95.5724 48.1777 95.7614C48.4793 95.9503 48.7263 96.2204 48.9185 96.5717C49.1107 96.9197 49.2069 97.3722 49.2069 97.929V103H47.7551V101.956H47.6955C47.5994 102.148 47.4552 102.337 47.263 102.523C47.0707 102.708 46.8238 102.862 46.5222 102.985C46.2206 103.108 45.8593 103.169 45.4384 103.169ZM45.7615 101.976C46.1725 101.976 46.5239 101.895 46.8155 101.732C47.1105 101.57 47.3342 101.358 47.4867 101.096C47.6425 100.831 47.7203 100.547 47.7203 100.246V99.2614C47.6673 99.3144 47.5646 99.3641 47.4121 99.4105C47.263 99.4536 47.0923 99.4917 46.9 99.5249C46.7078 99.5547 46.5205 99.5829 46.3382 99.6094C46.156 99.6326 46.0035 99.6525 45.8809 99.669C45.5925 99.7055 45.329 99.7668 45.0904 99.853C44.8551 99.9392 44.6661 100.063 44.5236 100.226C44.3844 100.385 44.3148 100.597 44.3148 100.862C44.3148 101.23 44.4507 101.509 44.7225 101.697C44.9943 101.883 45.3406 101.976 45.7615 101.976ZM51.3061 103V92.8182H52.7926V96.6016H52.8821C52.9683 96.4425 53.0926 96.2585 53.255 96.0497C53.4174 95.8409 53.6428 95.6586 53.9311 95.5028C54.2195 95.3438 54.6006 95.2642 55.0746 95.2642C55.6911 95.2642 56.2412 95.42 56.7251 95.7315C57.209 96.0431 57.5885 96.4922 57.8636 97.0788C58.142 97.6655 58.2812 98.3714 58.2812 99.1967C58.2812 100.022 58.1437 100.73 57.8686 101.32C57.5935 101.906 57.2157 102.359 56.7351 102.677C56.2545 102.992 55.706 103.149 55.0895 103.149C54.6255 103.149 54.246 103.071 53.951 102.915C53.6593 102.76 53.4306 102.577 53.2649 102.369C53.0992 102.16 52.9716 101.974 52.8821 101.812H52.7578V103H51.3061ZM52.7628 99.1818C52.7628 99.7187 52.8407 100.189 52.9964 100.594C53.1522 100.998 53.3776 101.315 53.6726 101.543C53.9676 101.769 54.3288 101.881 54.7564 101.881C55.2005 101.881 55.5717 101.764 55.87 101.528C56.1683 101.29 56.3937 100.967 56.5462 100.559C56.7019 100.151 56.7798 99.6922 56.7798 99.1818C56.7798 98.678 56.7036 98.2256 56.5511 97.8246C56.402 97.4235 56.1766 97.107 55.875 96.875C55.5767 96.643 55.2038 96.527 54.7564 96.527C54.3255 96.527 53.9609 96.638 53.6626 96.8601C53.3677 97.0821 53.1439 97.392 52.9915 97.7898C52.839 98.1875 52.7628 98.6515 52.7628 99.1818ZM63.1671 103.154C62.4512 103.154 61.8264 102.99 61.2928 102.662C60.7592 102.334 60.3449 101.875 60.0499 101.285C59.7549 100.695 59.6074 100.005 59.6074 99.2166C59.6074 98.4245 59.7549 97.7318 60.0499 97.1385C60.3449 96.5452 60.7592 96.0845 61.2928 95.7564C61.8264 95.4283 62.4512 95.2642 63.1671 95.2642C63.883 95.2642 64.5078 95.4283 65.0414 95.7564C65.575 96.0845 65.9893 96.5452 66.2843 97.1385C66.5792 97.7318 66.7267 98.4245 66.7267 99.2166C66.7267 100.005 66.5792 100.695 66.2843 101.285C65.9893 101.875 65.575 102.334 65.0414 102.662C64.5078 102.99 63.883 103.154 63.1671 103.154ZM63.1721 101.906C63.6361 101.906 64.0205 101.784 64.3255 101.538C64.6304 101.293 64.8558 100.967 65.0016 100.559C65.1507 100.151 65.2253 99.7022 65.2253 99.2116C65.2253 98.7244 65.1507 98.277 65.0016 97.8693C64.8558 97.4583 64.6304 97.1286 64.3255 96.88C64.0205 96.6314 63.6361 96.5071 63.1721 96.5071C62.7047 96.5071 62.3169 96.6314 62.0087 96.88C61.7038 97.1286 61.4767 97.4583 61.3276 97.8693C61.1818 98.277 61.1088 98.7244 61.1088 99.2116C61.1088 99.7022 61.1818 100.151 61.3276 100.559C61.4767 100.967 61.7038 101.293 62.0087 101.538C62.3169 101.784 62.7047 101.906 63.1721 101.906ZM68.386 103V95.3636H69.8228V96.5767H69.9023C70.0415 96.1657 70.2868 95.8426 70.6381 95.6072C70.9928 95.3686 71.3938 95.2493 71.8413 95.2493C71.9341 95.2493 72.0434 95.2526 72.1694 95.2592C72.2987 95.2659 72.3997 95.2741 72.4727 95.2841V96.706C72.413 96.6894 72.3069 96.6712 72.1545 96.6513C72.002 96.6281 71.8496 96.6165 71.6971 96.6165C71.3458 96.6165 71.0326 96.6911 70.7575 96.8402C70.4857 96.986 70.2702 97.1899 70.1112 97.4517C69.9521 97.7102 69.8725 98.0052 69.8725 98.3366V103H68.386ZM75.913 103.169C75.4291 103.169 74.9916 103.08 74.6005 102.901C74.2094 102.718 73.8995 102.455 73.6708 102.11C73.4454 101.765 73.3327 101.343 73.3327 100.842C73.3327 100.411 73.4156 100.057 73.5813 99.7784C73.747 99.5 73.9708 99.2796 74.2525 99.1172C74.5342 98.9548 74.8491 98.8321 75.1971 98.7493C75.5451 98.6664 75.8997 98.6035 76.261 98.5604C76.7184 98.5073 77.0896 98.4643 77.3746 98.4311C77.6597 98.3946 77.8668 98.3366 77.9961 98.2571C78.1254 98.1776 78.19 98.0483 78.19 97.8693V97.8345C78.19 97.4003 78.0674 97.0639 77.8221 96.8253C77.5801 96.5866 77.2189 96.4673 76.7383 96.4673C76.2378 96.4673 75.8434 96.5784 75.555 96.8004C75.27 97.0192 75.0728 97.2628 74.9634 97.5312L73.5664 97.2131C73.7321 96.7491 73.9741 96.3745 74.2923 96.0895C74.6138 95.8011 74.9833 95.5923 75.4009 95.4631C75.8185 95.3305 76.2577 95.2642 76.7184 95.2642C77.0233 95.2642 77.3465 95.3007 77.6879 95.3736C78.0326 95.4432 78.354 95.5724 78.6523 95.7614C78.954 95.9503 79.2009 96.2204 79.3931 96.5717C79.5853 96.9197 79.6815 97.3722 79.6815 97.929V103H78.2298V101.956H78.1701C78.074 102.148 77.9298 102.337 77.7376 102.523C77.5453 102.708 77.2984 102.862 76.9968 102.985C76.6952 103.108 76.3339 103.169 75.913 103.169ZM76.2362 101.976C76.6471 101.976 76.9985 101.895 77.2901 101.732C77.5851 101.57 77.8088 101.358 77.9613 101.096C78.1171 100.831 78.195 100.547 78.195 100.246V99.2614C78.1419 99.3144 78.0392 99.3641 77.8867 99.4105C77.7376 99.4536 77.5669 99.4917 77.3746 99.5249C77.1824 99.5547 76.9951 99.5829 76.8129 99.6094C76.6306 99.6326 76.4781 99.6525 76.3555 99.669C76.0671 99.7055 75.8036 99.7668 75.565 99.853C75.3297 99.9392 75.1407 100.063 74.9982 100.226C74.859 100.385 74.7894 100.597 74.7894 100.862C74.7894 101.23 74.9253 101.509 75.1971 101.697C75.4689 101.883 75.8152 101.976 76.2362 101.976ZM84.5201 103.149C83.9036 103.149 83.3534 102.992 82.8695 102.677C82.3889 102.359 82.0111 101.906 81.736 101.32C81.4642 100.73 81.3283 100.022 81.3283 99.1967C81.3283 98.3714 81.4658 97.6655 81.7409 97.0788C82.0194 96.4922 82.4005 96.0431 82.8844 95.7315C83.3683 95.42 83.9168 95.2642 84.53 95.2642C85.004 95.2642 85.3851 95.3438 85.6735 95.5028C85.9651 95.6586 86.1905 95.8409 86.3496 96.0497C86.512 96.2585 86.638 96.4425 86.7275 96.6016H86.8169V92.8182H88.3034V103H86.8517V101.812H86.7275C86.638 101.974 86.5087 102.16 86.3397 102.369C86.1739 102.577 85.9453 102.76 85.6536 102.915C85.3619 103.071 84.9841 103.149 84.5201 103.149ZM84.8482 101.881C85.2757 101.881 85.637 101.769 85.932 101.543C86.2303 101.315 86.4557 100.998 86.6081 100.594C86.7639 100.189 86.8418 99.7187 86.8418 99.1818C86.8418 98.6515 86.7656 98.1875 86.6131 97.7898C86.4606 97.392 86.2369 97.0821 85.9419 96.8601C85.647 96.638 85.2824 96.527 84.8482 96.527C84.4007 96.527 84.0279 96.643 83.7296 96.875C83.4313 97.107 83.2059 97.4235 83.0534 97.8246C82.9043 98.2256 82.8297 98.678 82.8297 99.1818C82.8297 99.6922 82.906 100.151 83.0584 100.559C83.2109 100.967 83.4363 101.29 83.7346 101.528C84.0362 101.764 84.4074 101.881 84.8482 101.881ZM93.6417 103.154C92.9258 103.154 92.301 102.99 91.7674 102.662C91.2338 102.334 90.8195 101.875 90.5245 101.285C90.2295 100.695 90.082 100.005 90.082 99.2166C90.082 98.4245 90.2295 97.7318 90.5245 97.1385C90.8195 96.5452 91.2338 96.0845 91.7674 95.7564C92.301 95.4283 92.9258 95.2642 93.6417 95.2642C94.3576 95.2642 94.9824 95.4283 95.516 95.7564C96.0496 96.0845 96.4639 96.5452 96.7589 97.1385C97.0539 97.7318 97.2013 98.4245 97.2013 99.2166C97.2013 100.005 97.0539 100.695 96.7589 101.285C96.4639 101.875 96.0496 102.334 95.516 102.662C94.9824 102.99 94.3576 103.154 93.6417 103.154ZM93.6467 101.906C94.1107 101.906 94.4951 101.784 94.8001 101.538C95.105 101.293 95.3304 100.967 95.4762 100.559C95.6254 100.151 95.6999 99.7022 95.6999 99.2116C95.6999 98.7244 95.6254 98.277 95.4762 97.8693C95.3304 97.4583 95.105 97.1286 94.8001 96.88C94.4951 96.6314 94.1107 96.5071 93.6467 96.5071C93.1793 96.5071 92.7915 96.6314 92.4833 96.88C92.1784 97.1286 91.9513 97.4583 91.8022 97.8693C91.6564 98.277 91.5835 98.7244 91.5835 99.2116C91.5835 99.7022 91.6564 100.151 91.8022 100.559C91.9513 100.967 92.1784 101.293 92.4833 101.538C92.7915 101.784 93.1793 101.906 93.6467 101.906ZM98.8606 103V95.3636H100.297V96.5767H100.377C100.516 96.1657 100.761 95.8426 101.113 95.6072C101.467 95.3686 101.868 95.2493 102.316 95.2493C102.409 95.2493 102.518 95.2526 102.644 95.2592C102.773 95.2659 102.874 95.2741 102.947 95.2841V96.706C102.888 96.6894 102.782 96.6712 102.629 96.6513C102.477 96.6281 102.324 96.6165 102.172 96.6165C101.82 96.6165 101.507 96.6911 101.232 96.8402C100.96 96.986 100.745 97.1899 100.586 97.4517C100.427 97.7102 100.347 98.0052 100.347 98.3366V103H98.8606ZM107.251 103.154C106.499 103.154 105.851 102.993 105.308 102.672C104.767 102.347 104.35 101.891 104.055 101.305C103.763 100.715 103.617 100.024 103.617 99.2315C103.617 98.4493 103.763 97.7599 104.055 97.1634C104.35 96.5668 104.761 96.1011 105.288 95.7663C105.818 95.4316 106.438 95.2642 107.147 95.2642C107.578 95.2642 107.996 95.3355 108.4 95.478C108.804 95.6205 109.167 95.8442 109.489 96.1491C109.81 96.4541 110.064 96.8501 110.249 97.3374C110.435 97.8213 110.528 98.4096 110.528 99.1023V99.6293H104.457V98.5156H109.071C109.071 98.1245 108.991 97.7782 108.832 97.4766C108.673 97.1716 108.45 96.9313 108.161 96.7557C107.876 96.58 107.541 96.4922 107.157 96.4922C106.739 96.4922 106.375 96.5949 106.063 96.8004C105.755 97.0026 105.516 97.2678 105.347 97.5959C105.182 97.9207 105.099 98.2737 105.099 98.6548V99.5249C105.099 100.035 105.188 100.469 105.367 100.827C105.549 101.185 105.803 101.459 106.128 101.648C106.453 101.833 106.832 101.926 107.266 101.926C107.548 101.926 107.805 101.886 108.037 101.807C108.269 101.724 108.469 101.601 108.638 101.439C108.808 101.277 108.937 101.076 109.026 100.837L110.433 101.091C110.321 101.505 110.118 101.868 109.827 102.18C109.538 102.488 109.175 102.728 108.738 102.901C108.304 103.07 107.808 103.154 107.251 103.154ZM117.899 97.228L116.552 97.4666C116.496 97.2943 116.406 97.1302 116.284 96.9744C116.164 96.8187 116.002 96.6911 115.796 96.5916C115.591 96.4922 115.334 96.4425 115.026 96.4425C114.605 96.4425 114.253 96.5369 113.972 96.7259C113.69 96.9115 113.549 97.1518 113.549 97.4467C113.549 97.7019 113.644 97.9074 113.833 98.0632C114.021 98.219 114.326 98.3466 114.747 98.446L115.96 98.7244C116.663 98.8868 117.187 99.1371 117.531 99.4751C117.876 99.8132 118.048 100.252 118.048 100.793C118.048 101.25 117.916 101.658 117.651 102.016C117.389 102.37 117.023 102.649 116.552 102.851C116.085 103.053 115.543 103.154 114.926 103.154C114.071 103.154 113.374 102.972 112.833 102.607C112.293 102.239 111.962 101.717 111.839 101.041L113.276 100.822C113.365 101.197 113.549 101.48 113.828 101.673C114.106 101.862 114.469 101.956 114.916 101.956C115.404 101.956 115.793 101.855 116.085 101.653C116.376 101.447 116.522 101.197 116.522 100.902C116.522 100.663 116.433 100.463 116.254 100.3C116.078 100.138 115.808 100.015 115.443 99.9325L114.151 99.6491C113.438 99.4867 112.911 99.2282 112.57 98.8736C112.232 98.5189 112.063 98.0698 112.063 97.5263C112.063 97.0755 112.189 96.6811 112.441 96.343C112.692 96.005 113.04 95.7415 113.485 95.5526C113.929 95.3603 114.437 95.2642 115.011 95.2642C115.836 95.2642 116.486 95.4432 116.96 95.8011C117.434 96.1558 117.747 96.6314 117.899 97.228Z" fill="black"/>
<path d="M21.1186 139V128.818H27.5021V130.141H22.6548V133.243H27.169V134.56H22.6548V137.678H27.5618V139H21.1186ZM31.6571 139.169C31.1732 139.169 30.7357 139.08 30.3446 138.901C29.9535 138.718 29.6436 138.455 29.415 138.11C29.1896 137.765 29.0769 137.343 29.0769 136.842C29.0769 136.411 29.1597 136.057 29.3255 135.778C29.4912 135.5 29.7149 135.28 29.9966 135.117C30.2783 134.955 30.5932 134.832 30.9412 134.749C31.2892 134.666 31.6439 134.603 32.0051 134.56C32.4625 134.507 32.8337 134.464 33.1188 134.431C33.4038 134.395 33.611 134.337 33.7402 134.257C33.8695 134.178 33.9341 134.048 33.9341 133.869V133.835C33.9341 133.4 33.8115 133.064 33.5662 132.825C33.3243 132.587 32.963 132.467 32.4824 132.467C31.9819 132.467 31.5875 132.578 31.2992 132.8C31.0141 133.019 30.8169 133.263 30.7076 133.531L29.3105 133.213C29.4763 132.749 29.7182 132.375 30.0364 132.089C30.3579 131.801 30.7275 131.592 31.1451 131.463C31.5627 131.33 32.0018 131.264 32.4625 131.264C32.7675 131.264 33.0906 131.301 33.432 131.374C33.7767 131.443 34.0982 131.572 34.3965 131.761C34.6981 131.95 34.945 132.22 35.1373 132.572C35.3295 132.92 35.4256 133.372 35.4256 133.929V139H33.9739V137.956H33.9142C33.8181 138.148 33.6739 138.337 33.4817 138.523C33.2895 138.708 33.0426 138.862 32.7409 138.985C32.4393 139.108 32.0781 139.169 31.6571 139.169ZM31.9803 137.976C32.3913 137.976 32.7426 137.895 33.0343 137.732C33.3292 137.57 33.553 137.358 33.7054 137.096C33.8612 136.831 33.9391 136.547 33.9391 136.246V135.261C33.8861 135.314 33.7833 135.364 33.6309 135.411C33.4817 135.454 33.311 135.492 33.1188 135.525C32.9266 135.555 32.7393 135.583 32.557 135.609C32.3747 135.633 32.2222 135.652 32.0996 135.669C31.8113 135.705 31.5478 135.767 31.3091 135.853C31.0738 135.939 30.8849 136.063 30.7424 136.226C30.6032 136.385 30.5336 136.597 30.5336 136.862C30.5336 137.23 30.6694 137.509 30.9412 137.697C31.213 137.883 31.5594 137.976 31.9803 137.976ZM43.1278 133.228L41.7805 133.467C41.7242 133.294 41.6347 133.13 41.5121 132.974C41.3928 132.819 41.2304 132.691 41.0249 132.592C40.8194 132.492 40.5625 132.442 40.2543 132.442C39.8333 132.442 39.482 132.537 39.2003 132.726C38.9186 132.911 38.7777 133.152 38.7777 133.447C38.7777 133.702 38.8722 133.907 39.0611 134.063C39.25 134.219 39.5549 134.347 39.9759 134.446L41.1889 134.724C41.8916 134.887 42.4152 135.137 42.7599 135.475C43.1046 135.813 43.277 136.252 43.277 136.793C43.277 137.25 43.1444 137.658 42.8793 138.016C42.6174 138.37 42.2512 138.649 41.7805 138.851C41.3132 139.053 40.7713 139.154 40.1548 139.154C39.2997 139.154 38.602 138.972 38.0618 138.607C37.5215 138.239 37.1901 137.717 37.0675 137.041L38.5043 136.822C38.5938 137.197 38.7777 137.48 39.0561 137.673C39.3345 137.862 39.6974 137.956 40.1449 137.956C40.6321 137.956 41.0215 137.855 41.3132 137.653C41.6049 137.447 41.7507 137.197 41.7507 136.902C41.7507 136.663 41.6612 136.463 41.4822 136.3C41.3066 136.138 41.0365 136.015 40.6719 135.933L39.3793 135.649C38.6667 135.487 38.1397 135.228 37.7983 134.874C37.4602 134.519 37.2912 134.07 37.2912 133.526C37.2912 133.076 37.4171 132.681 37.669 132.343C37.9209 132.005 38.2689 131.741 38.7131 131.553C39.1572 131.36 39.666 131.264 40.2393 131.264C41.0646 131.264 41.7143 131.443 42.1882 131.801C42.6622 132.156 42.9754 132.631 43.1278 133.228ZM45.851 141.864C45.629 141.864 45.4268 141.845 45.2445 141.809C45.0622 141.776 44.9263 141.739 44.8368 141.7L45.1948 140.482C45.4666 140.554 45.7085 140.586 45.9206 140.576C46.1328 140.566 46.32 140.487 46.4824 140.337C46.6481 140.188 46.794 139.945 46.9199 139.607L47.1039 139.099L44.3098 131.364H45.9007L47.8347 137.29H47.9142L49.8482 131.364H51.4441L48.2971 140.019C48.1512 140.417 47.9656 140.753 47.7402 141.028C47.5149 141.307 47.2464 141.516 46.9348 141.655C46.6233 141.794 46.262 141.864 45.851 141.864ZM58.0327 134.466V139H56.5462V128.818H58.0128V132.607H58.1072C58.2862 132.196 58.5597 131.869 58.9276 131.627C59.2955 131.385 59.776 131.264 60.3693 131.264C60.893 131.264 61.3504 131.372 61.7415 131.587C62.1359 131.803 62.4408 132.124 62.6562 132.552C62.875 132.976 62.9844 133.506 62.9844 134.143V139H61.4979V134.322C61.4979 133.762 61.3537 133.327 61.0653 133.019C60.777 132.708 60.3759 132.552 59.8622 132.552C59.5109 132.552 59.196 132.626 58.9176 132.776C58.6425 132.925 58.4254 133.143 58.2663 133.432C58.1106 133.717 58.0327 134.062 58.0327 134.466ZM69.8054 135.833V131.364H71.2969V139H69.8352V137.678H69.7557C69.58 138.085 69.2983 138.425 68.9105 138.697C68.526 138.965 68.0471 139.099 67.4737 139.099C66.9832 139.099 66.549 138.992 66.1712 138.776C65.7966 138.558 65.5017 138.234 65.2862 137.807C65.0741 137.379 64.968 136.851 64.968 136.221V131.364H66.4545V136.042C66.4545 136.562 66.5987 136.977 66.8871 137.285C67.1754 137.593 67.55 137.747 68.0107 137.747C68.2891 137.747 68.5658 137.678 68.8409 137.538C69.1193 137.399 69.3497 137.189 69.532 136.907C69.7176 136.625 69.8087 136.267 69.8054 135.833ZM73.2942 139V131.364H74.7211V132.607H74.8155C74.9746 132.186 75.2348 131.857 75.5961 131.622C75.9573 131.384 76.3899 131.264 76.8936 131.264C77.4041 131.264 77.8316 131.384 78.1763 131.622C78.5243 131.861 78.7812 132.189 78.9469 132.607H79.0265C79.2087 132.199 79.4988 131.874 79.8965 131.632C80.2942 131.387 80.7682 131.264 81.3184 131.264C82.0111 131.264 82.5762 131.481 83.0137 131.915C83.4545 132.35 83.6749 133.004 83.6749 133.879V139H82.1884V134.018C82.1884 133.501 82.0475 133.127 81.7658 132.895C81.4841 132.663 81.1477 132.547 80.7566 132.547C80.2727 132.547 79.8965 132.696 79.628 132.994C79.3596 133.289 79.2253 133.669 79.2253 134.133V139H77.7438V133.924C77.7438 133.51 77.6145 133.177 77.356 132.925C77.0975 132.673 76.7611 132.547 76.3468 132.547C76.065 132.547 75.8049 132.621 75.5662 132.771C75.3309 132.916 75.1403 133.12 74.9945 133.382C74.852 133.644 74.7807 133.947 74.7807 134.292V139H73.2942ZM87.8896 139.169C87.4057 139.169 86.9682 139.08 86.5771 138.901C86.186 138.718 85.8761 138.455 85.6474 138.11C85.422 137.765 85.3093 137.343 85.3093 136.842C85.3093 136.411 85.3922 136.057 85.5579 135.778C85.7236 135.5 85.9473 135.28 86.229 135.117C86.5108 134.955 86.8256 134.832 87.1737 134.749C87.5217 134.666 87.8763 134.603 88.2376 134.56C88.695 134.507 89.0662 134.464 89.3512 134.431C89.6362 134.395 89.8434 134.337 89.9727 134.257C90.1019 134.178 90.1665 134.048 90.1665 133.869V133.835C90.1665 133.4 90.0439 133.064 89.7987 132.825C89.5567 132.587 89.1954 132.467 88.7148 132.467C88.2144 132.467 87.82 132.578 87.5316 132.8C87.2466 133.019 87.0494 133.263 86.94 133.531L85.543 133.213C85.7087 132.749 85.9506 132.375 86.2688 132.089C86.5903 131.801 86.9599 131.592 87.3775 131.463C87.7951 131.33 88.2343 131.264 88.695 131.264C88.9999 131.264 89.323 131.301 89.6644 131.374C90.0091 131.443 90.3306 131.572 90.6289 131.761C90.9305 131.95 91.1774 132.22 91.3697 132.572C91.5619 132.92 91.658 133.372 91.658 133.929V139H90.2063V137.956H90.1467C90.0505 138.148 89.9064 138.337 89.7141 138.523C89.5219 138.708 89.275 138.862 88.9734 138.985C88.6718 139.108 88.3105 139.169 87.8896 139.169ZM88.2127 137.976C88.6237 137.976 88.975 137.895 89.2667 137.732C89.5617 137.57 89.7854 137.358 89.9379 137.096C90.0936 136.831 90.1715 136.547 90.1715 136.246V135.261C90.1185 135.314 90.0157 135.364 89.8633 135.411C89.7141 135.454 89.5434 135.492 89.3512 135.525C89.159 135.555 88.9717 135.583 88.7894 135.609C88.6071 135.633 88.4547 135.652 88.332 135.669C88.0437 135.705 87.7802 135.767 87.5415 135.853C87.3062 135.939 87.1173 136.063 86.9748 136.226C86.8356 136.385 86.766 136.597 86.766 136.862C86.766 137.23 86.9019 137.509 87.1737 137.697C87.4454 137.883 87.7918 137.976 88.2127 137.976ZM95.1245 134.466V139H93.638V131.364H95.0648V132.607H95.1593C95.3349 132.202 95.61 131.877 95.9846 131.632C96.3624 131.387 96.838 131.264 97.4114 131.264C97.9318 131.264 98.3875 131.374 98.7786 131.592C99.1697 131.808 99.473 132.129 99.6884 132.557C99.9038 132.984 100.012 133.513 100.012 134.143V139H98.525V134.322C98.525 133.768 98.3809 133.336 98.0925 133.024C97.8042 132.709 97.4081 132.552 96.9043 132.552C96.5596 132.552 96.253 132.626 95.9846 132.776C95.7194 132.925 95.5089 133.143 95.3532 133.432C95.2007 133.717 95.1245 134.062 95.1245 134.466ZM102.005 139V131.364H103.492V139H102.005ZM102.756 130.185C102.497 130.185 102.275 130.099 102.09 129.927C101.907 129.751 101.816 129.542 101.816 129.3C101.816 129.055 101.907 128.846 102.09 128.674C102.275 128.498 102.497 128.411 102.756 128.411C103.014 128.411 103.235 128.498 103.417 128.674C103.603 128.846 103.695 129.055 103.695 129.3C103.695 129.542 103.603 129.751 103.417 129.927C103.235 130.099 103.014 130.185 102.756 130.185ZM108.35 139.149C107.734 139.149 107.183 138.992 106.7 138.677C106.219 138.359 105.841 137.906 105.566 137.32C105.294 136.73 105.158 136.022 105.158 135.197C105.158 134.371 105.296 133.665 105.571 133.079C105.849 132.492 106.231 132.043 106.714 131.732C107.198 131.42 107.747 131.264 108.36 131.264C108.834 131.264 109.215 131.344 109.504 131.503C109.795 131.659 110.021 131.841 110.18 132.05C110.342 132.259 110.468 132.442 110.558 132.602H110.647V128.818H112.134V139H110.682V137.812H110.558C110.468 137.974 110.339 138.16 110.17 138.369C110.004 138.577 109.775 138.76 109.484 138.915C109.192 139.071 108.814 139.149 108.35 139.149ZM108.678 137.881C109.106 137.881 109.467 137.769 109.762 137.543C110.06 137.315 110.286 136.998 110.438 136.594C110.594 136.189 110.672 135.719 110.672 135.182C110.672 134.652 110.596 134.187 110.443 133.79C110.291 133.392 110.067 133.082 109.772 132.86C109.477 132.638 109.112 132.527 108.678 132.527C108.231 132.527 107.858 132.643 107.56 132.875C107.261 133.107 107.036 133.424 106.884 133.825C106.734 134.226 106.66 134.678 106.66 135.182C106.66 135.692 106.736 136.151 106.888 136.559C107.041 136.967 107.266 137.29 107.565 137.528C107.866 137.764 108.237 137.881 108.678 137.881ZM116.477 139.169C115.994 139.169 115.556 139.08 115.165 138.901C114.774 138.718 114.464 138.455 114.235 138.11C114.01 137.765 113.897 137.343 113.897 136.842C113.897 136.411 113.98 136.057 114.146 135.778C114.311 135.5 114.535 135.28 114.817 135.117C115.099 134.955 115.414 134.832 115.762 134.749C116.11 134.666 116.464 134.603 116.825 134.56C117.283 134.507 117.654 134.464 117.939 134.431C118.224 134.395 118.431 134.337 118.561 134.257C118.69 134.178 118.754 134.048 118.754 133.869V133.835C118.754 133.4 118.632 133.064 118.387 132.825C118.145 132.587 117.783 132.467 117.303 132.467C116.802 132.467 116.408 132.578 116.119 132.8C115.834 133.019 115.637 133.263 115.528 133.531L114.131 133.213C114.297 132.749 114.539 132.375 114.857 132.089C115.178 131.801 115.548 131.592 115.965 131.463C116.383 131.33 116.822 131.264 117.283 131.264C117.588 131.264 117.911 131.301 118.252 131.374C118.597 131.443 118.919 131.572 119.217 131.761C119.518 131.95 119.765 132.22 119.958 132.572C120.15 132.92 120.246 133.372 120.246 133.929V139H118.794V137.956H118.735C118.638 138.148 118.494 138.337 118.302 138.523C118.11 138.708 117.863 138.862 117.561 138.985C117.26 139.108 116.898 139.169 116.477 139.169ZM116.801 137.976C117.212 137.976 117.563 137.895 117.855 137.732C118.15 137.57 118.373 137.358 118.526 137.096C118.682 136.831 118.759 136.547 118.759 136.246V135.261C118.706 135.314 118.604 135.364 118.451 135.411C118.302 135.454 118.131 135.492 117.939 135.525C117.747 135.555 117.56 135.583 117.377 135.609C117.195 135.633 117.043 135.652 116.92 135.669C116.632 135.705 116.368 135.767 116.129 135.853C115.894 135.939 115.705 136.063 115.563 136.226C115.423 136.385 115.354 136.597 115.354 136.862C115.354 137.23 115.49 137.509 115.762 137.697C116.033 137.883 116.38 137.976 116.801 137.976ZM125.085 139.149C124.468 139.149 123.918 138.992 123.434 138.677C122.953 138.359 122.576 137.906 122.3 137.32C122.029 136.73 121.893 136.022 121.893 135.197C121.893 134.371 122.03 133.665 122.305 133.079C122.584 132.492 122.965 132.043 123.449 131.732C123.933 131.42 124.481 131.264 125.094 131.264C125.568 131.264 125.95 131.344 126.238 131.503C126.53 131.659 126.755 131.841 126.914 132.05C127.076 132.259 127.202 132.442 127.292 132.602H127.381V128.818H128.868V139H127.416V137.812H127.292C127.202 137.974 127.073 138.16 126.904 138.369C126.738 138.577 126.51 138.76 126.218 138.915C125.926 139.071 125.549 139.149 125.085 139.149ZM125.413 137.881C125.84 137.881 126.201 137.769 126.496 137.543C126.795 137.315 127.02 136.998 127.173 136.594C127.328 136.189 127.406 135.719 127.406 135.182C127.406 134.652 127.33 134.187 127.178 133.79C127.025 133.392 126.801 133.082 126.506 132.86C126.211 132.638 125.847 132.527 125.413 132.527C124.965 132.527 124.592 132.643 124.294 132.875C123.996 133.107 123.77 133.424 123.618 133.825C123.469 134.226 123.394 134.678 123.394 135.182C123.394 135.692 123.47 136.151 123.623 136.559C123.775 136.967 124.001 137.29 124.299 137.528C124.601 137.764 124.972 137.881 125.413 137.881ZM134.281 139.154C133.528 139.154 132.88 138.993 132.337 138.672C131.797 138.347 131.379 137.891 131.084 137.305C130.792 136.715 130.646 136.024 130.646 135.232C130.646 134.449 130.792 133.76 131.084 133.163C131.379 132.567 131.79 132.101 132.317 131.766C132.847 131.432 133.467 131.264 134.176 131.264C134.607 131.264 135.025 131.335 135.429 131.478C135.834 131.621 136.196 131.844 136.518 132.149C136.839 132.454 137.093 132.85 137.279 133.337C137.464 133.821 137.557 134.41 137.557 135.102V135.629H131.487V134.516H136.1C136.1 134.125 136.021 133.778 135.862 133.477C135.703 133.172 135.479 132.931 135.191 132.756C134.905 132.58 134.571 132.492 134.186 132.492C133.769 132.492 133.404 132.595 133.093 132.8C132.784 133.003 132.546 133.268 132.377 133.596C132.211 133.921 132.128 134.274 132.128 134.655V135.525C132.128 136.035 132.218 136.469 132.396 136.827C132.579 137.185 132.832 137.459 133.157 137.648C133.482 137.833 133.861 137.926 134.296 137.926C134.577 137.926 134.834 137.886 135.066 137.807C135.298 137.724 135.499 137.601 135.668 137.439C135.837 137.277 135.966 137.076 136.056 136.837L137.463 137.091C137.35 137.505 137.148 137.868 136.856 138.18C136.568 138.488 136.205 138.728 135.767 138.901C135.333 139.07 134.838 139.154 134.281 139.154ZM144.929 133.228L143.581 133.467C143.525 133.294 143.435 133.13 143.313 132.974C143.194 132.819 143.031 132.691 142.826 132.592C142.62 132.492 142.363 132.442 142.055 132.442C141.634 132.442 141.283 132.537 141.001 132.726C140.719 132.911 140.578 133.152 140.578 133.447C140.578 133.702 140.673 133.907 140.862 134.063C141.051 134.219 141.356 134.347 141.777 134.446L142.99 134.724C143.692 134.887 144.216 135.137 144.561 135.475C144.905 135.813 145.078 136.252 145.078 136.793C145.078 137.25 144.945 137.658 144.68 138.016C144.418 138.37 144.052 138.649 143.581 138.851C143.114 139.053 142.572 139.154 141.956 139.154C141.1 139.154 140.403 138.972 139.863 138.607C139.322 138.239 138.991 137.717 138.868 137.041L140.305 136.822C140.395 137.197 140.578 137.48 140.857 137.673C141.135 137.862 141.498 137.956 141.946 137.956C142.433 137.956 142.822 137.855 143.114 137.653C143.406 137.447 143.551 137.197 143.551 136.902C143.551 136.663 143.462 136.463 143.283 136.3C143.107 136.138 142.837 136.015 142.473 135.933L141.18 135.649C140.467 135.487 139.94 135.228 139.599 134.874C139.261 134.519 139.092 134.07 139.092 133.526C139.092 133.076 139.218 132.681 139.47 132.343C139.722 132.005 140.07 131.741 140.514 131.553C140.958 131.36 141.467 131.264 142.04 131.264C142.865 131.264 143.515 131.443 143.989 131.801C144.463 132.156 144.776 132.631 144.929 133.228Z" fill="black"/>
<path d="M21.1186 175V164.818H27.5021V166.141H22.6548V169.243H27.169V170.56H22.6548V173.678H27.5618V175H21.1186ZM32.2935 175.149C31.677 175.149 31.1268 174.992 30.6429 174.677C30.1623 174.359 29.7845 173.906 29.5094 173.32C29.2376 172.73 29.1017 172.022 29.1017 171.197C29.1017 170.371 29.2393 169.665 29.5144 169.079C29.7928 168.492 30.1739 168.043 30.6578 167.732C31.1417 167.42 31.6903 167.264 32.3034 167.264C32.7774 167.264 33.1586 167.344 33.4469 167.503C33.7386 167.659 33.964 167.841 34.123 168.05C34.2855 168.259 34.4114 168.442 34.5009 168.602H34.5904V164.818H36.0769V175H34.6252V173.812H34.5009C34.4114 173.974 34.2821 174.16 34.1131 174.369C33.9474 174.577 33.7187 174.76 33.427 174.915C33.1354 175.071 32.7575 175.149 32.2935 175.149ZM32.6216 173.881C33.0492 173.881 33.4105 173.769 33.7054 173.543C34.0037 173.315 34.2291 172.998 34.3816 172.594C34.5373 172.189 34.6152 171.719 34.6152 171.182C34.6152 170.652 34.539 170.187 34.3865 169.79C34.2341 169.392 34.0104 169.082 33.7154 168.86C33.4204 168.638 33.0558 168.527 32.6216 168.527C32.1742 168.527 31.8013 168.643 31.503 168.875C31.2047 169.107 30.9793 169.424 30.8269 169.825C30.6777 170.226 30.6032 170.678 30.6032 171.182C30.6032 171.692 30.6794 172.151 30.8319 172.559C30.9843 172.967 31.2097 173.29 31.508 173.528C31.8096 173.764 32.1808 173.881 32.6216 173.881ZM43.0359 171.833V167.364H44.5273V175H43.0657V173.678H42.9862C42.8105 174.085 42.5288 174.425 42.141 174.697C41.7565 174.965 41.2776 175.099 40.7042 175.099C40.2137 175.099 39.7795 174.992 39.4016 174.776C39.0271 174.558 38.7321 174.234 38.5167 173.807C38.3046 173.379 38.1985 172.851 38.1985 172.221V167.364H39.685V172.042C39.685 172.562 39.8292 172.977 40.1175 173.285C40.4059 173.593 40.7804 173.747 41.2411 173.747C41.5195 173.747 41.7963 173.678 42.0714 173.538C42.3498 173.399 42.5801 173.189 42.7624 172.907C42.948 172.625 43.0392 172.267 43.0359 171.833ZM49.7413 175.154C49.0022 175.154 48.3658 174.987 47.8322 174.652C47.3019 174.314 46.8942 173.848 46.6092 173.255C46.3242 172.662 46.1816 171.982 46.1816 171.217C46.1816 170.441 46.3275 169.757 46.6191 169.163C46.9108 168.567 47.3218 168.101 47.8521 167.766C48.3824 167.432 49.0072 167.264 49.7264 167.264C50.3064 167.264 50.8234 167.372 51.2775 167.587C51.7316 167.799 52.0978 168.098 52.3762 168.482C52.658 168.867 52.8253 169.316 52.8784 169.83H51.4316C51.3521 169.472 51.1698 169.163 50.8848 168.905C50.603 168.646 50.2252 168.517 49.7512 168.517C49.3369 168.517 48.974 168.626 48.6625 168.845C48.3542 169.061 48.1139 169.369 47.9416 169.77C47.7692 170.168 47.6831 170.638 47.6831 171.182C47.6831 171.739 47.7676 172.219 47.9366 172.624C48.1056 173.028 48.3443 173.341 48.6525 173.563C48.9641 173.785 49.3303 173.896 49.7512 173.896C50.033 173.896 50.2882 173.845 50.5169 173.742C50.7489 173.636 50.9428 173.485 51.0985 173.29C51.2576 173.094 51.3687 172.859 51.4316 172.584H52.8784C52.8253 173.078 52.6646 173.518 52.3961 173.906C52.1277 174.294 51.7681 174.599 51.3173 174.821C50.8699 175.043 50.3445 175.154 49.7413 175.154ZM56.6903 175.169C56.2064 175.169 55.7689 175.08 55.3778 174.901C54.9867 174.718 54.6768 174.455 54.4482 174.11C54.2228 173.765 54.1101 173.343 54.1101 172.842C54.1101 172.411 54.1929 172.057 54.3587 171.778C54.5244 171.5 54.7481 171.28 55.0298 171.117C55.3116 170.955 55.6264 170.832 55.9744 170.749C56.3224 170.666 56.6771 170.603 57.0384 170.56C57.4957 170.507 57.867 170.464 58.152 170.431C58.437 170.395 58.6442 170.337 58.7734 170.257C58.9027 170.178 58.9673 170.048 58.9673 169.869V169.835C58.9673 169.4 58.8447 169.064 58.5994 168.825C58.3575 168.587 57.9962 168.467 57.5156 168.467C57.0152 168.467 56.6207 168.578 56.3324 168.8C56.0473 169.019 55.8501 169.263 55.7408 169.531L54.3438 169.213C54.5095 168.749 54.7514 168.375 55.0696 168.089C55.3911 167.801 55.7607 167.592 56.1783 167.463C56.5959 167.33 57.035 167.264 57.4957 167.264C57.8007 167.264 58.1238 167.301 58.4652 167.374C58.8099 167.443 59.1314 167.572 59.4297 167.761C59.7313 167.95 59.9782 168.22 60.1705 168.572C60.3627 168.92 60.4588 169.372 60.4588 169.929V175H59.0071V173.956H58.9474C58.8513 174.148 58.7071 174.337 58.5149 174.523C58.3227 174.708 58.0758 174.862 57.7741 174.985C57.4725 175.108 57.1113 175.169 56.6903 175.169ZM57.0135 173.976C57.4245 173.976 57.7758 173.895 58.0675 173.732C58.3625 173.57 58.5862 173.358 58.7386 173.096C58.8944 172.831 58.9723 172.547 58.9723 172.246V171.261C58.9193 171.314 58.8165 171.364 58.6641 171.411C58.5149 171.454 58.3442 171.492 58.152 171.525C57.9598 171.555 57.7725 171.583 57.5902 171.609C57.4079 171.633 57.2554 171.652 57.1328 171.669C56.8445 171.705 56.581 171.767 56.3423 171.853C56.107 171.939 55.9181 172.063 55.7756 172.226C55.6364 172.385 55.5668 172.597 55.5668 172.862C55.5668 173.23 55.7027 173.509 55.9744 173.697C56.2462 173.883 56.5926 173.976 57.0135 173.976ZM65.6554 175.154C64.9163 175.154 64.2799 174.987 63.7463 174.652C63.216 174.314 62.8083 173.848 62.5233 173.255C62.2382 172.662 62.0957 171.982 62.0957 171.217C62.0957 170.441 62.2415 169.757 62.5332 169.163C62.8249 168.567 63.2359 168.101 63.7662 167.766C64.2965 167.432 64.9212 167.264 65.6404 167.264C66.2205 167.264 66.7375 167.372 67.1916 167.587C67.6457 167.799 68.0119 168.098 68.2903 168.482C68.572 168.867 68.7394 169.316 68.7924 169.83H67.3457C67.2662 169.472 67.0839 169.163 66.7988 168.905C66.5171 168.646 66.1393 168.517 65.6653 168.517C65.251 168.517 64.8881 168.626 64.5765 168.845C64.2683 169.061 64.028 169.369 63.8556 169.77C63.6833 170.168 63.5971 170.638 63.5971 171.182C63.5971 171.739 63.6816 172.219 63.8507 172.624C64.0197 173.028 64.2583 173.341 64.5666 173.563C64.8781 173.785 65.2444 173.896 65.6653 173.896C65.947 173.896 66.2022 173.845 66.4309 173.742C66.6629 173.636 66.8568 173.485 67.0126 173.29C67.1717 173.094 67.2827 172.859 67.3457 172.584H68.7924C68.7394 173.078 68.5787 173.518 68.3102 173.906C68.0417 174.294 67.6821 174.599 67.2314 174.821C66.7839 175.043 66.2586 175.154 65.6554 175.154ZM65.1184 174.96H66.0929L66.0133 175.368C66.3017 175.414 66.5536 175.53 66.769 175.716C66.9844 175.902 67.0922 176.182 67.0922 176.556C67.0955 177.004 66.9016 177.366 66.5105 177.645C66.1227 177.923 65.5609 178.062 64.8251 178.062L64.7953 177.232C65.14 177.232 65.4184 177.183 65.6305 177.083C65.8459 176.984 65.9553 176.823 65.9586 176.601C65.9619 176.379 65.8791 176.223 65.71 176.134C65.5443 176.044 65.2792 175.981 64.9146 175.945L65.1184 174.96ZM72.6044 175.169C72.1205 175.169 71.683 175.08 71.2919 174.901C70.9008 174.718 70.5909 174.455 70.3622 174.11C70.1368 173.765 70.0241 173.343 70.0241 172.842C70.0241 172.411 70.107 172.057 70.2727 171.778C70.4384 171.5 70.6622 171.28 70.9439 171.117C71.2256 170.955 71.5405 170.832 71.8885 170.749C72.2365 170.666 72.5911 170.603 72.9524 170.56C73.4098 170.507 73.781 170.464 74.0661 170.431C74.3511 170.395 74.5582 170.337 74.6875 170.257C74.8168 170.178 74.8814 170.048 74.8814 169.869V169.835C74.8814 169.4 74.7588 169.064 74.5135 168.825C74.2715 168.587 73.9103 168.467 73.4297 168.467C72.9292 168.467 72.5348 168.578 72.2464 168.8C71.9614 169.019 71.7642 169.263 71.6548 169.531L70.2578 169.213C70.4235 168.749 70.6655 168.375 70.9837 168.089C71.3052 167.801 71.6747 167.592 72.0923 167.463C72.5099 167.33 72.9491 167.264 73.4098 167.264C73.7147 167.264 74.0379 167.301 74.3793 167.374C74.724 167.443 75.0455 167.572 75.3438 167.761C75.6454 167.95 75.8923 168.22 76.0845 168.572C76.2768 168.92 76.3729 169.372 76.3729 169.929V175H74.9212V173.956H74.8615C74.7654 174.148 74.6212 174.337 74.429 174.523C74.2367 174.708 73.9898 174.862 73.6882 174.985C73.3866 175.108 73.0253 175.169 72.6044 175.169ZM72.9276 173.976C73.3385 173.976 73.6899 173.895 73.9815 173.732C74.2765 173.57 74.5002 173.358 74.6527 173.096C74.8085 172.831 74.8864 172.547 74.8864 172.246V171.261C74.8333 171.314 74.7306 171.364 74.5781 171.411C74.429 171.454 74.2583 171.492 74.0661 171.525C73.8738 171.555 73.6866 171.583 73.5043 171.609C73.322 171.633 73.1695 171.652 73.0469 171.669C72.7585 171.705 72.495 171.767 72.2564 171.853C72.0211 171.939 71.8321 172.063 71.6896 172.226C71.5504 172.385 71.4808 172.597 71.4808 172.862C71.4808 173.23 71.6167 173.509 71.8885 173.697C72.1603 173.883 72.5066 173.976 72.9276 173.976ZM71.9929 166.439L70.9936 166.409C70.9936 165.859 71.1411 165.42 71.4361 165.092C71.7344 164.763 72.1023 164.599 72.5398 164.599C72.742 164.599 72.9193 164.634 73.0717 164.704C73.2242 164.77 73.3667 164.848 73.4993 164.938C73.6352 165.024 73.7694 165.102 73.902 165.171C74.0379 165.237 74.1887 165.271 74.3544 165.271C74.5466 165.271 74.7024 165.198 74.8217 165.052C74.9444 164.906 75.0057 164.725 75.0057 164.51L75.9851 164.575C75.9851 165.128 75.8359 165.564 75.5376 165.882C75.2393 166.197 74.8731 166.356 74.4389 166.359C74.2036 166.359 74.008 166.326 73.8523 166.26C73.6998 166.19 73.5639 166.112 73.4446 166.026C73.3253 165.937 73.2027 165.857 73.0767 165.788C72.9508 165.718 72.8 165.683 72.6243 165.683C72.4387 165.683 72.2862 165.756 72.1669 165.902C72.0509 166.045 71.9929 166.223 71.9929 166.439ZM81.5694 175.154C80.8535 175.154 80.2288 174.99 79.6951 174.662C79.1615 174.334 78.7472 173.875 78.4522 173.285C78.1573 172.695 78.0098 172.005 78.0098 171.217C78.0098 170.424 78.1573 169.732 78.4522 169.138C78.7472 168.545 79.1615 168.085 79.6951 167.756C80.2288 167.428 80.8535 167.264 81.5694 167.264C82.2853 167.264 82.9101 167.428 83.4437 167.756C83.9773 168.085 84.3916 168.545 84.6866 169.138C84.9816 169.732 85.1291 170.424 85.1291 171.217C85.1291 172.005 84.9816 172.695 84.6866 173.285C84.3916 173.875 83.9773 174.334 83.4437 174.662C82.9101 174.99 82.2853 175.154 81.5694 175.154ZM81.5744 173.906C82.0384 173.906 82.4229 173.784 82.7278 173.538C83.0327 173.293 83.2581 172.967 83.4039 172.559C83.5531 172.151 83.6277 171.702 83.6277 171.212C83.6277 170.724 83.5531 170.277 83.4039 169.869C83.2581 169.458 83.0327 169.129 82.7278 168.88C82.4229 168.631 82.0384 168.507 81.5744 168.507C81.1071 168.507 80.7193 168.631 80.411 168.88C80.1061 169.129 79.8791 169.458 79.7299 169.869C79.5841 170.277 79.5112 170.724 79.5112 171.212C79.5112 171.702 79.5841 172.151 79.7299 172.559C79.8791 172.967 80.1061 173.293 80.411 173.538C80.7193 173.784 81.1071 173.906 81.5744 173.906ZM90.6127 175V164.818H96.9963V166.141H92.149V169.243H96.6632V170.56H92.149V173.678H97.0559V175H90.6127ZM100.102 167.364L101.788 170.337L103.488 167.364H105.114L102.732 171.182L105.134 175H103.508L101.788 172.146L100.072 175H98.4418L100.818 171.182L98.4716 167.364H100.102ZM109.63 175.154C108.878 175.154 108.23 174.993 107.686 174.672C107.146 174.347 106.729 173.891 106.434 173.305C106.142 172.715 105.996 172.024 105.996 171.232C105.996 170.449 106.142 169.76 106.434 169.163C106.729 168.567 107.14 168.101 107.667 167.766C108.197 167.432 108.817 167.264 109.526 167.264C109.957 167.264 110.374 167.335 110.779 167.478C111.183 167.621 111.546 167.844 111.868 168.149C112.189 168.454 112.443 168.85 112.628 169.337C112.814 169.821 112.907 170.41 112.907 171.102V171.629H106.836V170.516H111.45C111.45 170.125 111.37 169.778 111.211 169.477C111.052 169.172 110.828 168.931 110.54 168.756C110.255 168.58 109.92 168.492 109.536 168.492C109.118 168.492 108.754 168.595 108.442 168.8C108.134 169.003 107.895 169.268 107.726 169.596C107.56 169.921 107.478 170.274 107.478 170.655V171.525C107.478 172.035 107.567 172.469 107.746 172.827C107.928 173.185 108.182 173.459 108.507 173.648C108.832 173.833 109.211 173.926 109.645 173.926C109.927 173.926 110.184 173.886 110.416 173.807C110.648 173.724 110.848 173.601 111.017 173.439C111.186 173.277 111.316 173.076 111.405 172.837L112.812 173.091C112.699 173.505 112.497 173.868 112.206 174.18C111.917 174.488 111.554 174.728 111.117 174.901C110.683 175.07 110.187 175.154 109.63 175.154ZM117.773 175.154C117.033 175.154 116.397 174.987 115.863 174.652C115.333 174.314 114.925 173.848 114.64 173.255C114.355 172.662 114.213 171.982 114.213 171.217C114.213 170.441 114.359 169.757 114.65 169.163C114.942 168.567 115.353 168.101 115.883 167.766C116.414 167.432 117.038 167.264 117.758 167.264C118.338 167.264 118.855 167.372 119.309 167.587C119.763 167.799 120.129 168.098 120.407 168.482C120.689 168.867 120.857 169.316 120.91 169.83H119.463C119.383 169.472 119.201 169.163 118.916 168.905C118.634 168.646 118.256 168.517 117.782 168.517C117.368 168.517 117.005 168.626 116.694 168.845C116.385 169.061 116.145 169.369 115.973 169.77C115.8 170.168 115.714 170.638 115.714 171.182C115.714 171.739 115.799 172.219 115.968 172.624C116.137 173.028 116.376 173.341 116.684 173.563C116.995 173.785 117.362 173.896 117.782 173.896C118.064 173.896 118.319 173.845 118.548 173.742C118.78 173.636 118.974 173.485 119.13 173.29C119.289 173.094 119.4 172.859 119.463 172.584H120.91C120.857 173.078 120.696 173.518 120.427 173.906C120.159 174.294 119.799 174.599 119.349 174.821C118.901 175.043 118.376 175.154 117.773 175.154ZM127.337 171.833V167.364H128.828V175H127.366V173.678H127.287C127.111 174.085 126.83 174.425 126.442 174.697C126.057 174.965 125.578 175.099 125.005 175.099C124.514 175.099 124.08 174.992 123.702 174.776C123.328 174.558 123.033 174.234 122.817 173.807C122.605 173.379 122.499 172.851 122.499 172.221V167.364H123.986V172.042C123.986 172.562 124.13 172.977 124.418 173.285C124.707 173.593 125.081 173.747 125.542 173.747C125.82 173.747 126.097 173.678 126.372 173.538C126.651 173.399 126.881 173.189 127.063 172.907C127.249 172.625 127.34 172.267 127.337 171.833ZM134.39 167.364V168.557H130.219V167.364H134.39ZM131.338 165.534H132.824V172.758C132.824 173.046 132.867 173.263 132.953 173.409C133.039 173.552 133.151 173.649 133.286 173.702C133.426 173.752 133.576 173.777 133.739 173.777C133.858 173.777 133.963 173.769 134.052 173.752C134.142 173.736 134.211 173.722 134.261 173.712L134.529 174.94C134.443 174.973 134.32 175.007 134.161 175.04C134.002 175.076 133.803 175.096 133.565 175.099C133.174 175.106 132.809 175.036 132.471 174.891C132.133 174.745 131.86 174.519 131.651 174.214C131.442 173.91 131.338 173.527 131.338 173.066V165.534ZM136.034 175V167.364H137.521V175H136.034ZM136.785 166.185C136.527 166.185 136.305 166.099 136.119 165.927C135.937 165.751 135.846 165.542 135.846 165.3C135.846 165.055 135.937 164.846 136.119 164.674C136.305 164.498 136.527 164.411 136.785 164.411C137.044 164.411 137.264 164.498 137.446 164.674C137.632 164.846 137.725 165.055 137.725 165.3C137.725 165.542 137.632 165.751 137.446 165.927C137.264 166.099 137.044 166.185 136.785 166.185ZM146.053 167.364L143.284 175H141.693L138.919 167.364H140.515L142.449 173.24H142.529L144.458 167.364H146.053ZM149.454 175.169C148.97 175.169 148.533 175.08 148.142 174.901C147.75 174.718 147.441 174.455 147.212 174.11C146.986 173.765 146.874 173.343 146.874 172.842C146.874 172.411 146.957 172.057 147.122 171.778C147.288 171.5 147.512 171.28 147.794 171.117C148.075 170.955 148.39 170.832 148.738 170.749C149.086 170.666 149.441 170.603 149.802 170.56C150.259 170.507 150.631 170.464 150.916 170.431C151.201 170.395 151.408 170.337 151.537 170.257C151.666 170.178 151.731 170.048 151.731 169.869V169.835C151.731 169.4 151.608 169.064 151.363 168.825C151.121 168.587 150.76 168.467 150.279 168.467C149.779 168.467 149.384 168.578 149.096 168.8C148.811 169.019 148.614 169.263 148.504 169.531L147.107 169.213C147.273 168.749 147.515 168.375 147.833 168.089C148.155 167.801 148.524 167.592 148.942 167.463C149.36 167.33 149.799 167.264 150.259 167.264C150.564 167.264 150.887 167.301 151.229 167.374C151.574 167.443 151.895 167.572 152.193 167.761C152.495 167.95 152.742 168.22 152.934 168.572C153.126 168.92 153.222 169.372 153.222 169.929V175H151.771V173.956H151.711C151.615 174.148 151.471 174.337 151.279 174.523C151.086 174.708 150.839 174.862 150.538 174.985C150.236 175.108 149.875 175.169 149.454 175.169ZM149.777 173.976C150.188 173.976 150.539 173.895 150.831 173.732C151.126 173.57 151.35 173.358 151.502 173.096C151.658 172.831 151.736 172.547 151.736 172.246V171.261C151.683 171.314 151.58 171.364 151.428 171.411C151.279 171.454 151.108 171.492 150.916 171.525C150.723 171.555 150.536 171.583 150.354 171.609C150.172 171.633 150.019 171.652 149.896 171.669C149.608 171.705 149.345 171.767 149.106 171.853C148.871 171.939 148.682 172.063 148.539 172.226C148.4 172.385 148.33 172.597 148.33 172.862C148.33 173.23 148.466 173.509 148.738 173.697C149.01 173.883 149.356 173.976 149.777 173.976Z" fill="black"/>
<path d="M21.1186 211V200.818H27.5021V202.141H22.6548V205.243H27.169V206.56H22.6548V209.678H27.5618V211H21.1186ZM29.5542 200.818H31.4185L34.66 208.733H34.7793L38.0208 200.818H39.8851V211H38.4235V203.632H38.329L35.3262 210.985H34.1131L31.1103 203.627H31.0158V211H29.5542V200.818ZM42.1186 211V200.818H45.8473C46.5698 200.818 47.1681 200.937 47.642 201.176C48.116 201.411 48.4706 201.731 48.706 202.136C48.9413 202.537 49.0589 202.989 49.0589 203.493C49.0589 203.917 48.9811 204.275 48.8253 204.567C48.6695 204.855 48.4607 205.087 48.1989 205.263C47.9403 205.435 47.6553 205.561 47.3438 205.641V205.74C47.6818 205.757 48.0116 205.866 48.3331 206.068C48.6579 206.267 48.9264 206.55 49.1385 206.918C49.3506 207.286 49.4567 207.734 49.4567 208.261C49.4567 208.781 49.334 209.248 49.0888 209.663C48.8468 210.074 48.4723 210.4 47.9652 210.642C47.4581 210.881 46.8101 211 46.0213 211H42.1186ZM43.6548 209.683H45.8722C46.608 209.683 47.1349 209.54 47.4531 209.255C47.7713 208.97 47.9304 208.614 47.9304 208.186C47.9304 207.865 47.8492 207.57 47.6868 207.301C47.5244 207.033 47.2924 206.819 46.9908 206.66C46.6925 206.501 46.3378 206.421 45.9268 206.421H43.6548V209.683ZM43.6548 205.223H45.7131C46.0578 205.223 46.3677 205.157 46.6428 205.024C46.9212 204.892 47.1416 204.706 47.304 204.467C47.4697 204.225 47.5526 203.94 47.5526 203.612C47.5526 203.191 47.4051 202.838 47.1101 202.553C46.8151 202.268 46.3627 202.126 45.7528 202.126H43.6548V205.223ZM52.1388 211H50.5082L54.1722 200.818H55.9471L59.6112 211H57.9805L55.1019 202.668H55.0224L52.1388 211ZM52.4123 207.013H57.7021V208.305H52.4123V207.013Z" fill="black"/>
<path d="M21.1186 247V236.818H27.5021V238.141H22.6548V241.243H27.169V242.56H22.6548V245.678H27.5618V247H21.1186ZM35.9675 239.364L33.1983 247H31.6074L28.8333 239.364H30.4292L32.3631 245.24H32.4426L34.3716 239.364H35.9675ZM40.396 247.154C39.6436 247.154 38.9956 246.993 38.4521 246.672C37.9118 246.347 37.4942 245.891 37.1992 245.305C36.9076 244.715 36.7617 244.024 36.7617 243.232C36.7617 242.449 36.9076 241.76 37.1992 241.163C37.4942 240.567 37.9052 240.101 38.4322 239.766C38.9625 239.432 39.5823 239.264 40.2915 239.264C40.7224 239.264 41.14 239.335 41.5444 239.478C41.9487 239.621 42.3117 239.844 42.6332 240.149C42.9547 240.454 43.2082 240.85 43.3938 241.337C43.5794 241.821 43.6722 242.41 43.6722 243.102V243.629H37.6019V242.516H42.2156C42.2156 242.125 42.136 241.778 41.9769 241.477C41.8178 241.172 41.5941 240.931 41.3058 240.756C41.0207 240.58 40.686 240.492 40.3015 240.492C39.8839 240.492 39.5193 240.595 39.2077 240.8C38.8995 241.003 38.6609 241.268 38.4918 241.596C38.3261 241.921 38.2433 242.274 38.2433 242.655V243.525C38.2433 244.035 38.3327 244.469 38.5117 244.827C38.694 245.185 38.9476 245.459 39.2724 245.648C39.5972 245.833 39.9767 245.926 40.4109 245.926C40.6926 245.926 40.9495 245.886 41.1815 245.807C41.4135 245.724 41.614 245.601 41.783 245.439C41.9521 245.277 42.0813 245.076 42.1708 244.837L43.5778 245.091C43.4651 245.505 43.2629 245.868 42.9712 246.18C42.6829 246.488 42.32 246.728 41.8825 246.901C41.4483 247.07 40.9528 247.154 40.396 247.154ZM46.8081 242.466V247H45.3216V239.364H46.7484V240.607H46.8429C47.0185 240.202 47.2936 239.877 47.6681 239.632C48.046 239.387 48.5216 239.264 49.095 239.264C49.6154 239.264 50.0711 239.374 50.4622 239.592C50.8533 239.808 51.1565 240.129 51.372 240.557C51.5874 240.984 51.6951 241.513 51.6951 242.143V247H50.2086V242.322C50.2086 241.768 50.0645 241.336 49.7761 241.024C49.4877 240.709 49.0917 240.552 48.5879 240.552C48.2432 240.552 47.9366 240.626 47.6681 240.776C47.403 240.925 47.1925 241.143 47.0368 241.432C46.8843 241.717 46.8081 242.062 46.8081 242.466ZM57.2534 239.364V240.557H53.0822V239.364H57.2534ZM54.2008 237.534H55.6873V244.758C55.6873 245.046 55.7304 245.263 55.8166 245.409C55.9028 245.552 56.0138 245.649 56.1497 245.702C56.2889 245.752 56.4397 245.777 56.6021 245.777C56.7214 245.777 56.8258 245.769 56.9153 245.752C57.0048 245.736 57.0744 245.722 57.1241 245.712L57.3926 246.94C57.3064 246.973 57.1838 247.007 57.0247 247.04C56.8656 247.076 56.6667 247.096 56.4281 247.099C56.037 247.106 55.6724 247.036 55.3343 246.891C54.9963 246.745 54.7228 246.519 54.514 246.214C54.3052 245.91 54.2008 245.527 54.2008 245.066V237.534ZM62.0323 247.154C61.3164 247.154 60.6916 246.99 60.158 246.662C59.6244 246.334 59.2101 245.875 58.9151 245.285C58.6201 244.695 58.4727 244.005 58.4727 243.217C58.4727 242.424 58.6201 241.732 58.9151 241.138C59.2101 240.545 59.6244 240.085 60.158 239.756C60.6916 239.428 61.3164 239.264 62.0323 239.264C62.7482 239.264 63.373 239.428 63.9066 239.756C64.4402 240.085 64.8545 240.545 65.1495 241.138C65.4445 241.732 65.592 242.424 65.592 243.217C65.592 244.005 65.4445 244.695 65.1495 245.285C64.8545 245.875 64.4402 246.334 63.9066 246.662C63.373 246.99 62.7482 247.154 62.0323 247.154ZM62.0373 245.906C62.5013 245.906 62.8858 245.784 63.1907 245.538C63.4956 245.293 63.721 244.967 63.8668 244.559C64.016 244.151 64.0906 243.702 64.0906 243.212C64.0906 242.724 64.016 242.277 63.8668 241.869C63.721 241.458 63.4956 241.129 63.1907 240.88C62.8858 240.631 62.5013 240.507 62.0373 240.507C61.57 240.507 61.1822 240.631 60.8739 240.88C60.569 241.129 60.342 241.458 60.1928 241.869C60.047 242.277 59.9741 242.724 59.9741 243.212C59.9741 243.702 60.047 244.151 60.1928 244.559C60.342 244.967 60.569 245.293 60.8739 245.538C61.1822 245.784 61.57 245.906 62.0373 245.906ZM72.9735 241.228L71.6262 241.467C71.5699 241.294 71.4804 241.13 71.3578 240.974C71.2385 240.819 71.0761 240.691 70.8706 240.592C70.6651 240.492 70.4082 240.442 70.1 240.442C69.679 240.442 69.3277 240.537 69.046 240.726C68.7643 240.911 68.6234 241.152 68.6234 241.447C68.6234 241.702 68.7179 241.907 68.9068 242.063C69.0957 242.219 69.4006 242.347 69.8216 242.446L71.0346 242.724C71.7373 242.887 72.2609 243.137 72.6056 243.475C72.9503 243.813 73.1227 244.252 73.1227 244.793C73.1227 245.25 72.9901 245.658 72.725 246.016C72.4631 246.37 72.0969 246.649 71.6262 246.851C71.1589 247.053 70.617 247.154 70.0005 247.154C69.1454 247.154 68.4477 246.972 67.9075 246.607C67.3672 246.239 67.0358 245.717 66.9132 245.041L68.35 244.822C68.4395 245.197 68.6234 245.48 68.9018 245.673C69.1802 245.862 69.5431 245.956 69.9906 245.956C70.4778 245.956 70.8672 245.855 71.1589 245.653C71.4506 245.447 71.5964 245.197 71.5964 244.902C71.5964 244.663 71.5069 244.463 71.3279 244.3C71.1523 244.138 70.8822 244.015 70.5176 243.933L69.225 243.649C68.5124 243.487 67.9854 243.228 67.644 242.874C67.3059 242.519 67.1369 242.07 67.1369 241.526C67.1369 241.076 67.2628 240.681 67.5147 240.343C67.7666 240.005 68.1146 239.741 68.5588 239.553C69.0029 239.36 69.5117 239.264 70.085 239.264C70.9103 239.264 71.56 239.443 72.0339 239.801C72.5079 240.156 72.8211 240.631 72.9735 241.228Z" fill="black"/>
<path d="M22.6548 272.818V283H21.1186V272.818H22.6548ZM24.7727 283V275.364H26.1996V276.607H26.294C26.4531 276.186 26.7133 275.857 27.0746 275.622C27.4358 275.384 27.8684 275.264 28.3722 275.264C28.8826 275.264 29.3101 275.384 29.6548 275.622C30.0028 275.861 30.2597 276.189 30.4254 276.607H30.505C30.6873 276.199 30.9773 275.874 31.375 275.632C31.7727 275.387 32.2467 275.264 32.7969 275.264C33.4896 275.264 34.0547 275.481 34.4922 275.915C34.933 276.35 35.1534 277.004 35.1534 277.879V283H33.6669V278.018C33.6669 277.501 33.526 277.127 33.2443 276.895C32.9626 276.663 32.6262 276.547 32.2351 276.547C31.7512 276.547 31.375 276.696 31.1065 276.994C30.8381 277.289 30.7038 277.669 30.7038 278.133V283H29.2223V277.924C29.2223 277.51 29.093 277.177 28.8345 276.925C28.576 276.673 28.2396 276.547 27.8253 276.547C27.5436 276.547 27.2834 276.621 27.0447 276.771C26.8094 276.916 26.6188 277.12 26.473 277.382C26.3305 277.644 26.2592 277.947 26.2592 278.292V283H24.7727ZM40.437 283.154C39.6846 283.154 39.0366 282.993 38.4931 282.672C37.9528 282.347 37.5352 281.891 37.2402 281.305C36.9486 280.715 36.8027 280.024 36.8027 279.232C36.8027 278.449 36.9486 277.76 37.2402 277.163C37.5352 276.567 37.9462 276.101 38.4732 275.766C39.0035 275.432 39.6233 275.264 40.3326 275.264C40.7634 275.264 41.181 275.335 41.5854 275.478C41.9898 275.621 42.3527 275.844 42.6742 276.149C42.9957 276.454 43.2492 276.85 43.4348 277.337C43.6204 277.821 43.7132 278.41 43.7132 279.102V279.629H37.6429V278.516H42.2566C42.2566 278.125 42.177 277.778 42.0179 277.477C41.8588 277.172 41.6351 276.931 41.3468 276.756C41.0617 276.58 40.727 276.492 40.3425 276.492C39.9249 276.492 39.5603 276.595 39.2488 276.8C38.9405 277.003 38.7019 277.268 38.5328 277.596C38.3671 277.921 38.2843 278.274 38.2843 278.655V279.525C38.2843 280.035 38.3738 280.469 38.5527 280.827C38.735 281.185 38.9886 281.459 39.3134 281.648C39.6382 281.833 40.0177 281.926 40.4519 281.926C40.7336 281.926 40.9905 281.886 41.2225 281.807C41.4545 281.724 41.655 281.601 41.824 281.439C41.9931 281.277 42.1223 281.076 42.2118 280.837L43.6188 281.091C43.5061 281.505 43.3039 281.868 43.0123 282.18C42.7239 282.488 42.361 282.728 41.9235 282.901C41.4893 283.07 40.9938 283.154 40.437 283.154ZM45.3626 283V275.364H46.7994V276.577H46.8789C47.0181 276.166 47.2634 275.843 47.6147 275.607C47.9693 275.369 48.3704 275.249 48.8178 275.249C48.9106 275.249 49.02 275.253 49.146 275.259C49.2752 275.266 49.3763 275.274 49.4492 275.284V276.706C49.3896 276.689 49.2835 276.671 49.131 276.651C48.9786 276.628 48.8261 276.616 48.6737 276.616C48.3223 276.616 48.0091 276.691 47.734 276.84C47.4622 276.986 47.2468 277.19 47.0877 277.452C46.9286 277.71 46.8491 278.005 46.8491 278.337V283H45.3626ZM56.4579 277.228L55.1106 277.467C55.0543 277.294 54.9648 277.13 54.8422 276.974C54.7228 276.819 54.5604 276.691 54.3549 276.592C54.1494 276.492 53.8926 276.442 53.5843 276.442C53.1634 276.442 52.8121 276.537 52.5304 276.726C52.2486 276.911 52.1078 277.152 52.1078 277.447C52.1078 277.702 52.2022 277.907 52.3912 278.063C52.5801 278.219 52.885 278.347 53.3059 278.446L54.519 278.724C55.2217 278.887 55.7453 279.137 56.09 279.475C56.4347 279.813 56.6071 280.252 56.6071 280.793C56.6071 281.25 56.4745 281.658 56.2093 282.016C55.9475 282.37 55.5813 282.649 55.1106 282.851C54.6433 283.053 54.1014 283.154 53.4849 283.154C52.6298 283.154 51.9321 282.972 51.3919 282.607C50.8516 282.239 50.5202 281.717 50.3975 281.041L51.8343 280.822C51.9238 281.197 52.1078 281.48 52.3862 281.673C52.6646 281.862 53.0275 281.956 53.475 281.956C53.9622 281.956 54.3516 281.855 54.6433 281.653C54.935 281.447 55.0808 281.197 55.0808 280.902C55.0808 280.663 54.9913 280.463 54.8123 280.3C54.6367 280.138 54.3665 280.015 54.002 279.933L52.7093 279.649C51.9967 279.487 51.4698 279.228 51.1284 278.874C50.7903 278.519 50.6213 278.07 50.6213 277.526C50.6213 277.076 50.7472 276.681 50.9991 276.343C51.251 276.005 51.599 275.741 52.0431 275.553C52.4873 275.36 52.996 275.264 53.5694 275.264C54.3947 275.264 55.0443 275.443 55.5183 275.801C55.9922 276.156 56.3055 276.631 56.4579 277.228ZM60.4638 283.169C59.9799 283.169 59.5424 283.08 59.1513 282.901C58.7602 282.718 58.4503 282.455 58.2216 282.11C57.9962 281.765 57.8835 281.343 57.8835 280.842C57.8835 280.411 57.9664 280.057 58.1321 279.778C58.2978 279.5 58.5215 279.28 58.8033 279.117C59.085 278.955 59.3999 278.832 59.7479 278.749C60.0959 278.666 60.4505 278.603 60.8118 278.56C61.2692 278.507 61.6404 278.464 61.9254 278.431C62.2105 278.395 62.4176 278.337 62.5469 278.257C62.6761 278.178 62.7408 278.048 62.7408 277.869V277.835C62.7408 277.4 62.6181 277.064 62.3729 276.825C62.1309 276.587 61.7696 276.467 61.2891 276.467C60.7886 276.467 60.3942 276.578 60.1058 276.8C59.8208 277.019 59.6236 277.263 59.5142 277.531L58.1172 277.213C58.2829 276.749 58.5249 276.375 58.843 276.089C59.1645 275.801 59.5341 275.592 59.9517 275.463C60.3693 275.33 60.8085 275.264 61.2692 275.264C61.5741 275.264 61.8973 275.301 62.2386 275.374C62.5833 275.443 62.9048 275.572 63.2031 275.761C63.5047 275.95 63.7517 276.22 63.9439 276.572C64.1361 276.92 64.2322 277.372 64.2322 277.929V283H62.7805V281.956H62.7209C62.6248 282.148 62.4806 282.337 62.2884 282.523C62.0961 282.708 61.8492 282.862 61.5476 282.985C61.246 283.108 60.8847 283.169 60.4638 283.169ZM60.7869 281.976C61.1979 281.976 61.5492 281.895 61.8409 281.732C62.1359 281.57 62.3596 281.358 62.5121 281.096C62.6679 280.831 62.7457 280.547 62.7457 280.246V279.261C62.6927 279.314 62.59 279.364 62.4375 279.411C62.2884 279.454 62.1177 279.492 61.9254 279.525C61.7332 279.555 61.5459 279.583 61.3636 279.609C61.1813 279.633 61.0289 279.652 60.9062 279.669C60.6179 279.705 60.3544 279.767 60.1158 279.853C59.8804 279.939 59.6915 280.063 59.549 280.226C59.4098 280.385 59.3402 280.597 59.3402 280.862C59.3402 281.23 59.4761 281.509 59.7479 281.697C60.0196 281.883 60.366 281.976 60.7869 281.976ZM59.8523 274.439L58.853 274.409C58.853 273.859 59.0005 273.42 59.2955 273.092C59.5938 272.763 59.9616 272.599 60.3991 272.599C60.6013 272.599 60.7786 272.634 60.9311 272.704C61.0836 272.77 61.2261 272.848 61.3587 272.938C61.4946 273.024 61.6288 273.102 61.7614 273.171C61.8973 273.237 62.0481 273.271 62.2138 273.271C62.406 273.271 62.5618 273.198 62.6811 273.052C62.8037 272.906 62.8651 272.725 62.8651 272.51L63.8445 272.575C63.8445 273.128 63.6953 273.564 63.397 273.882C63.0987 274.197 62.7325 274.356 62.2983 274.359C62.063 274.359 61.8674 274.326 61.7116 274.26C61.5592 274.19 61.4233 274.112 61.304 274.026C61.1847 273.937 61.062 273.857 60.9361 273.788C60.8101 273.718 60.6593 273.683 60.4837 273.683C60.2981 273.683 60.1456 273.756 60.0263 273.902C59.9103 274.045 59.8523 274.223 59.8523 274.439ZM69.4288 283.154C68.7129 283.154 68.0881 282.99 67.5545 282.662C67.0209 282.334 66.6066 281.875 66.3116 281.285C66.0166 280.695 65.8691 280.005 65.8691 279.217C65.8691 278.424 66.0166 277.732 66.3116 277.138C66.6066 276.545 67.0209 276.085 67.5545 275.756C68.0881 275.428 68.7129 275.264 69.4288 275.264C70.1447 275.264 70.7695 275.428 71.3031 275.756C71.8367 276.085 72.251 276.545 72.546 277.138C72.841 277.732 72.9885 278.424 72.9885 279.217C72.9885 280.005 72.841 280.695 72.546 281.285C72.251 281.875 71.8367 282.334 71.3031 282.662C70.7695 282.99 70.1447 283.154 69.4288 283.154ZM69.4338 281.906C69.8978 281.906 70.2823 281.784 70.5872 281.538C70.8921 281.293 71.1175 280.967 71.2633 280.559C71.4125 280.151 71.487 279.702 71.487 279.212C71.487 278.724 71.4125 278.277 71.2633 277.869C71.1175 277.458 70.8921 277.129 70.5872 276.88C70.2823 276.631 69.8978 276.507 69.4338 276.507C68.9664 276.507 68.5787 276.631 68.2704 276.88C67.9655 277.129 67.7385 277.458 67.5893 277.869C67.4435 278.277 67.3706 278.724 67.3706 279.212C67.3706 279.702 67.4435 280.151 67.5893 280.559C67.7385 280.967 67.9655 281.293 68.2704 281.538C68.5787 281.784 68.9664 281.906 69.4338 281.906Z" fill="black"/>
<path d="M22.6548 308.818V319H21.1186V308.818H22.6548ZM26.2592 314.466V319H24.7727V311.364H26.1996V312.607H26.294C26.4697 312.202 26.7448 311.877 27.1193 311.632C27.4972 311.387 27.9728 311.264 28.5462 311.264C29.0665 311.264 29.5223 311.374 29.9134 311.592C30.3045 311.808 30.6077 312.129 30.8232 312.557C31.0386 312.984 31.1463 313.513 31.1463 314.143V319H29.6598V314.322C29.6598 313.768 29.5156 313.336 29.2273 313.024C28.9389 312.709 28.5429 312.552 28.0391 312.552C27.6944 312.552 27.3878 312.626 27.1193 312.776C26.8542 312.925 26.6437 313.143 26.4879 313.432C26.3355 313.717 26.2592 314.062 26.2592 314.466ZM36.7045 311.364V312.557H32.5334V311.364H36.7045ZM33.652 309.534H35.1385V316.758C35.1385 317.046 35.1816 317.263 35.2678 317.409C35.3539 317.552 35.465 317.649 35.6009 317.702C35.7401 317.752 35.8909 317.777 36.0533 317.777C36.1726 317.777 36.277 317.769 36.3665 317.752C36.456 317.736 36.5256 317.722 36.5753 317.712L36.8438 318.94C36.7576 318.973 36.6349 319.007 36.4759 319.04C36.3168 319.076 36.1179 319.096 35.8793 319.099C35.4882 319.106 35.1236 319.036 34.7855 318.891C34.4474 318.745 34.174 318.519 33.9652 318.214C33.7564 317.91 33.652 317.527 33.652 317.066V309.534ZM41.5581 319.154C40.8057 319.154 40.1577 318.993 39.6142 318.672C39.0739 318.347 38.6563 317.891 38.3613 317.305C38.0697 316.715 37.9238 316.024 37.9238 315.232C37.9238 314.449 38.0697 313.76 38.3613 313.163C38.6563 312.567 39.0673 312.101 39.5943 311.766C40.1246 311.432 40.7444 311.264 41.4537 311.264C41.8845 311.264 42.3021 311.335 42.7065 311.478C43.1109 311.621 43.4738 311.844 43.7953 312.149C44.1168 312.454 44.3703 312.85 44.5559 313.337C44.7415 313.821 44.8343 314.41 44.8343 315.102V315.629H38.764V314.516H43.3777C43.3777 314.125 43.2981 313.778 43.139 313.477C42.9799 313.172 42.7562 312.931 42.4679 312.756C42.1828 312.58 41.8481 312.492 41.4636 312.492C41.046 312.492 40.6814 312.595 40.3699 312.8C40.0616 313.003 39.823 313.268 39.6539 313.596C39.4882 313.921 39.4054 314.274 39.4054 314.655V315.525C39.4054 316.035 39.4949 316.469 39.6738 316.827C39.8561 317.185 40.1097 317.459 40.4345 317.648C40.7593 317.833 41.1388 317.926 41.573 317.926C41.8547 317.926 42.1116 317.886 42.3436 317.807C42.5756 317.724 42.7761 317.601 42.9451 317.439C43.1142 317.277 43.2434 317.076 43.3329 316.837L44.7399 317.091C44.6272 317.505 44.425 317.868 44.1333 318.18C43.845 318.488 43.4821 318.728 43.0446 318.901C42.6104 319.07 42.1149 319.154 41.5581 319.154ZM46.4837 319V311.364H47.9205V312.577H48C48.1392 312.166 48.3845 311.843 48.7358 311.607C49.0904 311.369 49.4915 311.249 49.9389 311.249C50.0317 311.249 50.1411 311.253 50.267 311.259C50.3963 311.266 50.4974 311.274 50.5703 311.284V312.706C50.5107 312.689 50.4046 312.671 50.2521 312.651C50.0997 312.628 49.9472 312.616 49.7947 312.616C49.4434 312.616 49.1302 312.691 48.8551 312.84C48.5833 312.986 48.3679 313.19 48.2088 313.452C48.0497 313.71 47.9702 314.005 47.9702 314.337V319H46.4837ZM53.3432 314.466V319H51.8567V311.364H53.2836V312.607H53.378C53.5537 312.202 53.8288 311.877 54.2033 311.632C54.5811 311.387 55.0568 311.264 55.6301 311.264C56.1505 311.264 56.6062 311.374 56.9973 311.592C57.3884 311.808 57.6917 312.129 57.9071 312.557C58.1226 312.984 58.2303 313.513 58.2303 314.143V319H56.7438V314.322C56.7438 313.768 56.5996 313.336 56.3113 313.024C56.0229 312.709 55.6268 312.552 55.123 312.552C54.7783 312.552 54.4718 312.626 54.2033 312.776C53.9382 312.925 53.7277 313.143 53.5719 313.432C53.4194 313.717 53.3432 314.062 53.3432 314.466ZM62.4462 319.169C61.9623 319.169 61.5248 319.08 61.1337 318.901C60.7426 318.718 60.4327 318.455 60.204 318.11C59.9786 317.765 59.8659 317.343 59.8659 316.842C59.8659 316.411 59.9488 316.057 60.1145 315.778C60.2802 315.5 60.504 315.28 60.7857 315.117C61.0674 314.955 61.3823 314.832 61.7303 314.749C62.0783 314.666 62.4329 314.603 62.7942 314.56C63.2516 314.507 63.6228 314.464 63.9078 314.431C64.1929 314.395 64.4 314.337 64.5293 314.257C64.6586 314.178 64.7232 314.048 64.7232 313.869V313.835C64.7232 313.4 64.6006 313.064 64.3553 312.825C64.1133 312.587 63.7521 312.467 63.2715 312.467C62.771 312.467 62.3766 312.578 62.0882 312.8C61.8032 313.019 61.606 313.263 61.4966 313.531L60.0996 313.213C60.2653 312.749 60.5073 312.375 60.8255 312.089C61.147 311.801 61.5165 311.592 61.9341 311.463C62.3517 311.33 62.7909 311.264 63.2516 311.264C63.5565 311.264 63.8797 311.301 64.2211 311.374C64.5658 311.443 64.8873 311.572 65.1855 311.761C65.4872 311.95 65.7341 312.22 65.9263 312.572C66.1185 312.92 66.2147 313.372 66.2147 313.929V319H64.763V317.956H64.7033C64.6072 318.148 64.463 318.337 64.2708 318.523C64.0785 318.708 63.8316 318.862 63.53 318.985C63.2284 319.108 62.8671 319.169 62.4462 319.169ZM62.7694 317.976C63.1803 317.976 63.5317 317.895 63.8233 317.732C64.1183 317.57 64.342 317.358 64.4945 317.096C64.6503 316.831 64.7282 316.547 64.7282 316.246V315.261C64.6751 315.314 64.5724 315.364 64.4199 315.411C64.2708 315.454 64.1001 315.492 63.9078 315.525C63.7156 315.555 63.5284 315.583 63.3461 315.609C63.1638 315.633 63.0113 315.652 62.8887 315.669C62.6003 315.705 62.3368 315.767 62.0982 315.853C61.8629 315.939 61.6739 316.063 61.5314 316.226C61.3922 316.385 61.3226 316.597 61.3226 316.862C61.3226 317.23 61.4585 317.509 61.7303 317.697C62.0021 317.883 62.3484 317.976 62.7694 317.976ZM71.4112 319.154C70.6721 319.154 70.0357 318.987 69.5021 318.652C68.9718 318.314 68.5642 317.848 68.2791 317.255C67.9941 316.662 67.8516 315.982 67.8516 315.217C67.8516 314.441 67.9974 313.757 68.2891 313.163C68.5807 312.567 68.9917 312.101 69.522 311.766C70.0523 311.432 70.6771 311.264 71.3963 311.264C71.9763 311.264 72.4934 311.372 72.9474 311.587C73.4015 311.799 73.7678 312.098 74.0462 312.482C74.3279 312.867 74.4953 313.316 74.5483 313.83H73.1016C73.022 313.472 72.8397 313.163 72.5547 312.905C72.273 312.646 71.8951 312.517 71.4212 312.517C71.0069 312.517 70.6439 312.626 70.3324 312.845C70.0241 313.061 69.7839 313.369 69.6115 313.77C69.4392 314.168 69.353 314.638 69.353 315.182C69.353 315.739 69.4375 316.219 69.6065 316.624C69.7756 317.028 70.0142 317.341 70.3224 317.563C70.634 317.785 71.0002 317.896 71.4212 317.896C71.7029 317.896 71.9581 317.845 72.1868 317.742C72.4188 317.636 72.6127 317.485 72.7685 317.29C72.9276 317.094 73.0386 316.859 73.1016 316.584H74.5483C74.4953 317.078 74.3345 317.518 74.0661 317.906C73.7976 318.294 73.438 318.599 72.9872 318.821C72.5398 319.043 72.0144 319.154 71.4112 319.154ZM76.138 319V311.364H77.6245V319H76.138ZM76.8887 310.185C76.6301 310.185 76.4081 310.099 76.2225 309.927C76.0402 309.751 75.949 309.542 75.949 309.3C75.949 309.055 76.0402 308.846 76.2225 308.674C76.4081 308.498 76.6301 308.411 76.8887 308.411C77.1472 308.411 77.3676 308.498 77.5499 308.674C77.7355 308.846 77.8283 309.055 77.8283 309.3C77.8283 309.542 77.7355 309.751 77.5499 309.927C77.3676 310.099 77.1472 310.185 76.8887 310.185ZM82.8409 319.154C82.125 319.154 81.5002 318.99 80.9666 318.662C80.433 318.334 80.0187 317.875 79.7237 317.285C79.4287 316.695 79.2812 316.005 79.2812 315.217C79.2812 314.424 79.4287 313.732 79.7237 313.138C80.0187 312.545 80.433 312.085 80.9666 311.756C81.5002 311.428 82.125 311.264 82.8409 311.264C83.5568 311.264 84.1816 311.428 84.7152 311.756C85.2488 312.085 85.6631 312.545 85.9581 313.138C86.2531 313.732 86.4006 314.424 86.4006 315.217C86.4006 316.005 86.2531 316.695 85.9581 317.285C85.6631 317.875 85.2488 318.334 84.7152 318.662C84.1816 318.99 83.5568 319.154 82.8409 319.154ZM82.8459 317.906C83.3099 317.906 83.6944 317.784 83.9993 317.538C84.3042 317.293 84.5296 316.967 84.6754 316.559C84.8246 316.151 84.8991 315.702 84.8991 315.212C84.8991 314.724 84.8246 314.277 84.6754 313.869C84.5296 313.458 84.3042 313.129 83.9993 312.88C83.6944 312.631 83.3099 312.507 82.8459 312.507C82.3786 312.507 81.9908 312.631 81.6825 312.88C81.3776 313.129 81.1506 313.458 81.0014 313.869C80.8556 314.277 80.7827 314.724 80.7827 315.212C80.7827 315.702 80.8556 316.151 81.0014 316.559C81.1506 316.967 81.3776 317.293 81.6825 317.538C81.9908 317.784 82.3786 317.906 82.8459 317.906ZM89.5463 314.466V319H88.0598V311.364H89.4867V312.607H89.5811C89.7568 312.202 90.0319 311.877 90.4064 311.632C90.7843 311.387 91.2599 311.264 91.8333 311.264C92.3536 311.264 92.8094 311.374 93.2005 311.592C93.5916 311.808 93.8948 312.129 94.1103 312.557C94.3257 312.984 94.4334 313.513 94.4334 314.143V319H92.9469V314.322C92.9469 313.768 92.8027 313.336 92.5144 313.024C92.226 312.709 91.83 312.552 91.3262 312.552C90.9815 312.552 90.6749 312.626 90.4064 312.776C90.1413 312.925 89.9308 313.143 89.775 313.432C89.6226 313.717 89.5463 314.062 89.5463 314.466ZM98.6493 319.169C98.1654 319.169 97.7279 319.08 97.3368 318.901C96.9457 318.718 96.6358 318.455 96.4071 318.11C96.1818 317.765 96.0691 317.343 96.0691 316.842C96.0691 316.411 96.1519 316.057 96.3176 315.778C96.4834 315.5 96.7071 315.28 96.9888 315.117C97.2705 314.955 97.5854 314.832 97.9334 314.749C98.2814 314.666 98.6361 314.603 98.9973 314.56C99.4547 314.507 99.8259 314.464 100.111 314.431C100.396 314.395 100.603 314.337 100.732 314.257C100.862 314.178 100.926 314.048 100.926 313.869V313.835C100.926 313.4 100.804 313.064 100.558 312.825C100.316 312.587 99.9552 312.467 99.4746 312.467C98.9741 312.467 98.5797 312.578 98.2914 312.8C98.0063 313.019 97.8091 313.263 97.6998 313.531L96.3027 313.213C96.4685 312.749 96.7104 312.375 97.0286 312.089C97.3501 311.801 97.7196 311.592 98.1373 311.463C98.5549 311.33 98.994 311.264 99.4547 311.264C99.7596 311.264 100.083 311.301 100.424 311.374C100.769 311.443 101.09 311.572 101.389 311.761C101.69 311.95 101.937 312.22 102.129 312.572C102.322 312.92 102.418 313.372 102.418 313.929V319H100.966V317.956H100.906C100.81 318.148 100.666 318.337 100.474 318.523C100.282 318.708 100.035 318.862 99.7331 318.985C99.4315 319.108 99.0703 319.169 98.6493 319.169ZM98.9725 317.976C99.3835 317.976 99.7348 317.895 100.026 317.732C100.321 317.57 100.545 317.358 100.698 317.096C100.853 316.831 100.931 316.547 100.931 316.246V315.261C100.878 315.314 100.776 315.364 100.623 315.411C100.474 315.454 100.303 315.492 100.111 315.525C99.9187 315.555 99.7315 315.583 99.5492 315.609C99.3669 315.633 99.2144 315.652 99.0918 315.669C98.8034 315.705 98.54 315.767 98.3013 315.853C98.066 315.939 97.8771 316.063 97.7346 316.226C97.5953 316.385 97.5257 316.597 97.5257 316.862C97.5257 317.23 97.6616 317.509 97.9334 317.697C98.2052 317.883 98.5516 317.976 98.9725 317.976ZM104.398 319V311.364H105.884V319H104.398ZM105.148 310.185C104.89 310.185 104.668 310.099 104.482 309.927C104.3 309.751 104.209 309.542 104.209 309.3C104.209 309.055 104.3 308.846 104.482 308.674C104.668 308.498 104.89 308.411 105.148 308.411C105.407 308.411 105.627 308.498 105.81 308.674C105.995 308.846 106.088 309.055 106.088 309.3C106.088 309.542 105.995 309.751 105.81 309.927C105.627 310.099 105.407 310.185 105.148 310.185ZM113.606 313.228L112.259 313.467C112.203 313.294 112.113 313.13 111.991 312.974C111.871 312.819 111.709 312.691 111.503 312.592C111.298 312.492 111.041 312.442 110.733 312.442C110.312 312.442 109.961 312.537 109.679 312.726C109.397 312.911 109.256 313.152 109.256 313.447C109.256 313.702 109.351 313.907 109.54 314.063C109.729 314.219 110.033 314.347 110.454 314.446L111.667 314.724C112.37 314.887 112.894 315.137 113.238 315.475C113.583 315.813 113.756 316.252 113.756 316.793C113.756 317.25 113.623 317.658 113.358 318.016C113.096 318.37 112.73 318.649 112.259 318.851C111.792 319.053 111.25 319.154 110.633 319.154C109.778 319.154 109.081 318.972 108.54 318.607C108 318.239 107.669 317.717 107.546 317.041L108.983 316.822C109.072 317.197 109.256 317.48 109.535 317.673C109.813 317.862 110.176 317.956 110.623 317.956C111.111 317.956 111.5 317.855 111.792 317.653C112.083 317.447 112.229 317.197 112.229 316.902C112.229 316.663 112.14 316.463 111.961 316.3C111.785 316.138 111.515 316.015 111.15 315.933L109.858 315.649C109.145 315.487 108.618 315.228 108.277 314.874C107.939 314.519 107.77 314.07 107.77 313.526C107.77 313.076 107.896 312.681 108.148 312.343C108.399 312.005 108.747 311.741 109.192 311.553C109.636 311.36 110.144 311.264 110.718 311.264C111.543 311.264 112.193 311.443 112.667 311.801C113.141 312.156 113.454 312.631 113.606 313.228Z" fill="black"/>
<path d="M21.1186 355V344.818H22.6548V353.678H27.2685V355H21.1186ZM29.021 355V344.818H30.5572V353.678H35.1708V355H29.021ZM36.9233 344.818H38.7876L42.0291 352.733H42.1484L45.3899 344.818H47.2543V355H45.7926V347.632H45.6982L42.6953 354.985H41.4822L38.4794 347.627H38.3849V355H36.9233V344.818Z" fill="black"/>
<path d="M21.1186 380.818H22.983L26.2244 388.733H26.3438L29.5852 380.818H31.4496V391H29.9879V383.632H29.8935L26.8906 390.985H25.6776L22.6747 383.627H22.5803V391H21.1186V380.818ZM33.6831 391V380.818H37.4118C38.1343 380.818 38.7325 380.937 39.2065 381.176C39.6805 381.411 40.0351 381.731 40.2704 382.136C40.5057 382.537 40.6234 382.989 40.6234 383.493C40.6234 383.917 40.5455 384.275 40.3897 384.567C40.234 384.855 40.0252 385.087 39.7633 385.263C39.5048 385.435 39.2198 385.561 38.9082 385.641V385.74C39.2463 385.757 39.5761 385.866 39.8975 386.068C40.2224 386.267 40.4908 386.55 40.7029 386.918C40.9151 387.286 41.0211 387.734 41.0211 388.261C41.0211 388.781 40.8985 389.248 40.6532 389.663C40.4113 390.074 40.0368 390.4 39.5297 390.642C39.0226 390.881 38.3746 391 37.5858 391H33.6831ZM35.2193 389.683H37.4366C38.1724 389.683 38.6994 389.54 39.0176 389.255C39.3358 388.97 39.4949 388.614 39.4949 388.186C39.4949 387.865 39.4136 387.57 39.2512 387.301C39.0888 387.033 38.8568 386.819 38.5552 386.66C38.2569 386.501 37.9023 386.421 37.4913 386.421H35.2193V389.683ZM35.2193 385.223H37.2775C37.6222 385.223 37.9321 385.157 38.2072 385.024C38.4856 384.892 38.706 384.706 38.8684 384.467C39.0342 384.225 39.117 383.94 39.117 383.612C39.117 383.191 38.9695 382.838 38.6745 382.553C38.3796 382.268 37.9271 382.126 37.3173 382.126H35.2193V385.223ZM43.7033 391H42.0726L45.7367 380.818H47.5115L51.1756 391H49.5449L46.6664 382.668H46.5868L43.7033 391ZM43.9767 387.013H49.2665V388.305H43.9767V387.013ZM56.351 391V380.818H62.665V382.141H57.8873V385.243H62.2125V386.56H57.8873V391H56.351ZM68.7937 387.833V383.364H70.2852V391H68.8235V389.678H68.744C68.5683 390.085 68.2866 390.425 67.8988 390.697C67.5143 390.965 67.0354 391.099 66.462 391.099C65.9715 391.099 65.5373 390.992 65.1594 390.776C64.7849 390.558 64.4899 390.234 64.2745 389.807C64.0624 389.379 63.9563 388.851 63.9563 388.221V383.364H65.4428V388.042C65.4428 388.562 65.587 388.977 65.8754 389.285C66.1637 389.593 66.5382 389.747 66.9989 389.747C67.2773 389.747 67.5541 389.678 67.8292 389.538C68.1076 389.399 68.3379 389.189 68.5202 388.907C68.7058 388.625 68.797 388.267 68.7937 387.833ZM73.769 380.818V391H72.2825V380.818H73.769ZM77.2553 380.818V391H75.7688V380.818H77.2553ZM86.5249 383.364V384.557H82.3537V383.364H86.5249ZM83.4723 381.534H84.9588V388.758C84.9588 389.046 85.0019 389.263 85.0881 389.409C85.1742 389.552 85.2853 389.649 85.4212 389.702C85.5604 389.752 85.7112 389.777 85.8736 389.777C85.9929 389.777 86.0973 389.769 86.1868 389.752C86.2763 389.736 86.3459 389.722 86.3956 389.712L86.6641 390.94C86.5779 390.973 86.4553 391.007 86.2962 391.04C86.1371 391.076 85.9382 391.096 85.6996 391.099C85.3085 391.106 84.9439 391.036 84.6058 390.891C84.2678 390.745 83.9943 390.519 83.7855 390.214C83.5767 389.91 83.4723 389.527 83.4723 389.066V381.534ZM88.1692 391V383.364H89.6557V391H88.1692ZM88.9199 382.185C88.6614 382.185 88.4393 382.099 88.2537 381.927C88.0714 381.751 87.9803 381.542 87.9803 381.3C87.9803 381.055 88.0714 380.846 88.2537 380.674C88.4393 380.498 88.6614 380.411 88.9199 380.411C89.1784 380.411 89.3989 380.498 89.5811 380.674C89.7667 380.846 89.8596 381.055 89.8596 381.3C89.8596 381.542 89.7667 381.751 89.5811 381.927C89.3989 382.099 89.1784 382.185 88.9199 382.185ZM91.6555 391V383.364H93.0824V384.607H93.1768C93.3359 384.186 93.5961 383.857 93.9574 383.622C94.3187 383.384 94.7512 383.264 95.255 383.264C95.7654 383.264 96.1929 383.384 96.5376 383.622C96.8857 383.861 97.1425 384.189 97.3082 384.607H97.3878C97.5701 384.199 97.8601 383.874 98.2578 383.632C98.6555 383.387 99.1295 383.264 99.6797 383.264C100.372 383.264 100.938 383.481 101.375 383.915C101.816 384.35 102.036 385.004 102.036 385.879V391H100.55V386.018C100.55 385.501 100.409 385.127 100.127 384.895C99.8454 384.663 99.509 384.547 99.1179 384.547C98.634 384.547 98.2578 384.696 97.9893 384.994C97.7209 385.289 97.5866 385.669 97.5866 386.133V391H96.1051V385.924C96.1051 385.51 95.9759 385.177 95.7173 384.925C95.4588 384.673 95.1224 384.547 94.7081 384.547C94.4264 384.547 94.1662 384.621 93.9276 384.771C93.6922 384.916 93.5017 385.12 93.3558 385.382C93.2133 385.644 93.142 385.947 93.142 386.292V391H91.6555ZM107.32 391.154C106.567 391.154 105.919 390.993 105.376 390.672C104.836 390.347 104.418 389.891 104.123 389.305C103.831 388.715 103.686 388.024 103.686 387.232C103.686 386.449 103.831 385.76 104.123 385.163C104.418 384.567 104.829 384.101 105.356 383.766C105.886 383.432 106.506 383.264 107.215 383.264C107.646 383.264 108.064 383.335 108.468 383.478C108.873 383.621 109.235 383.844 109.557 384.149C109.878 384.454 110.132 384.85 110.318 385.337C110.503 385.821 110.596 386.41 110.596 387.102V387.629H104.526V386.516H109.139C109.139 386.125 109.06 385.778 108.901 385.477C108.742 385.172 108.518 384.931 108.23 384.756C107.945 384.58 107.61 384.492 107.225 384.492C106.808 384.492 106.443 384.595 106.132 384.8C105.823 385.003 105.585 385.268 105.416 385.596C105.25 385.921 105.167 386.274 105.167 386.655V387.525C105.167 388.035 105.257 388.469 105.436 388.827C105.618 389.185 105.871 389.459 106.196 389.648C106.521 389.833 106.901 389.926 107.335 389.926C107.616 389.926 107.873 389.886 108.105 389.807C108.337 389.724 108.538 389.601 108.707 389.439C108.876 389.277 109.005 389.076 109.095 388.837L110.502 389.091C110.389 389.505 110.187 389.868 109.895 390.18C109.607 390.488 109.244 390.728 108.806 390.901C108.372 391.07 107.877 391.154 107.32 391.154Z" fill="black"/>
</g>
<defs>
<filter id="filter0_d_1001_2375" x="0" y="0" width="263" height="420" filterUnits="userSpaceOnUse" color-interpolation-filters="sRGB">
<feFlood flood-opacity="0" result="BackgroundImageFix"/>
<feColorMatrix in="SourceAlpha" type="matrix" values="0 0 0 0 0 0 0 0 0 0 0 0 0 0 0 0 0 0 127 0" result="hardAlpha"/>
<feOffset dy="4"/>
<feGaussianBlur stdDeviation="2"/>
<feComposite in2="hardAlpha" operator="out"/>
<feColorMatrix type="matrix" values="0 0 0 0 0 0 0 0 0 0 0 0 0 0 0 0 0 0 0.25 0"/>
<feBlend mode="normal" in2="BackgroundImageFix" result="effect1_dropShadow_1001_2375"/>
<feBlend mode="normal" in="SourceGraphic" in2="effect1_dropShadow_1001_2375" result="shape"/>
</filter>
</defs>
</svg>
