<svg width="240" height="148" viewBox="0 0 240 148" fill="none" xmlns="http://www.w3.org/2000/svg">
<g filter="url(#filter0_d_944_21779)">
<rect x="4" width="232" height="140" rx="8" fill="white"/>
<rect x="12.5" y="16.5" width="215" height="36" rx="7.5" fill="#F6F7F9"/>
<rect x="12.5" y="16.5" width="215" height="36" rx="7.5" stroke="#DCDFE5"/>
<path d="M22.233 40V29.8182H28.3381V30.9119H23.4659V34.3523H27.8807V35.446H23.4659V40H22.233ZM34.6246 36.8778V32.3636H35.7979V40H34.6246V38.7074H34.5451C34.3661 39.0952 34.0877 39.425 33.7099 39.6967C33.332 39.9652 32.8548 40.0994 32.2781 40.0994C31.8008 40.0994 31.3765 39.995 31.0053 39.7862C30.6341 39.5741 30.3424 39.2559 30.1303 38.8317C29.9182 38.4041 29.8121 37.8655 29.8121 37.2159V32.3636H30.9854V37.1364C30.9854 37.6932 31.1412 38.1373 31.4528 38.4688C31.7676 38.8002 32.1687 38.9659 32.6559 38.9659C32.9476 38.9659 33.2442 38.8913 33.5458 38.7422C33.8507 38.593 34.1059 38.3643 34.3114 38.0561C34.5202 37.7479 34.6246 37.3551 34.6246 36.8778ZM39.1202 35.4062V40H37.9469V32.3636H39.0804V33.5568H39.1799C39.3588 33.169 39.6306 32.8575 39.9952 32.6222C40.3598 32.3835 40.8304 32.2642 41.4071 32.2642C41.9242 32.2642 42.3766 32.3703 42.7644 32.5824C43.1522 32.7912 43.4538 33.1094 43.6692 33.5369C43.8846 33.9612 43.9924 34.4981 43.9924 35.1477V40H42.8191V35.2273C42.8191 34.6274 42.6633 34.16 42.3517 33.8253C42.0402 33.4872 41.6126 33.3182 41.0691 33.3182C40.6945 33.3182 40.3598 33.3994 40.0648 33.5618C39.7731 33.7242 39.5428 33.9612 39.3738 34.2727C39.2047 34.5843 39.1202 34.9621 39.1202 35.4062ZM49.0199 40.1591C48.3835 40.1591 47.8217 39.9983 47.3345 39.6768C46.8473 39.352 46.4661 38.8946 46.1911 38.3047C45.916 37.7114 45.7784 37.0104 45.7784 36.2017C45.7784 35.3996 45.916 34.7036 46.1911 34.1136C46.4661 33.5237 46.849 33.0679 47.3395 32.7464C47.83 32.425 48.3968 32.2642 49.0398 32.2642C49.5369 32.2642 49.9297 32.3471 50.218 32.5128C50.5097 32.6752 50.7318 32.8608 50.8842 33.0696C51.04 33.2751 51.161 33.4441 51.2472 33.5767H51.3466V29.8182H52.5199V40H51.3864V38.8267H51.2472C51.161 38.9659 51.0384 39.1416 50.8793 39.3537C50.7202 39.5625 50.4931 39.7498 50.1982 39.9155C49.9032 40.0779 49.5104 40.1591 49.0199 40.1591ZM49.179 39.1051C49.6496 39.1051 50.0473 38.9825 50.3722 38.7372C50.697 38.4886 50.9439 38.1456 51.1129 37.7081C51.282 37.2673 51.3665 36.7585 51.3665 36.1818C51.3665 35.6117 51.2836 35.1129 51.1179 34.6854C50.9522 34.2545 50.7069 33.9197 50.3821 33.6811C50.0573 33.4392 49.6563 33.3182 49.179 33.3182C48.6818 33.3182 48.2675 33.4458 47.9361 33.701C47.608 33.9529 47.361 34.2959 47.1953 34.7301C47.0329 35.161 46.9517 35.6449 46.9517 36.1818C46.9517 36.7254 47.0346 37.2192 47.2003 37.6634C47.3693 38.1042 47.6179 38.4555 47.946 38.7173C48.2775 38.9759 48.6884 39.1051 49.179 39.1051ZM57.0788 40.179C56.5949 40.179 56.1558 40.0878 55.7614 39.9055C55.367 39.7199 55.0537 39.4531 54.8217 39.1051C54.5897 38.7538 54.4737 38.3295 54.4737 37.8324C54.4737 37.3949 54.5599 37.0402 54.7322 36.7685C54.9046 36.4934 55.1349 36.2779 55.4233 36.1222C55.7116 35.9664 56.0298 35.8504 56.3778 35.7741C56.7292 35.6946 57.0821 35.6316 57.4368 35.5852C57.9008 35.5256 58.277 35.4808 58.5653 35.451C58.857 35.4179 59.0691 35.3632 59.2017 35.2869C59.3376 35.2107 59.4055 35.0781 59.4055 34.8892V34.8494C59.4055 34.3589 59.2713 33.9777 59.0028 33.706C58.7377 33.4342 58.335 33.2983 57.7947 33.2983C57.2346 33.2983 56.7955 33.4209 56.4773 33.6662C56.1591 33.9115 55.9354 34.1733 55.8061 34.4517L54.6925 34.054C54.8913 33.59 55.1565 33.2287 55.4879 32.9702C55.8227 32.7083 56.1873 32.526 56.5817 32.4233C56.9794 32.3172 57.3705 32.2642 57.755 32.2642C58.0002 32.2642 58.282 32.294 58.6001 32.3537C58.9216 32.41 59.2315 32.5277 59.5298 32.7067C59.8314 32.8857 60.0817 33.1558 60.2805 33.517C60.4794 33.8783 60.5788 34.3622 60.5788 34.9688V40H59.4055V38.9659H59.3459C59.2663 39.1316 59.1338 39.3089 58.9482 39.4979C58.7625 39.6868 58.5156 39.8475 58.2074 39.9801C57.8991 40.1127 57.523 40.179 57.0788 40.179ZM57.2578 39.125C57.7218 39.125 58.1129 39.0339 58.4311 38.8516C58.7526 38.6693 58.9946 38.4339 59.157 38.1456C59.3227 37.8572 59.4055 37.554 59.4055 37.2358V36.1619C59.3558 36.2216 59.2464 36.2763 59.0774 36.326C58.9117 36.3724 58.7195 36.4138 58.5007 36.4503C58.2853 36.4834 58.0748 36.5133 57.8693 36.5398C57.6671 36.563 57.5031 36.5829 57.3771 36.5994C57.0722 36.6392 56.7872 36.7038 56.522 36.7933C56.2602 36.8795 56.0481 37.0104 55.8857 37.1861C55.7266 37.3584 55.647 37.5937 55.647 37.892C55.647 38.2997 55.7978 38.608 56.0994 38.8168C56.4044 39.0223 56.7905 39.125 57.2578 39.125ZM62.7203 40V32.3636H63.8539V33.5568H63.9533C64.1124 33.1491 64.3693 32.8326 64.7239 32.6072C65.0785 32.3786 65.5044 32.2642 66.0016 32.2642C66.5054 32.2642 66.9247 32.3786 67.2594 32.6072C67.5975 32.8326 67.861 33.1491 68.0499 33.5568H68.1294C68.325 33.1624 68.6183 32.8492 69.0094 32.6172C69.4005 32.3819 69.8695 32.2642 70.4164 32.2642C71.0991 32.2642 71.6576 32.478 72.0918 32.9055C72.526 33.3298 72.7431 33.991 72.7431 34.8892V40H71.5698V34.8892C71.5698 34.3258 71.4157 33.9231 71.1074 33.6811C70.7992 33.4392 70.4363 33.3182 70.0186 33.3182C69.4817 33.3182 69.0658 33.4806 68.7708 33.8054C68.4758 34.1269 68.3283 34.5346 68.3283 35.0284V40H67.1351V34.7699C67.1351 34.3357 66.9943 33.986 66.7125 33.7209C66.4308 33.4524 66.0679 33.3182 65.6238 33.3182C65.3188 33.3182 65.0338 33.3994 64.7686 33.5618C64.5068 33.7242 64.2947 33.9496 64.1323 34.2379C63.9732 34.523 63.8936 34.8527 63.8936 35.2273V40H62.7203ZM78.09 40.1591C77.3542 40.1591 76.7195 39.9967 76.1859 39.6719C75.6556 39.3438 75.2463 38.8864 74.9579 38.2997C74.6729 37.7098 74.5304 37.0237 74.5304 36.2415C74.5304 35.4593 74.6729 34.7699 74.9579 34.1733C75.2463 33.5734 75.6473 33.1061 76.161 32.7713C76.6781 32.4332 77.2813 32.2642 77.9707 32.2642C78.3684 32.2642 78.7612 32.3305 79.149 32.4631C79.5368 32.5956 79.8897 32.8111 80.2079 33.1094C80.5261 33.4044 80.7797 33.7955 80.9686 34.2827C81.1575 34.7699 81.252 35.3698 81.252 36.0824V36.5795H75.3656V35.5653H80.0588C80.0588 35.1345 79.9726 34.75 79.8002 34.4119C79.6312 34.0739 79.3893 33.8071 79.0744 33.6115C78.7628 33.416 78.3949 33.3182 77.9707 33.3182C77.5034 33.3182 77.099 33.4342 76.7576 33.6662C76.4196 33.8949 76.1594 34.1932 75.9771 34.5611C75.7948 34.929 75.7037 35.3234 75.7037 35.7443V36.4205C75.7037 36.9972 75.8031 37.486 76.002 37.8871C76.2041 38.2848 76.4842 38.5881 76.8422 38.7969C77.2001 39.0024 77.6161 39.1051 78.09 39.1051C78.3983 39.1051 78.6767 39.062 78.9252 38.9759C79.1771 38.8864 79.3942 38.7538 79.5765 38.5781C79.7588 38.3991 79.8997 38.1771 79.9991 37.9119L81.1326 38.2301C81.0133 38.6146 80.8128 38.9527 80.5311 39.2443C80.2493 39.5327 79.9013 39.758 79.487 39.9205C79.0727 40.0795 78.6071 40.1591 78.09 40.1591ZM84.21 35.4062V40H83.0368V32.3636H84.1703V33.5568H84.2697C84.4487 33.169 84.7205 32.8575 85.085 32.6222C85.4496 32.3835 85.9203 32.2642 86.497 32.2642C87.014 32.2642 87.4664 32.3703 87.8542 32.5824C88.242 32.7912 88.5436 33.1094 88.7591 33.5369C88.9745 33.9612 89.0822 34.4981 89.0822 35.1477V40H87.9089V35.2273C87.9089 34.6274 87.7531 34.16 87.4416 33.8253C87.13 33.4872 86.7025 33.3182 86.1589 33.3182C85.7844 33.3182 85.4496 33.3994 85.1547 33.5618C84.863 33.7242 84.6326 33.9612 84.4636 34.2727C84.2946 34.5843 84.21 34.9621 84.21 35.4062ZM94.5472 32.3636V33.358H90.5898V32.3636H94.5472ZM91.7433 30.5341H92.9165V37.8125C92.9165 38.1439 92.9646 38.3925 93.0607 38.5582C93.1602 38.7206 93.2861 38.83 93.4386 38.8864C93.5943 38.9394 93.7584 38.9659 93.9308 38.9659C94.06 38.9659 94.1661 38.9593 94.2489 38.946C94.3318 38.9295 94.3981 38.9162 94.4478 38.9062L94.6864 39.9602C94.6069 39.9901 94.4959 40.0199 94.3533 40.0497C94.2108 40.0829 94.0302 40.0994 93.8114 40.0994C93.48 40.0994 93.1552 40.0282 92.837 39.8857C92.5221 39.7431 92.2603 39.526 92.0515 39.2344C91.846 38.9427 91.7433 38.5748 91.7433 38.1307V30.5341ZM99.3324 40.1591C98.643 40.1591 98.0381 39.995 97.5178 39.6669C97.0007 39.3388 96.5964 38.8797 96.3047 38.2898C96.0163 37.6998 95.8722 37.0104 95.8722 36.2216C95.8722 35.4261 96.0163 34.7318 96.3047 34.1385C96.5964 33.5452 97.0007 33.0845 97.5178 32.7564C98.0381 32.4283 98.643 32.2642 99.3324 32.2642C100.022 32.2642 100.625 32.4283 101.142 32.7564C101.662 33.0845 102.067 33.5452 102.355 34.1385C102.647 34.7318 102.793 35.4261 102.793 36.2216C102.793 37.0104 102.647 37.6998 102.355 38.2898C102.067 38.8797 101.662 39.3388 101.142 39.6669C100.625 39.995 100.022 40.1591 99.3324 40.1591ZM99.3324 39.1051C99.8561 39.1051 100.287 38.9709 100.625 38.7024C100.963 38.4339 101.213 38.081 101.376 37.6435C101.538 37.206 101.619 36.732 101.619 36.2216C101.619 35.7112 101.538 35.2356 101.376 34.7947C101.213 34.3539 100.963 33.9976 100.625 33.7259C100.287 33.4541 99.8561 33.3182 99.3324 33.3182C98.8087 33.3182 98.3778 33.4541 98.0398 33.7259C97.7017 33.9976 97.4515 34.3539 97.2891 34.7947C97.1267 35.2356 97.0455 35.7112 97.0455 36.2216C97.0455 36.732 97.1267 37.206 97.2891 37.6435C97.4515 38.081 97.7017 38.4339 98.0398 38.7024C98.3778 38.9709 98.8087 39.1051 99.3324 39.1051ZM109.993 34.0739L108.939 34.3722C108.872 34.1965 108.775 34.0258 108.645 33.8601C108.519 33.6911 108.347 33.5518 108.128 33.4425C107.91 33.3331 107.63 33.2784 107.288 33.2784C106.821 33.2784 106.431 33.3861 106.12 33.6016C105.812 33.8137 105.657 34.0838 105.657 34.4119C105.657 34.7036 105.764 34.9339 105.976 35.103C106.188 35.272 106.519 35.4129 106.97 35.5256L108.104 35.804C108.786 35.9697 109.295 36.2232 109.63 36.5646C109.965 36.9027 110.132 37.3385 110.132 37.8722C110.132 38.3097 110.006 38.7008 109.754 39.0455C109.506 39.3902 109.157 39.6619 108.71 39.8608C108.263 40.0597 107.742 40.1591 107.149 40.1591C106.37 40.1591 105.725 39.9901 105.215 39.652C104.705 39.3139 104.381 38.8201 104.246 38.1705L105.359 37.892C105.465 38.303 105.666 38.6113 105.961 38.8168C106.259 39.0223 106.648 39.125 107.129 39.125C107.676 39.125 108.11 39.009 108.432 38.777C108.756 38.5417 108.919 38.2599 108.919 37.9318C108.919 37.6667 108.826 37.4446 108.64 37.2656C108.455 37.0833 108.17 36.9474 107.785 36.858L106.513 36.5597C105.813 36.3939 105.3 36.1371 104.971 35.7891C104.647 35.4377 104.484 34.9986 104.484 34.4716C104.484 34.0407 104.605 33.6596 104.847 33.3281C105.092 32.9967 105.425 32.7365 105.846 32.5476C106.271 32.3587 106.751 32.2642 107.288 32.2642C108.044 32.2642 108.637 32.4299 109.068 32.7614C109.502 33.0928 109.81 33.5303 109.993 34.0739ZM118.719 40.1591C118.083 40.1591 117.521 39.9983 117.034 39.6768C116.547 39.352 116.165 38.8946 115.89 38.3047C115.615 37.7114 115.478 37.0104 115.478 36.2017C115.478 35.3996 115.615 34.7036 115.89 34.1136C116.165 33.5237 116.548 33.0679 117.039 32.7464C117.529 32.425 118.096 32.2642 118.739 32.2642C119.236 32.2642 119.629 32.3471 119.917 32.5128C120.209 32.6752 120.431 32.8608 120.583 33.0696C120.739 33.2751 120.86 33.4441 120.946 33.5767H121.046V29.8182H122.219V40H121.086V38.8267H120.946C120.86 38.9659 120.738 39.1416 120.578 39.3537C120.419 39.5625 120.192 39.7498 119.897 39.9155C119.602 40.0779 119.21 40.1591 118.719 40.1591ZM118.878 39.1051C119.349 39.1051 119.747 38.9825 120.071 38.7372C120.396 38.4886 120.643 38.1456 120.812 37.7081C120.981 37.2673 121.066 36.7585 121.066 36.1818C121.066 35.6117 120.983 35.1129 120.817 34.6854C120.651 34.2545 120.406 33.9197 120.081 33.6811C119.757 33.4392 119.355 33.3182 118.878 33.3182C118.381 33.3182 117.967 33.4458 117.635 33.701C117.307 33.9529 117.06 34.2959 116.895 34.7301C116.732 35.161 116.651 35.6449 116.651 36.1818C116.651 36.7254 116.734 37.2192 116.9 37.6634C117.069 38.1042 117.317 38.4555 117.645 38.7173C117.977 38.9759 118.388 39.1051 118.878 39.1051ZM127.733 40.1591C126.997 40.1591 126.362 39.9967 125.828 39.6719C125.298 39.3438 124.889 38.8864 124.6 38.2997C124.315 37.7098 124.173 37.0237 124.173 36.2415C124.173 35.4593 124.315 34.7699 124.6 34.1733C124.889 33.5734 125.29 33.1061 125.804 32.7713C126.321 32.4332 126.924 32.2642 127.613 32.2642C128.011 32.2642 128.404 32.3305 128.792 32.4631C129.179 32.5956 129.532 32.8111 129.85 33.1094C130.169 33.4044 130.422 33.7955 130.611 34.2827C130.8 34.7699 130.895 35.3698 130.895 36.0824V36.5795H125.008V35.5653H129.701C129.701 35.1345 129.615 34.75 129.443 34.4119C129.274 34.0739 129.032 33.8071 128.717 33.6115C128.405 33.416 128.038 33.3182 127.613 33.3182C127.146 33.3182 126.742 33.4342 126.4 33.6662C126.062 33.8949 125.802 34.1932 125.62 34.5611C125.437 34.929 125.346 35.3234 125.346 35.7443V36.4205C125.346 36.9972 125.446 37.486 125.645 37.8871C125.847 38.2848 126.127 38.5881 126.485 38.7969C126.843 39.0024 127.259 39.1051 127.733 39.1051C128.041 39.1051 128.319 39.062 128.568 38.9759C128.82 38.8864 129.037 38.7538 129.219 38.5781C129.401 38.3991 129.542 38.1771 129.642 37.9119L130.775 38.2301C130.656 38.6146 130.455 38.9527 130.174 39.2443C129.892 39.5327 129.544 39.758 129.13 39.9205C128.715 40.0795 128.25 40.1591 127.733 40.1591ZM143.736 33C143.627 32.6652 143.483 32.3653 143.304 32.1001C143.128 31.8317 142.917 31.603 142.672 31.4141C142.43 31.2251 142.155 31.081 141.847 30.9815C141.539 30.8821 141.201 30.8324 140.833 30.8324C140.23 30.8324 139.681 30.9882 139.187 31.2997C138.693 31.6113 138.301 32.0703 138.009 32.6768C137.717 33.2834 137.571 34.0275 137.571 34.9091C137.571 35.7907 137.719 36.5348 138.014 37.1413C138.309 37.7479 138.708 38.2069 139.212 38.5185C139.716 38.83 140.283 38.9858 140.912 38.9858C141.496 38.9858 142.009 38.8615 142.453 38.6129C142.901 38.361 143.249 38.0064 143.498 37.549C143.749 37.0883 143.875 36.5464 143.875 35.9233L144.253 36.0028H141.191V34.9091H145.069V36.0028C145.069 36.8414 144.89 37.5705 144.532 38.1903C144.177 38.8101 143.686 39.2907 143.06 39.6321C142.437 39.9702 141.721 40.1392 140.912 40.1392C140.011 40.1392 139.219 39.9271 138.536 39.5028C137.856 39.0786 137.326 38.4754 136.945 37.6932C136.567 36.911 136.378 35.983 136.378 34.9091C136.378 34.1037 136.486 33.3795 136.701 32.7365C136.92 32.0902 137.228 31.54 137.626 31.0859C138.024 30.6319 138.494 30.2839 139.038 30.0419C139.582 29.8 140.18 29.679 140.833 29.679C141.37 29.679 141.87 29.7602 142.334 29.9226C142.801 30.0817 143.217 30.3087 143.582 30.6037C143.95 30.8954 144.257 31.245 144.502 31.6527C144.747 32.0571 144.916 32.5062 145.009 33H143.736ZM150.223 40.1591C149.487 40.1591 148.852 39.9967 148.319 39.6719C147.788 39.3438 147.379 38.8864 147.091 38.2997C146.806 37.7098 146.663 37.0237 146.663 36.2415C146.663 35.4593 146.806 34.7699 147.091 34.1733C147.379 33.5734 147.78 33.1061 148.294 32.7713C148.811 32.4332 149.414 32.2642 150.104 32.2642C150.501 32.2642 150.894 32.3305 151.282 32.4631C151.67 32.5956 152.023 32.8111 152.341 33.1094C152.659 33.4044 152.912 33.7955 153.101 34.2827C153.29 34.7699 153.385 35.3698 153.385 36.0824V36.5795H147.498V35.5653H152.192C152.192 35.1345 152.105 34.75 151.933 34.4119C151.764 34.0739 151.522 33.8071 151.207 33.6115C150.896 33.416 150.528 33.3182 150.104 33.3182C149.636 33.3182 149.232 33.4342 148.89 33.6662C148.552 33.8949 148.292 34.1932 148.11 34.5611C147.928 34.929 147.836 35.3234 147.836 35.7443V36.4205C147.836 36.9972 147.936 37.486 148.135 37.8871C148.337 38.2848 148.617 38.5881 148.975 38.7969C149.333 39.0024 149.749 39.1051 150.223 39.1051C150.531 39.1051 150.809 39.062 151.058 38.9759C151.31 38.8864 151.527 38.7538 151.709 38.5781C151.892 38.3991 152.032 38.1771 152.132 37.9119L153.265 38.2301C153.146 38.6146 152.946 38.9527 152.664 39.2443C152.382 39.5327 152.034 39.758 151.62 39.9205C151.206 40.0795 150.74 40.1591 150.223 40.1591ZM160.579 34.0739L159.525 34.3722C159.458 34.1965 159.361 34.0258 159.231 33.8601C159.105 33.6911 158.933 33.5518 158.714 33.4425C158.496 33.3331 158.215 33.2784 157.874 33.2784C157.407 33.2784 157.017 33.3861 156.706 33.6016C156.398 33.8137 156.243 34.0838 156.243 34.4119C156.243 34.7036 156.349 34.9339 156.562 35.103C156.774 35.272 157.105 35.4129 157.556 35.5256L158.689 35.804C159.372 35.9697 159.881 36.2232 160.216 36.5646C160.55 36.9027 160.718 37.3385 160.718 37.8722C160.718 38.3097 160.592 38.7008 160.34 39.0455C160.091 39.3902 159.743 39.6619 159.296 39.8608C158.849 40.0597 158.328 40.1591 157.735 40.1591C156.956 40.1591 156.311 39.9901 155.801 39.652C155.291 39.3139 154.967 38.8201 154.831 38.1705L155.945 37.892C156.051 38.303 156.252 38.6113 156.547 38.8168C156.845 39.0223 157.234 39.125 157.715 39.125C158.262 39.125 158.696 39.009 159.018 38.777C159.342 38.5417 159.505 38.2599 159.505 37.9318C159.505 37.6667 159.412 37.4446 159.226 37.2656C159.041 37.0833 158.756 36.9474 158.371 36.858L157.099 36.5597C156.399 36.3939 155.885 36.1371 155.557 35.7891C155.233 35.4377 155.07 34.9986 155.07 34.4716C155.07 34.0407 155.191 33.6596 155.433 33.3281C155.678 32.9967 156.011 32.7365 156.432 32.5476C156.857 32.3587 157.337 32.2642 157.874 32.2642C158.63 32.2642 159.223 32.4299 159.654 32.7614C160.088 33.0928 160.396 33.5303 160.579 34.0739ZM165.805 32.3636V33.358H161.848V32.3636H165.805ZM163.001 30.5341H164.174V37.8125C164.174 38.1439 164.222 38.3925 164.319 38.5582C164.418 38.7206 164.544 38.83 164.696 38.8864C164.852 38.9394 165.016 38.9659 165.189 38.9659C165.318 38.9659 165.424 38.9593 165.507 38.946C165.59 38.9295 165.656 38.9162 165.706 38.9062L165.944 39.9602C165.865 39.9901 165.754 40.0199 165.611 40.0497C165.469 40.0829 165.288 40.0994 165.069 40.0994C164.738 40.0994 164.413 40.0282 164.095 39.8857C163.78 39.7431 163.518 39.526 163.309 39.2344C163.104 38.9427 163.001 38.5748 163.001 38.1307V30.5341ZM169.817 40.179C169.333 40.179 168.894 40.0878 168.5 39.9055C168.105 39.7199 167.792 39.4531 167.56 39.1051C167.328 38.7538 167.212 38.3295 167.212 37.8324C167.212 37.3949 167.298 37.0402 167.471 36.7685C167.643 36.4934 167.873 36.2779 168.162 36.1222C168.45 35.9664 168.768 35.8504 169.116 35.7741C169.467 35.6946 169.82 35.6316 170.175 35.5852C170.639 35.5256 171.015 35.4808 171.304 35.451C171.595 35.4179 171.807 35.3632 171.94 35.2869C172.076 35.2107 172.144 35.0781 172.144 34.8892V34.8494C172.144 34.3589 172.01 33.9777 171.741 33.706C171.476 33.4342 171.073 33.2983 170.533 33.2983C169.973 33.2983 169.534 33.4209 169.216 33.6662C168.897 33.9115 168.674 34.1733 168.544 34.4517L167.431 34.054C167.63 33.59 167.895 33.2287 168.226 32.9702C168.561 32.7083 168.926 32.526 169.32 32.4233C169.718 32.3172 170.109 32.2642 170.493 32.2642C170.739 32.2642 171.02 32.294 171.338 32.3537C171.66 32.41 171.97 32.5277 172.268 32.7067C172.57 32.8857 172.82 33.1558 173.019 33.517C173.218 33.8783 173.317 34.3622 173.317 34.9688V40H172.144V38.9659H172.084C172.005 39.1316 171.872 39.3089 171.686 39.4979C171.501 39.6868 171.254 39.8475 170.946 39.9801C170.637 40.1127 170.261 40.179 169.817 40.179ZM169.996 39.125C170.46 39.125 170.851 39.0339 171.169 38.8516C171.491 38.6693 171.733 38.4339 171.895 38.1456C172.061 37.8572 172.144 37.554 172.144 37.2358V36.1619C172.094 36.2216 171.985 36.2763 171.816 36.326C171.65 36.3724 171.458 36.4138 171.239 36.4503C171.024 36.4834 170.813 36.5133 170.608 36.5398C170.405 36.563 170.241 36.5829 170.115 36.5994C169.81 36.6392 169.525 36.7038 169.26 36.7933C168.998 36.8795 168.786 37.0104 168.624 37.1861C168.465 37.3584 168.385 37.5937 168.385 37.892C168.385 38.2997 168.536 38.608 168.838 38.8168C169.143 39.0223 169.529 39.125 169.996 39.125ZM169.042 31.4489L168.127 31.4091C168.127 30.902 168.271 30.4877 168.559 30.1662C168.851 29.8414 169.211 29.679 169.638 29.679C169.827 29.679 169.994 29.7121 170.14 29.7784C170.286 29.8414 170.425 29.9143 170.558 29.9972C170.69 30.08 170.826 30.1546 170.966 30.2209C171.108 30.2839 171.269 30.3153 171.448 30.3153C171.637 30.3153 171.796 30.2424 171.925 30.0966C172.058 29.9474 172.124 29.7685 172.124 29.5597L173.019 29.6392C173.019 30.1562 172.873 30.5672 172.581 30.8722C172.293 31.1771 171.935 31.3295 171.507 31.3295C171.279 31.3295 171.09 31.2981 170.941 31.2351C170.792 31.1688 170.659 31.0942 170.543 31.0114C170.427 30.9285 170.304 30.8556 170.175 30.7926C170.046 30.7263 169.887 30.6932 169.698 30.6932C169.509 30.6932 169.351 30.7678 169.225 30.9169C169.103 31.0627 169.042 31.2401 169.042 31.4489ZM178.561 40.1591C177.872 40.1591 177.267 39.995 176.746 39.6669C176.229 39.3388 175.825 38.8797 175.533 38.2898C175.245 37.6998 175.101 37.0104 175.101 36.2216C175.101 35.4261 175.245 34.7318 175.533 34.1385C175.825 33.5452 176.229 33.0845 176.746 32.7564C177.267 32.4283 177.872 32.2642 178.561 32.2642C179.25 32.2642 179.854 32.4283 180.371 32.7564C180.891 33.0845 181.295 33.5452 181.584 34.1385C181.875 34.7318 182.021 35.4261 182.021 36.2216C182.021 37.0104 181.875 37.6998 181.584 38.2898C181.295 38.8797 180.891 39.3388 180.371 39.6669C179.854 39.995 179.25 40.1591 178.561 40.1591ZM178.561 39.1051C179.085 39.1051 179.515 38.9709 179.854 38.7024C180.192 38.4339 180.442 38.081 180.604 37.6435C180.767 37.206 180.848 36.732 180.848 36.2216C180.848 35.7112 180.767 35.2356 180.604 34.7947C180.442 34.3539 180.192 33.9976 179.854 33.7259C179.515 33.4541 179.085 33.3182 178.561 33.3182C178.037 33.3182 177.606 33.4541 177.268 33.7259C176.93 33.9976 176.68 34.3539 176.518 34.7947C176.355 35.2356 176.274 35.7112 176.274 36.2216C176.274 36.732 176.355 37.206 176.518 37.6435C176.68 38.081 176.93 38.4339 177.268 38.7024C177.606 38.9709 178.037 39.1051 178.561 39.1051Z" fill="#21242C"/>
<mask id="mask0_944_21779" style="mask-type:alpha" maskUnits="userSpaceOnUse" x="203" y="26" width="16" height="17">
<rect x="203" y="26.5" width="16" height="16" fill="#D9D9D9"/>
</mask>
<g mask="url(#mask0_944_21779)">
<path d="M210.333 35.1666H206.333V33.8333H210.333V29.8333H211.666V33.8333H215.666V35.1666H211.666V39.1666H210.333V35.1666Z" fill="#013561"/>
</g>
<mask id="path-6-inside-1_944_21779" fill="white">
<path d="M12 60H228V92H12V60Z"/>
</mask>
<path d="M228 92V91H12V92V93H228V92Z" fill="#DCDFE5" mask="url(#path-6-inside-1_944_21779)"/>
<path d="M20.7045 79V73.1818H24.1932V73.8068H21.4091V75.7727H23.9318V76.3977H21.4091V79H20.7045ZM25.3089 79V74.6364H25.9794V79H25.3089ZM25.6499 73.9091C25.5192 73.9091 25.4065 73.8646 25.3118 73.7756C25.219 73.6866 25.1726 73.5795 25.1726 73.4545C25.1726 73.3295 25.219 73.2225 25.3118 73.1335C25.4065 73.0445 25.5192 73 25.6499 73C25.7805 73 25.8923 73.0445 25.9851 73.1335C26.0798 73.2225 26.1271 73.3295 26.1271 73.4545C26.1271 73.5795 26.0798 73.6866 25.9851 73.7756C25.8923 73.8646 25.7805 73.9091 25.6499 73.9091ZM27.8778 76.375V79H27.2074V74.6364H27.8551V75.3182H27.9119C28.0142 75.0966 28.1695 74.9186 28.3778 74.7841C28.5862 74.6477 28.8551 74.5795 29.1847 74.5795C29.4801 74.5795 29.7386 74.6402 29.9602 74.7614C30.1818 74.8807 30.3542 75.0625 30.4773 75.3068C30.6004 75.5492 30.6619 75.8561 30.6619 76.2273V79H29.9915V76.2727C29.9915 75.9299 29.9025 75.6629 29.7244 75.4716C29.5464 75.2784 29.3021 75.1818 28.9915 75.1818C28.7775 75.1818 28.5862 75.2282 28.4176 75.321C28.2509 75.4138 28.1193 75.5492 28.0227 75.7273C27.9261 75.9053 27.8778 76.1212 27.8778 76.375ZM33.1712 79.1023C32.8946 79.1023 32.6437 79.0502 32.4183 78.946C32.1929 78.84 32.014 78.6875 31.8814 78.4886C31.7488 78.2879 31.6825 78.0455 31.6825 77.7614C31.6825 77.5114 31.7318 77.3087 31.8303 77.1534C31.9287 76.9962 32.0604 76.8731 32.2251 76.7841C32.3899 76.6951 32.5717 76.6288 32.7706 76.5852C32.9714 76.5398 33.1731 76.5038 33.3757 76.4773C33.6409 76.4432 33.8558 76.4176 34.0206 76.4006C34.1873 76.3816 34.3085 76.3504 34.3842 76.3068C34.4619 76.2633 34.5007 76.1875 34.5007 76.0795V76.0568C34.5007 75.7765 34.424 75.5587 34.2706 75.4034C34.1191 75.2481 33.889 75.1705 33.5803 75.1705C33.2602 75.1705 33.0092 75.2405 32.8274 75.3807C32.6456 75.5208 32.5178 75.6705 32.4439 75.8295L31.8075 75.6023C31.9212 75.3371 32.0727 75.1307 32.2621 74.983C32.4534 74.8333 32.6617 74.7292 32.8871 74.6705C33.1143 74.6098 33.3378 74.5795 33.5575 74.5795C33.6977 74.5795 33.8587 74.5966 34.0405 74.6307C34.2242 74.6629 34.4013 74.7301 34.5717 74.8324C34.7441 74.9347 34.8871 75.089 35.0007 75.2955C35.1143 75.5019 35.1712 75.7784 35.1712 76.125V79H34.5007V78.4091H34.4666C34.4212 78.5038 34.3454 78.6051 34.2393 78.7131C34.1333 78.821 33.9922 78.9129 33.8161 78.9886C33.6399 79.0644 33.425 79.1023 33.1712 79.1023ZM33.2734 78.5C33.5386 78.5 33.7621 78.4479 33.9439 78.3438C34.1276 78.2396 34.2659 78.1051 34.3587 77.9403C34.4534 77.7756 34.5007 77.6023 34.5007 77.4205V76.8068C34.4723 76.8409 34.4098 76.8722 34.3132 76.9006C34.2185 76.9271 34.1087 76.9508 33.9837 76.9716C33.8606 76.9905 33.7403 77.0076 33.6229 77.0227C33.5073 77.036 33.4136 77.0473 33.3416 77.0568C33.1674 77.0795 33.0045 77.1165 32.853 77.1676C32.7034 77.2169 32.5821 77.2917 32.4893 77.392C32.3984 77.4905 32.353 77.625 32.353 77.7955C32.353 78.0284 32.4392 78.2045 32.6115 78.3239C32.7857 78.4413 33.0064 78.5 33.2734 78.5ZM37.0653 76.375V79H36.3949V74.6364H37.0426V75.3182H37.0994C37.2017 75.0966 37.357 74.9186 37.5653 74.7841C37.7737 74.6477 38.0426 74.5795 38.3722 74.5795C38.6676 74.5795 38.9261 74.6402 39.1477 74.7614C39.3693 74.8807 39.5417 75.0625 39.6648 75.3068C39.7879 75.5492 39.8494 75.8561 39.8494 76.2273V79H39.179V76.2727C39.179 75.9299 39.09 75.6629 38.9119 75.4716C38.7339 75.2784 38.4896 75.1818 38.179 75.1818C37.965 75.1818 37.7737 75.2282 37.6051 75.321C37.4384 75.4138 37.3068 75.5492 37.2102 75.7273C37.1136 75.9053 37.0653 76.1212 37.0653 76.375ZM42.8473 79.0909C42.4382 79.0909 42.0859 78.9943 41.7905 78.8011C41.495 78.608 41.2678 78.3419 41.1087 78.0028C40.9496 77.6638 40.87 77.2765 40.87 76.8409C40.87 76.3977 40.9515 76.0066 41.1143 75.6676C41.2791 75.3267 41.5083 75.0606 41.8018 74.8693C42.0973 74.6761 42.442 74.5795 42.8359 74.5795C43.1428 74.5795 43.4193 74.6364 43.6655 74.75C43.9117 74.8636 44.1134 75.0227 44.2706 75.2273C44.4278 75.4318 44.5253 75.6705 44.5632 75.9432H43.8928C43.8416 75.7443 43.728 75.5682 43.5518 75.4148C43.3776 75.2595 43.1428 75.1818 42.8473 75.1818C42.5859 75.1818 42.3568 75.25 42.1598 75.3864C41.9647 75.5208 41.8123 75.7112 41.7024 75.9574C41.5945 76.2017 41.5405 76.4886 41.5405 76.8182C41.5405 77.1553 41.5935 77.4489 41.6996 77.6989C41.8075 77.9489 41.959 78.143 42.1541 78.2812C42.3511 78.4195 42.5821 78.4886 42.8473 78.4886C43.0215 78.4886 43.1797 78.4583 43.3217 78.3977C43.4638 78.3371 43.584 78.25 43.6825 78.1364C43.781 78.0227 43.8511 77.8864 43.8928 77.7273H44.5632C44.5253 77.9848 44.4316 78.2169 44.282 78.4233C44.1342 78.6278 43.9382 78.7907 43.6939 78.9119C43.4515 79.0312 43.1693 79.0909 42.8473 79.0909ZM42.5291 78.9773H43.0859L43.0405 79.2045C43.1882 79.2273 43.3236 79.2888 43.4467 79.3892C43.5698 79.4915 43.6314 79.6534 43.6314 79.875C43.6314 80.1193 43.5301 80.3182 43.3274 80.4716C43.1267 80.6269 42.8303 80.7045 42.4382 80.7045L42.4155 80.2614C42.5916 80.2614 42.7375 80.233 42.853 80.1761C42.9704 80.1212 43.0291 80.0284 43.0291 79.8977C43.0291 79.767 42.9808 79.678 42.8842 79.6307C42.7876 79.5833 42.6314 79.5511 42.4155 79.5341L42.5291 78.9773ZM46.8274 79.1023C46.5509 79.1023 46.3 79.0502 46.0746 78.946C45.8492 78.84 45.6702 78.6875 45.5376 78.4886C45.4051 78.2879 45.3388 78.0455 45.3388 77.7614C45.3388 77.5114 45.388 77.3087 45.4865 77.1534C45.585 76.9962 45.7166 76.8731 45.8814 76.7841C46.0462 76.6951 46.228 76.6288 46.4268 76.5852C46.6276 76.5398 46.8293 76.5038 47.032 76.4773C47.2971 76.4432 47.5121 76.4176 47.6768 76.4006C47.8435 76.3816 47.9647 76.3504 48.0405 76.3068C48.1181 76.2633 48.157 76.1875 48.157 76.0795V76.0568C48.157 75.7765 48.0803 75.5587 47.9268 75.4034C47.7753 75.2481 47.5452 75.1705 47.2365 75.1705C46.9164 75.1705 46.6655 75.2405 46.4837 75.3807C46.3018 75.5208 46.174 75.6705 46.1001 75.8295L45.4638 75.6023C45.5774 75.3371 45.7289 75.1307 45.9183 74.983C46.1096 74.8333 46.3179 74.7292 46.5433 74.6705C46.7706 74.6098 46.9941 74.5795 47.2138 74.5795C47.3539 74.5795 47.5149 74.5966 47.6967 74.6307C47.8804 74.6629 48.0575 74.7301 48.228 74.8324C48.4003 74.9347 48.5433 75.089 48.657 75.2955C48.7706 75.5019 48.8274 75.7784 48.8274 76.125V79H48.157V78.4091H48.1229C48.0774 78.5038 48.0017 78.6051 47.8956 78.7131C47.7895 78.821 47.6484 78.9129 47.4723 78.9886C47.2962 79.0644 47.0812 79.1023 46.8274 79.1023ZM46.9297 78.5C47.1948 78.5 47.4183 78.4479 47.6001 78.3438C47.7839 78.2396 47.9221 78.1051 48.0149 77.9403C48.1096 77.7756 48.157 77.6023 48.157 77.4205V76.8068C48.1286 76.8409 48.0661 76.8722 47.9695 76.9006C47.8748 76.9271 47.7649 76.9508 47.6399 76.9716C47.5168 76.9905 47.3965 77.0076 47.2791 77.0227C47.1636 77.036 47.0698 77.0473 46.9979 77.0568C46.8236 77.0795 46.6607 77.1165 46.5092 77.1676C46.3596 77.2169 46.2384 77.2917 46.1456 77.392C46.0547 77.4905 46.0092 77.625 46.0092 77.7955C46.0092 78.0284 46.0954 78.2045 46.2678 78.3239C46.442 78.4413 46.6626 78.5 46.9297 78.5ZM53.142 75.6136L52.5398 75.7841C52.5019 75.6837 52.446 75.5862 52.3722 75.4915C52.3002 75.3949 52.2017 75.3153 52.0767 75.2528C51.9517 75.1903 51.7917 75.1591 51.5966 75.1591C51.3295 75.1591 51.107 75.2206 50.929 75.3438C50.7528 75.465 50.6648 75.6193 50.6648 75.8068C50.6648 75.9735 50.7254 76.1051 50.8466 76.2017C50.9678 76.2983 51.1572 76.3788 51.4148 76.4432L52.0625 76.6023C52.4527 76.697 52.7434 76.8419 52.9347 77.0369C53.1259 77.2301 53.2216 77.4792 53.2216 77.7841C53.2216 78.0341 53.1496 78.2576 53.0057 78.4545C52.8636 78.6515 52.6648 78.8068 52.4091 78.9205C52.1534 79.0341 51.8561 79.0909 51.517 79.0909C51.072 79.0909 50.7036 78.9943 50.4119 78.8011C50.1203 78.608 49.9356 78.3258 49.858 77.9545L50.4943 77.7955C50.5549 78.0303 50.6695 78.2064 50.8381 78.3239C51.0085 78.4413 51.2311 78.5 51.5057 78.5C51.8182 78.5 52.0663 78.4337 52.25 78.3011C52.4356 78.1667 52.5284 78.0057 52.5284 77.8182C52.5284 77.6667 52.4754 77.5398 52.3693 77.4375C52.2633 77.3333 52.1004 77.2557 51.8807 77.2045L51.1534 77.0341C50.7538 76.9394 50.4602 76.7926 50.2727 76.5938C50.0871 76.393 49.9943 76.142 49.9943 75.8409C49.9943 75.5947 50.0634 75.3769 50.2017 75.1875C50.3419 74.9981 50.5322 74.8494 50.7727 74.7415C51.0152 74.6335 51.2898 74.5795 51.5966 74.5795C52.0284 74.5795 52.3674 74.6742 52.6136 74.8636C52.8617 75.053 53.0379 75.303 53.142 75.6136ZM58.3104 79.0909C57.8899 79.0909 57.5272 78.9981 57.2223 78.8125C56.9193 78.625 56.6854 78.3636 56.5206 78.0284C56.3577 77.6913 56.2763 77.2992 56.2763 76.8523C56.2763 76.4053 56.3577 76.0114 56.5206 75.6705C56.6854 75.3277 56.9145 75.0606 57.2081 74.8693C57.5036 74.6761 57.8482 74.5795 58.2422 74.5795C58.4695 74.5795 58.6939 74.6174 58.9155 74.6932C59.1371 74.7689 59.3388 74.892 59.5206 75.0625C59.7024 75.2311 59.8473 75.4545 59.9553 75.733C60.0632 76.0114 60.1172 76.3542 60.1172 76.7614V77.0455H56.7536V76.4659H59.4354C59.4354 76.2197 59.3861 76 59.2876 75.8068C59.1911 75.6136 59.0528 75.4612 58.8729 75.3494C58.6948 75.2377 58.4846 75.1818 58.2422 75.1818C57.9751 75.1818 57.7441 75.2481 57.549 75.3807C57.3558 75.5114 57.2071 75.6818 57.103 75.892C56.9988 76.1023 56.9467 76.3277 56.9467 76.5682V76.9545C56.9467 77.2841 57.0036 77.5634 57.1172 77.7926C57.2327 78.0199 57.3928 78.1932 57.5973 78.3125C57.8018 78.4299 58.0395 78.4886 58.3104 78.4886C58.4865 78.4886 58.6456 78.464 58.7876 78.4148C58.9316 78.3636 59.0556 78.2879 59.1598 78.1875C59.264 78.0852 59.3445 77.9583 59.4013 77.8068L60.049 77.9886C59.9808 78.2083 59.8662 78.4015 59.7053 78.5682C59.5443 78.733 59.3454 78.8617 59.1087 78.9545C58.8719 79.0455 58.6058 79.0909 58.3104 79.0909ZM63.478 73.1818H64.3189L66.2962 78.0114H66.3643L68.3416 73.1818H69.1825V79H68.5234V74.5795H68.4666L66.6484 79H66.0121L64.1939 74.5795H64.1371V79H63.478V73.1818ZM72.3338 79.0909C71.9134 79.0909 71.5507 78.9981 71.2457 78.8125C70.9427 78.625 70.7088 78.3636 70.544 78.0284C70.3812 77.6913 70.2997 77.2992 70.2997 76.8523C70.2997 76.4053 70.3812 76.0114 70.544 75.6705C70.7088 75.3277 70.938 75.0606 71.2315 74.8693C71.527 74.6761 71.8717 74.5795 72.2656 74.5795C72.4929 74.5795 72.7173 74.6174 72.9389 74.6932C73.1605 74.7689 73.3622 74.892 73.544 75.0625C73.7259 75.2311 73.8707 75.4545 73.9787 75.733C74.0866 76.0114 74.1406 76.3542 74.1406 76.7614V77.0455H70.777V76.4659H73.4588C73.4588 76.2197 73.4096 76 73.3111 75.8068C73.2145 75.6136 73.0762 75.4612 72.8963 75.3494C72.7183 75.2377 72.508 75.1818 72.2656 75.1818C71.9986 75.1818 71.7675 75.2481 71.5724 75.3807C71.3793 75.5114 71.2306 75.6818 71.1264 75.892C71.0223 76.1023 70.9702 76.3277 70.9702 76.5682V76.9545C70.9702 77.2841 71.027 77.5634 71.1406 77.7926C71.2562 78.0199 71.4162 78.1932 71.6207 78.3125C71.8253 78.4299 72.063 78.4886 72.3338 78.4886C72.5099 78.4886 72.669 78.464 72.8111 78.4148C72.955 78.3636 73.0791 78.2879 73.1832 78.1875C73.2874 78.0852 73.3679 77.9583 73.4247 77.8068L74.0724 77.9886C74.0043 78.2083 73.8897 78.4015 73.7287 78.5682C73.5677 78.733 73.3688 78.8617 73.1321 78.9545C72.8954 79.0455 72.6293 79.0909 72.3338 79.0909ZM75.1605 79V74.6364H75.8082V75.2955H75.8537C75.9332 75.0795 76.0772 74.9044 76.2855 74.7699C76.4938 74.6354 76.7287 74.5682 76.9901 74.5682C77.0393 74.5682 77.1009 74.5691 77.1747 74.571C77.2486 74.5729 77.3045 74.5758 77.3423 74.5795V75.2614C77.3196 75.2557 77.2675 75.2472 77.1861 75.2358C77.1065 75.2225 77.0223 75.2159 76.9332 75.2159C76.7211 75.2159 76.5317 75.2604 76.3651 75.3494C76.2003 75.4366 76.0696 75.5578 75.973 75.7131C75.8783 75.8665 75.831 76.0417 75.831 76.2386V79H75.1605ZM79.777 79.0909C79.3679 79.0909 79.0156 78.9943 78.7202 78.8011C78.4247 78.608 78.1974 78.3419 78.0384 78.0028C77.8793 77.6638 77.7997 77.2765 77.7997 76.8409C77.7997 76.3977 77.8812 76.0066 78.044 75.6676C78.2088 75.3267 78.438 75.0606 78.7315 74.8693C79.027 74.6761 79.3717 74.5795 79.7656 74.5795C80.0724 74.5795 80.349 74.6364 80.5952 74.75C80.8414 74.8636 81.0431 75.0227 81.2003 75.2273C81.3575 75.4318 81.455 75.6705 81.4929 75.9432H80.8224C80.7713 75.7443 80.6577 75.5682 80.4815 75.4148C80.3073 75.2595 80.0724 75.1818 79.777 75.1818C79.5156 75.1818 79.2865 75.25 79.0895 75.3864C78.8944 75.5208 78.742 75.7112 78.6321 75.9574C78.5241 76.2017 78.4702 76.4886 78.4702 76.8182C78.4702 77.1553 78.5232 77.4489 78.6293 77.6989C78.7372 77.9489 78.8887 78.143 79.0838 78.2812C79.2808 78.4195 79.5118 78.4886 79.777 78.4886C79.9512 78.4886 80.1094 78.4583 80.2514 78.3977C80.3935 78.3371 80.5137 78.25 80.6122 78.1364C80.7107 78.0227 80.7808 77.8864 80.8224 77.7273H81.4929C81.455 77.9848 81.3613 78.2169 81.2116 78.4233C81.0639 78.6278 80.8679 78.7907 80.6236 78.9119C80.3812 79.0312 80.099 79.0909 79.777 79.0909ZM83.7571 79.1023C83.4806 79.1023 83.2296 79.0502 83.0043 78.946C82.7789 78.84 82.5999 78.6875 82.4673 78.4886C82.3348 78.2879 82.2685 78.0455 82.2685 77.7614C82.2685 77.5114 82.3177 77.3087 82.4162 77.1534C82.5147 76.9962 82.6463 76.8731 82.8111 76.7841C82.9759 76.6951 83.1577 76.6288 83.3565 76.5852C83.5573 76.5398 83.759 76.5038 83.9616 76.4773C84.2268 76.4432 84.4418 76.4176 84.6065 76.4006C84.7732 76.3816 84.8944 76.3504 84.9702 76.3068C85.0478 76.2633 85.0866 76.1875 85.0866 76.0795V76.0568C85.0866 75.7765 85.0099 75.5587 84.8565 75.4034C84.705 75.2481 84.4749 75.1705 84.1662 75.1705C83.8461 75.1705 83.5952 75.2405 83.4134 75.3807C83.2315 75.5208 83.1037 75.6705 83.0298 75.8295L82.3935 75.6023C82.5071 75.3371 82.6586 75.1307 82.848 74.983C83.0393 74.8333 83.2476 74.7292 83.473 74.6705C83.7003 74.6098 83.9238 74.5795 84.1435 74.5795C84.2836 74.5795 84.4446 74.5966 84.6264 74.6307C84.8101 74.6629 84.9872 74.7301 85.1577 74.8324C85.33 74.9347 85.473 75.089 85.5866 75.2955C85.7003 75.5019 85.7571 75.7784 85.7571 76.125V79H85.0866V78.4091H85.0526C85.0071 78.5038 84.9313 78.6051 84.8253 78.7131C84.7192 78.821 84.5781 78.9129 84.402 78.9886C84.2259 79.0644 84.0109 79.1023 83.7571 79.1023ZM83.8594 78.5C84.1245 78.5 84.348 78.4479 84.5298 78.3438C84.7135 78.2396 84.8518 78.1051 84.9446 77.9403C85.0393 77.7756 85.0866 77.6023 85.0866 77.4205V76.8068C85.0582 76.8409 84.9957 76.8722 84.8991 76.9006C84.8045 76.9271 84.6946 76.9508 84.5696 76.9716C84.4465 76.9905 84.3262 77.0076 84.2088 77.0227C84.0933 77.036 83.9995 77.0473 83.9276 77.0568C83.7533 77.0795 83.5904 77.1165 83.4389 77.1676C83.2893 77.2169 83.1681 77.2917 83.0753 77.392C82.9844 77.4905 82.9389 77.625 82.9389 77.7955C82.9389 78.0284 83.0251 78.2045 83.1974 78.3239C83.3717 78.4413 83.5923 78.5 83.8594 78.5ZM88.6286 79.0909C88.2649 79.0909 87.9439 78.9991 87.6655 78.8153C87.3871 78.6297 87.1693 78.3684 87.0121 78.0312C86.8549 77.6922 86.7763 77.2917 86.7763 76.8295C86.7763 76.3712 86.8549 75.9735 87.0121 75.6364C87.1693 75.2992 87.388 75.0388 87.6683 74.8551C87.9486 74.6714 88.2725 74.5795 88.6399 74.5795C88.924 74.5795 89.1484 74.6269 89.3132 74.7216C89.4799 74.8144 89.6068 74.9205 89.6939 75.0398C89.7829 75.1572 89.852 75.2538 89.9013 75.3295H89.9581V73.1818H90.6286V79H89.9808V78.3295H89.9013C89.852 78.4091 89.782 78.5095 89.6911 78.6307C89.6001 78.75 89.4704 78.857 89.3018 78.9517C89.1333 79.0445 88.9089 79.0909 88.6286 79.0909ZM88.7195 78.4886C88.9884 78.4886 89.2157 78.4186 89.4013 78.2784C89.5869 78.1364 89.728 77.9403 89.8246 77.6903C89.9212 77.4384 89.9695 77.1477 89.9695 76.8182C89.9695 76.4924 89.9221 76.2074 89.8274 75.9631C89.7327 75.7169 89.5926 75.5256 89.407 75.3892C89.2214 75.2509 88.9922 75.1818 88.7195 75.1818C88.4354 75.1818 88.1986 75.2547 88.0092 75.4006C87.8217 75.5445 87.6806 75.7405 87.5859 75.9886C87.4931 76.2348 87.4467 76.5114 87.4467 76.8182C87.4467 77.1288 87.4941 77.411 87.5888 77.6648C87.6854 77.9167 87.8274 78.1174 88.0149 78.267C88.2043 78.4148 88.4392 78.4886 88.7195 78.4886ZM93.7223 79.0909C93.3284 79.0909 92.9827 78.9972 92.6854 78.8097C92.3899 78.6222 92.1589 78.3598 91.9922 78.0227C91.8274 77.6856 91.745 77.2917 91.745 76.8409C91.745 76.3864 91.8274 75.9896 91.9922 75.6506C92.1589 75.3116 92.3899 75.0483 92.6854 74.8608C92.9827 74.6733 93.3284 74.5795 93.7223 74.5795C94.1162 74.5795 94.4609 74.6733 94.7564 74.8608C95.0537 75.0483 95.2848 75.3116 95.4496 75.6506C95.6162 75.9896 95.6996 76.3864 95.6996 76.8409C95.6996 77.2917 95.6162 77.6856 95.4496 78.0227C95.2848 78.3598 95.0537 78.6222 94.7564 78.8097C94.4609 78.9972 94.1162 79.0909 93.7223 79.0909ZM93.7223 78.4886C94.0215 78.4886 94.2678 78.4119 94.4609 78.2585C94.6541 78.1051 94.7971 77.9034 94.8899 77.6534C94.9827 77.4034 95.0291 77.1326 95.0291 76.8409C95.0291 76.5492 94.9827 76.2775 94.8899 76.0256C94.7971 75.7737 94.6541 75.5701 94.4609 75.4148C94.2678 75.2595 94.0215 75.1818 93.7223 75.1818C93.4231 75.1818 93.1768 75.2595 92.9837 75.4148C92.7905 75.5701 92.6475 75.7737 92.5547 76.0256C92.4619 76.2775 92.4155 76.5492 92.4155 76.8409C92.4155 77.1326 92.4619 77.4034 92.5547 77.6534C92.6475 77.9034 92.7905 78.1051 92.9837 78.2585C93.1768 78.4119 93.4231 78.4886 93.7223 78.4886Z" fill="black"/>
<mask id="mask1_944_21779" style="mask-type:alpha" maskUnits="userSpaceOnUse" x="188" y="68" width="16" height="16">
<rect x="188" y="68" width="16" height="16" fill="#D9D9D9"/>
</mask>
<g mask="url(#mask1_944_21779)">
<path d="M191.333 80.6667H192.283L198.8 74.15L197.85 73.2L191.333 79.7167V80.6667ZM190 82V79.1667L198.8 70.3833C198.933 70.2611 199.081 70.1667 199.242 70.1C199.403 70.0333 199.572 70 199.75 70C199.928 70 200.1 70.0333 200.267 70.1C200.433 70.1667 200.578 70.2667 200.7 70.4L201.617 71.3333C201.75 71.4556 201.847 71.6 201.908 71.7667C201.969 71.9333 202 72.1 202 72.2667C202 72.4444 201.969 72.6139 201.908 72.775C201.847 72.9361 201.75 73.0833 201.617 73.2167L192.833 82H190ZM198.317 73.6833L197.85 73.2L198.8 74.15L198.317 73.6833Z" fill="#364153"/>
</g>
<mask id="mask2_944_21779" style="mask-type:alpha" maskUnits="userSpaceOnUse" x="212" y="68" width="16" height="16">
<rect x="212" y="68" width="16" height="16" fill="#D9D9D9"/>
</mask>
<g mask="url(#mask2_944_21779)">
<path d="M217.6 79.3333L216.667 78.4L219.067 76L216.667 73.6167L217.6 72.6833L220 75.0833L222.384 72.6833L223.317 73.6167L220.917 76L223.317 78.4L222.384 79.3333L220 76.9333L217.6 79.3333Z" fill="#364153"/>
</g>
<path d="M21.4091 105.182V111H20.7045V105.182H21.4091ZM23.4013 108.375V111H22.7308V106.636H23.3786V107.318H23.4354C23.5376 107.097 23.6929 106.919 23.9013 106.784C24.1096 106.648 24.3786 106.58 24.7081 106.58C25.0036 106.58 25.2621 106.64 25.4837 106.761C25.7053 106.881 25.8776 107.062 26.0007 107.307C26.1238 107.549 26.1854 107.856 26.1854 108.227V111H25.5149V108.273C25.5149 107.93 25.4259 107.663 25.2479 107.472C25.0698 107.278 24.8255 107.182 24.5149 107.182C24.3009 107.182 24.1096 107.228 23.9411 107.321C23.7744 107.414 23.6428 107.549 23.5462 107.727C23.4496 107.905 23.4013 108.121 23.4013 108.375ZM29.1832 111.091C28.7893 111.091 28.4437 110.997 28.1463 110.81C27.8509 110.622 27.6198 110.36 27.4531 110.023C27.2884 109.686 27.206 109.292 27.206 108.841C27.206 108.386 27.2884 107.99 27.4531 107.651C27.6198 107.312 27.8509 107.048 28.1463 106.861C28.4437 106.673 28.7893 106.58 29.1832 106.58C29.5772 106.58 29.9219 106.673 30.2173 106.861C30.5147 107.048 30.7457 107.312 30.9105 107.651C31.0772 107.99 31.1605 108.386 31.1605 108.841C31.1605 109.292 31.0772 109.686 30.9105 110.023C30.7457 110.36 30.5147 110.622 30.2173 110.81C29.9219 110.997 29.5772 111.091 29.1832 111.091ZM29.1832 110.489C29.4825 110.489 29.7287 110.412 29.9219 110.259C30.1151 110.105 30.258 109.903 30.3509 109.653C30.4437 109.403 30.4901 109.133 30.4901 108.841C30.4901 108.549 30.4437 108.277 30.3509 108.026C30.258 107.774 30.1151 107.57 29.9219 107.415C29.7287 107.259 29.4825 107.182 29.1832 107.182C28.884 107.182 28.6378 107.259 28.4446 107.415C28.2514 107.57 28.1084 107.774 28.0156 108.026C27.9228 108.277 27.8764 108.549 27.8764 108.841C27.8764 109.133 27.9228 109.403 28.0156 109.653C28.1084 109.903 28.2514 110.105 28.4446 110.259C28.6378 110.412 28.884 110.489 29.1832 110.489ZM35.5959 106.636L33.9822 111H33.3004L31.6868 106.636H32.4141L33.6186 110.114H33.6641L34.8686 106.636H35.5959ZM37.6321 111.102C37.3556 111.102 37.1046 111.05 36.8793 110.946C36.6539 110.84 36.4749 110.688 36.3423 110.489C36.2098 110.288 36.1435 110.045 36.1435 109.761C36.1435 109.511 36.1927 109.309 36.2912 109.153C36.3897 108.996 36.5213 108.873 36.6861 108.784C36.8509 108.695 37.0327 108.629 37.2315 108.585C37.4323 108.54 37.634 108.504 37.8366 108.477C38.1018 108.443 38.3168 108.418 38.4815 108.401C38.6482 108.382 38.7694 108.35 38.8452 108.307C38.9228 108.263 38.9616 108.187 38.9616 108.08V108.057C38.9616 107.777 38.8849 107.559 38.7315 107.403C38.58 107.248 38.3499 107.17 38.0412 107.17C37.7211 107.17 37.4702 107.241 37.2884 107.381C37.1065 107.521 36.9787 107.67 36.9048 107.83L36.2685 107.602C36.3821 107.337 36.5336 107.131 36.723 106.983C36.9143 106.833 37.1226 106.729 37.348 106.67C37.5753 106.61 37.7988 106.58 38.0185 106.58C38.1586 106.58 38.3196 106.597 38.5014 106.631C38.6851 106.663 38.8622 106.73 39.0327 106.832C39.205 106.935 39.348 107.089 39.4616 107.295C39.5753 107.502 39.6321 107.778 39.6321 108.125V111H38.9616V110.409H38.9276C38.8821 110.504 38.8063 110.605 38.7003 110.713C38.5942 110.821 38.4531 110.913 38.277 110.989C38.1009 111.064 37.8859 111.102 37.6321 111.102ZM37.7344 110.5C37.9995 110.5 38.223 110.448 38.4048 110.344C38.5885 110.24 38.7268 110.105 38.8196 109.94C38.9143 109.776 38.9616 109.602 38.9616 109.42V108.807C38.9332 108.841 38.8707 108.872 38.7741 108.901C38.6795 108.927 38.5696 108.951 38.4446 108.972C38.3215 108.991 38.2012 109.008 38.0838 109.023C37.9683 109.036 37.8745 109.047 37.8026 109.057C37.6283 109.08 37.4654 109.116 37.3139 109.168C37.1643 109.217 37.0431 109.292 36.9503 109.392C36.8594 109.491 36.8139 109.625 36.8139 109.795C36.8139 110.028 36.9001 110.205 37.0724 110.324C37.2467 110.441 37.4673 110.5 37.7344 110.5ZM42.6286 111.091C42.2195 111.091 41.8672 110.994 41.5717 110.801C41.2763 110.608 41.049 110.342 40.8899 110.003C40.7308 109.664 40.6513 109.277 40.6513 108.841C40.6513 108.398 40.7327 108.007 40.8956 107.668C41.0604 107.327 41.2895 107.061 41.5831 106.869C41.8786 106.676 42.2232 106.58 42.6172 106.58C42.924 106.58 43.2005 106.636 43.4467 106.75C43.6929 106.864 43.8946 107.023 44.0518 107.227C44.209 107.432 44.3066 107.67 44.3445 107.943H43.674C43.6229 107.744 43.5092 107.568 43.3331 107.415C43.1589 107.259 42.924 107.182 42.6286 107.182C42.3672 107.182 42.138 107.25 41.9411 107.386C41.746 107.521 41.5935 107.711 41.4837 107.957C41.3757 108.202 41.3217 108.489 41.3217 108.818C41.3217 109.155 41.3748 109.449 41.4808 109.699C41.5888 109.949 41.7403 110.143 41.9354 110.281C42.1323 110.42 42.3634 110.489 42.6286 110.489C42.8028 110.489 42.9609 110.458 43.103 110.398C43.245 110.337 43.3653 110.25 43.4638 110.136C43.5623 110.023 43.6323 109.886 43.674 109.727H44.3445C44.3066 109.985 44.2128 110.217 44.0632 110.423C43.9155 110.628 43.7195 110.791 43.4751 110.912C43.2327 111.031 42.9505 111.091 42.6286 111.091ZM42.3104 110.977H42.8672L42.8217 111.205C42.9695 111.227 43.1049 111.289 43.228 111.389C43.3511 111.491 43.4126 111.653 43.4126 111.875C43.4126 112.119 43.3113 112.318 43.1087 112.472C42.9079 112.627 42.6115 112.705 42.2195 112.705L42.1967 112.261C42.3729 112.261 42.5187 112.233 42.6342 112.176C42.7517 112.121 42.8104 112.028 42.8104 111.898C42.8104 111.767 42.7621 111.678 42.6655 111.631C42.5689 111.583 42.4126 111.551 42.1967 111.534L42.3104 110.977ZM46.6087 111.102C46.3321 111.102 46.0812 111.05 45.8558 110.946C45.6304 110.84 45.4515 110.688 45.3189 110.489C45.1863 110.288 45.12 110.045 45.12 109.761C45.12 109.511 45.1693 109.309 45.2678 109.153C45.3662 108.996 45.4979 108.873 45.6626 108.784C45.8274 108.695 46.0092 108.629 46.2081 108.585C46.4089 108.54 46.6106 108.504 46.8132 108.477C47.0784 108.443 47.2933 108.418 47.4581 108.401C47.6248 108.382 47.746 108.35 47.8217 108.307C47.8994 108.263 47.9382 108.187 47.9382 108.08V108.057C47.9382 107.777 47.8615 107.559 47.7081 107.403C47.5566 107.248 47.3265 107.17 47.0178 107.17C46.6977 107.17 46.4467 107.241 46.2649 107.381C46.0831 107.521 45.9553 107.67 45.8814 107.83L45.245 107.602C45.3587 107.337 45.5102 107.131 45.6996 106.983C45.8909 106.833 46.0992 106.729 46.3246 106.67C46.5518 106.61 46.7753 106.58 46.995 106.58C47.1352 106.58 47.2962 106.597 47.478 106.631C47.6617 106.663 47.8388 106.73 48.0092 106.832C48.1816 106.935 48.3246 107.089 48.4382 107.295C48.5518 107.502 48.6087 107.778 48.6087 108.125V111H47.9382V110.409H47.9041C47.8587 110.504 47.7829 110.605 47.6768 110.713C47.5708 110.821 47.4297 110.913 47.2536 110.989C47.0774 111.064 46.8625 111.102 46.6087 111.102ZM46.7109 110.5C46.9761 110.5 47.1996 110.448 47.3814 110.344C47.5651 110.24 47.7034 110.105 47.7962 109.94C47.8909 109.776 47.9382 109.602 47.9382 109.42V108.807C47.9098 108.841 47.8473 108.872 47.7507 108.901C47.656 108.927 47.5462 108.951 47.4212 108.972C47.2981 108.991 47.1778 109.008 47.0604 109.023C46.9448 109.036 46.8511 109.047 46.7791 109.057C46.6049 109.08 46.442 109.116 46.2905 109.168C46.1409 109.217 46.0196 109.292 45.9268 109.392C45.8359 109.491 45.7905 109.625 45.7905 109.795C45.7905 110.028 45.8767 110.205 46.049 110.324C46.2232 110.441 46.4439 110.5 46.7109 110.5ZM46.1655 106.114L45.6428 106.091C45.6428 105.801 45.7251 105.564 45.8899 105.381C46.0566 105.195 46.2621 105.102 46.5064 105.102C46.6143 105.102 46.71 105.121 46.7933 105.159C46.8767 105.195 46.9562 105.237 47.032 105.284C47.1077 105.331 47.1854 105.374 47.2649 105.412C47.3464 105.448 47.4382 105.466 47.5405 105.466C47.6484 105.466 47.7393 105.424 47.8132 105.341C47.889 105.256 47.9268 105.153 47.9268 105.034L48.4382 105.08C48.4382 105.375 48.3549 105.61 48.1882 105.784C48.0234 105.958 47.8189 106.045 47.5746 106.045C47.4439 106.045 47.3359 106.027 47.2507 105.991C47.1655 105.954 47.0897 105.911 47.0234 105.864C46.9571 105.816 46.8871 105.775 46.8132 105.739C46.7393 105.701 46.6484 105.682 46.5405 105.682C46.4325 105.682 46.3426 105.724 46.2706 105.81C46.2005 105.893 46.1655 105.994 46.1655 106.114ZM51.6051 111.091C51.2112 111.091 50.8655 110.997 50.5682 110.81C50.2727 110.622 50.0417 110.36 49.875 110.023C49.7102 109.686 49.6278 109.292 49.6278 108.841C49.6278 108.386 49.7102 107.99 49.875 107.651C50.0417 107.312 50.2727 107.048 50.5682 106.861C50.8655 106.673 51.2112 106.58 51.6051 106.58C51.9991 106.58 52.3438 106.673 52.6392 106.861C52.9366 107.048 53.1676 107.312 53.3324 107.651C53.4991 107.99 53.5824 108.386 53.5824 108.841C53.5824 109.292 53.4991 109.686 53.3324 110.023C53.1676 110.36 52.9366 110.622 52.6392 110.81C52.3438 110.997 51.9991 111.091 51.6051 111.091ZM51.6051 110.489C51.9044 110.489 52.1506 110.412 52.3438 110.259C52.5369 110.105 52.6799 109.903 52.7727 109.653C52.8655 109.403 52.9119 109.133 52.9119 108.841C52.9119 108.549 52.8655 108.277 52.7727 108.026C52.6799 107.774 52.5369 107.57 52.3438 107.415C52.1506 107.259 51.9044 107.182 51.6051 107.182C51.3059 107.182 51.0597 107.259 50.8665 107.415C50.6733 107.57 50.5303 107.774 50.4375 108.026C50.3447 108.277 50.2983 108.549 50.2983 108.841C50.2983 109.133 50.3447 109.403 50.4375 109.653C50.5303 109.903 50.6733 110.105 50.8665 110.259C51.0597 110.412 51.3059 110.489 51.6051 110.489ZM58.6854 111.091C58.2649 111.091 57.9022 110.998 57.5973 110.812C57.2943 110.625 57.0604 110.364 56.8956 110.028C56.7327 109.691 56.6513 109.299 56.6513 108.852C56.6513 108.405 56.7327 108.011 56.8956 107.67C57.0604 107.328 57.2895 107.061 57.5831 106.869C57.8786 106.676 58.2232 106.58 58.6172 106.58C58.8445 106.58 59.0689 106.617 59.2905 106.693C59.5121 106.769 59.7138 106.892 59.8956 107.062C60.0774 107.231 60.2223 107.455 60.3303 107.733C60.4382 108.011 60.4922 108.354 60.4922 108.761V109.045H57.1286V108.466H59.8104C59.8104 108.22 59.7611 108 59.6626 107.807C59.5661 107.614 59.4278 107.461 59.2479 107.349C59.0698 107.238 58.8596 107.182 58.6172 107.182C58.3501 107.182 58.1191 107.248 57.924 107.381C57.7308 107.511 57.5821 107.682 57.478 107.892C57.3738 108.102 57.3217 108.328 57.3217 108.568V108.955C57.3217 109.284 57.3786 109.563 57.4922 109.793C57.6077 110.02 57.7678 110.193 57.9723 110.312C58.1768 110.43 58.4145 110.489 58.6854 110.489C58.8615 110.489 59.0206 110.464 59.1626 110.415C59.3066 110.364 59.4306 110.288 59.5348 110.188C59.639 110.085 59.7195 109.958 59.7763 109.807L60.424 109.989C60.3558 110.208 60.2412 110.402 60.0803 110.568C59.9193 110.733 59.7204 110.862 59.4837 110.955C59.2469 111.045 58.9808 111.091 58.6854 111.091ZM63.5348 105.807V105.182H67.8984V105.807H66.0689V111H65.3643V105.807H63.5348ZM68.4418 111V106.636H69.0895V107.295H69.1349C69.2145 107.08 69.3584 106.904 69.5668 106.77C69.7751 106.635 70.0099 106.568 70.2713 106.568C70.3205 106.568 70.3821 106.569 70.456 106.571C70.5298 106.573 70.5857 106.576 70.6236 106.58V107.261C70.6009 107.256 70.5488 107.247 70.4673 107.236C70.3878 107.223 70.3035 107.216 70.2145 107.216C70.0024 107.216 69.813 107.26 69.6463 107.349C69.4815 107.437 69.3509 107.558 69.2543 107.713C69.1596 107.866 69.1122 108.042 69.1122 108.239V111H68.4418ZM72.7024 111.102C72.4259 111.102 72.175 111.05 71.9496 110.946C71.7242 110.84 71.5452 110.688 71.4126 110.489C71.2801 110.288 71.2138 110.045 71.2138 109.761C71.2138 109.511 71.263 109.309 71.3615 109.153C71.46 108.996 71.5916 108.873 71.7564 108.784C71.9212 108.695 72.103 108.629 72.3018 108.585C72.5026 108.54 72.7043 108.504 72.907 108.477C73.1721 108.443 73.3871 108.418 73.5518 108.401C73.7185 108.382 73.8397 108.35 73.9155 108.307C73.9931 108.263 74.032 108.187 74.032 108.08V108.057C74.032 107.777 73.9553 107.559 73.8018 107.403C73.6503 107.248 73.4202 107.17 73.1115 107.17C72.7914 107.17 72.5405 107.241 72.3587 107.381C72.1768 107.521 72.049 107.67 71.9751 107.83L71.3388 107.602C71.4524 107.337 71.6039 107.131 71.7933 106.983C71.9846 106.833 72.1929 106.729 72.4183 106.67C72.6456 106.61 72.8691 106.58 73.0888 106.58C73.2289 106.58 73.3899 106.597 73.5717 106.631C73.7554 106.663 73.9325 106.73 74.103 106.832C74.2753 106.935 74.4183 107.089 74.532 107.295C74.6456 107.502 74.7024 107.778 74.7024 108.125V111H74.032V110.409H73.9979C73.9524 110.504 73.8767 110.605 73.7706 110.713C73.6645 110.821 73.5234 110.913 73.3473 110.989C73.1712 111.064 72.9562 111.102 72.7024 111.102ZM72.8047 110.5C73.0698 110.5 73.2933 110.448 73.4751 110.344C73.6589 110.24 73.7971 110.105 73.8899 109.94C73.9846 109.776 74.032 109.602 74.032 109.42V108.807C74.0036 108.841 73.9411 108.872 73.8445 108.901C73.7498 108.927 73.6399 108.951 73.5149 108.972C73.3918 108.991 73.2715 109.008 73.1541 109.023C73.0386 109.036 72.9448 109.047 72.8729 109.057C72.6986 109.08 72.5357 109.116 72.3842 109.168C72.2346 109.217 72.1134 109.292 72.0206 109.392C71.9297 109.491 71.8842 109.625 71.8842 109.795C71.8842 110.028 71.9704 110.205 72.1428 110.324C72.317 110.441 72.5376 110.5 72.8047 110.5ZM76.5966 108.375V111H75.9261V106.636H76.5739V107.318H76.6307C76.733 107.097 76.8883 106.919 77.0966 106.784C77.3049 106.648 77.5739 106.58 77.9034 106.58C78.1989 106.58 78.4574 106.64 78.679 106.761C78.9006 106.881 79.0729 107.062 79.196 107.307C79.3191 107.549 79.3807 107.856 79.3807 108.227V111H78.7102V108.273C78.7102 107.93 78.6212 107.663 78.4432 107.472C78.2652 107.278 78.0208 107.182 77.7102 107.182C77.4962 107.182 77.3049 107.228 77.1364 107.321C76.9697 107.414 76.8381 107.549 76.7415 107.727C76.6449 107.905 76.5966 108.121 76.5966 108.375ZM83.6967 107.614L83.0945 107.784C83.0566 107.684 83.0007 107.586 82.9268 107.491C82.8549 107.395 82.7564 107.315 82.6314 107.253C82.5064 107.19 82.3464 107.159 82.1513 107.159C81.8842 107.159 81.6617 107.221 81.4837 107.344C81.3075 107.465 81.2195 107.619 81.2195 107.807C81.2195 107.973 81.2801 108.105 81.4013 108.202C81.5225 108.298 81.7119 108.379 81.9695 108.443L82.6172 108.602C83.0073 108.697 83.2981 108.842 83.4893 109.037C83.6806 109.23 83.7763 109.479 83.7763 109.784C83.7763 110.034 83.7043 110.258 83.5604 110.455C83.4183 110.652 83.2195 110.807 82.9638 110.92C82.7081 111.034 82.4107 111.091 82.0717 111.091C81.6267 111.091 81.2583 110.994 80.9666 110.801C80.675 110.608 80.4903 110.326 80.4126 109.955L81.049 109.795C81.1096 110.03 81.2242 110.206 81.3928 110.324C81.5632 110.441 81.7857 110.5 82.0604 110.5C82.3729 110.5 82.621 110.434 82.8047 110.301C82.9903 110.167 83.0831 110.006 83.0831 109.818C83.0831 109.667 83.0301 109.54 82.924 109.438C82.8179 109.333 82.6551 109.256 82.4354 109.205L81.7081 109.034C81.3085 108.939 81.0149 108.793 80.8274 108.594C80.6418 108.393 80.549 108.142 80.549 107.841C80.549 107.595 80.6181 107.377 80.7564 107.188C80.8965 106.998 81.0869 106.849 81.3274 106.741C81.5698 106.634 81.8445 106.58 82.1513 106.58C82.5831 106.58 82.9221 106.674 83.1683 106.864C83.4164 107.053 83.5926 107.303 83.6967 107.614ZM86.7287 106.636V107.205H84.3764V106.636H86.7287ZM85.081 111V106.034C85.081 105.784 85.1397 105.576 85.2571 105.409C85.3745 105.242 85.527 105.117 85.7145 105.034C85.902 104.951 86.0999 104.909 86.3082 104.909C86.473 104.909 86.6075 104.922 86.7116 104.949C86.8158 104.975 86.8935 105 86.9446 105.023L86.7514 105.602C86.7173 105.591 86.67 105.577 86.6094 105.56C86.5507 105.543 86.473 105.534 86.3764 105.534C86.1548 105.534 85.9948 105.59 85.8963 105.702C85.7997 105.813 85.7514 105.977 85.7514 106.193V111H85.081ZM89.2614 111.091C88.8674 111.091 88.5218 110.997 88.2244 110.81C87.929 110.622 87.6979 110.36 87.5312 110.023C87.3665 109.686 87.2841 109.292 87.2841 108.841C87.2841 108.386 87.3665 107.99 87.5312 107.651C87.6979 107.312 87.929 107.048 88.2244 106.861C88.5218 106.673 88.8674 106.58 89.2614 106.58C89.6553 106.58 90 106.673 90.2955 106.861C90.5928 107.048 90.8239 107.312 90.9886 107.651C91.1553 107.99 91.2386 108.386 91.2386 108.841C91.2386 109.292 91.1553 109.686 90.9886 110.023C90.8239 110.36 90.5928 110.622 90.2955 110.81C90 110.997 89.6553 111.091 89.2614 111.091ZM89.2614 110.489C89.5606 110.489 89.8068 110.412 90 110.259C90.1932 110.105 90.3362 109.903 90.429 109.653C90.5218 109.403 90.5682 109.133 90.5682 108.841C90.5682 108.549 90.5218 108.277 90.429 108.026C90.3362 107.774 90.1932 107.57 90 107.415C89.8068 107.259 89.5606 107.182 89.2614 107.182C88.9621 107.182 88.7159 107.259 88.5227 107.415C88.3295 107.57 88.1866 107.774 88.0938 108.026C88.0009 108.277 87.9545 108.549 87.9545 108.841C87.9545 109.133 88.0009 109.403 88.0938 109.653C88.1866 109.903 88.3295 110.105 88.5227 110.259C88.7159 110.412 88.9621 110.489 89.2614 110.489ZM92.2621 111V106.636H92.9098V107.295H92.9553C93.0348 107.08 93.1787 106.904 93.3871 106.77C93.5954 106.635 93.8303 106.568 94.0916 106.568C94.1409 106.568 94.2024 106.569 94.2763 106.571C94.3501 106.573 94.406 106.576 94.4439 106.58V107.261C94.4212 107.256 94.3691 107.247 94.2876 107.236C94.2081 107.223 94.1238 107.216 94.0348 107.216C93.8227 107.216 93.6333 107.26 93.4666 107.349C93.3018 107.437 93.1712 107.558 93.0746 107.713C92.9799 107.866 92.9325 108.042 92.9325 108.239V111H92.2621ZM95.2386 111V106.636H95.8864V107.318H95.9432C96.0341 107.085 96.1809 106.904 96.3835 106.776C96.5862 106.645 96.8295 106.58 97.1136 106.58C97.4015 106.58 97.6411 106.645 97.8324 106.776C98.0256 106.904 98.1761 107.085 98.2841 107.318H98.3295C98.4413 107.093 98.6089 106.914 98.8324 106.781C99.0559 106.647 99.3239 106.58 99.6364 106.58C100.027 106.58 100.346 106.702 100.594 106.946C100.842 107.188 100.966 107.566 100.966 108.08V111H100.295V108.08C100.295 107.758 100.207 107.527 100.031 107.389C99.8551 107.251 99.6477 107.182 99.4091 107.182C99.1023 107.182 98.8646 107.275 98.696 107.46C98.5275 107.644 98.4432 107.877 98.4432 108.159V111H97.7614V108.011C97.7614 107.763 97.6809 107.563 97.5199 107.412C97.3589 107.259 97.1515 107.182 96.8977 107.182C96.7235 107.182 96.5606 107.228 96.4091 107.321C96.2595 107.414 96.1383 107.543 96.0455 107.707C95.9545 107.87 95.9091 108.059 95.9091 108.273V111H95.2386ZM103.476 111.102C103.199 111.102 102.948 111.05 102.723 110.946C102.498 110.84 102.319 110.688 102.186 110.489C102.054 110.288 101.987 110.045 101.987 109.761C101.987 109.511 102.036 109.309 102.135 109.153C102.233 108.996 102.365 108.873 102.53 108.784C102.695 108.695 102.876 108.629 103.075 108.585C103.276 108.54 103.478 108.504 103.68 108.477C103.946 108.443 104.161 108.418 104.325 108.401C104.492 108.382 104.613 108.35 104.689 108.307C104.767 108.263 104.805 108.187 104.805 108.08V108.057C104.805 107.777 104.729 107.559 104.575 107.403C104.424 107.248 104.194 107.17 103.885 107.17C103.565 107.17 103.314 107.241 103.132 107.381C102.95 107.521 102.822 107.67 102.749 107.83L102.112 107.602C102.226 107.337 102.377 107.131 102.567 106.983C102.758 106.833 102.966 106.729 103.192 106.67C103.419 106.61 103.643 106.58 103.862 106.58C104.002 106.58 104.163 106.597 104.345 106.631C104.529 106.663 104.706 106.73 104.876 106.832C105.049 106.935 105.192 107.089 105.305 107.295C105.419 107.502 105.476 107.778 105.476 108.125V111H104.805V110.409H104.771C104.726 110.504 104.65 110.605 104.544 110.713C104.438 110.821 104.297 110.913 104.121 110.989C103.945 111.064 103.73 111.102 103.476 111.102ZM103.578 110.5C103.843 110.5 104.067 110.448 104.249 110.344C104.432 110.24 104.571 110.105 104.663 109.94C104.758 109.776 104.805 109.602 104.805 109.42V108.807C104.777 108.841 104.714 108.872 104.618 108.901C104.523 108.927 104.413 108.951 104.288 108.972C104.165 108.991 104.045 109.008 103.928 109.023C103.812 109.036 103.718 109.047 103.646 109.057C103.472 109.08 103.309 109.116 103.158 109.168C103.008 109.217 102.887 109.292 102.794 109.392C102.703 109.491 102.658 109.625 102.658 109.795C102.658 110.028 102.744 110.205 102.916 110.324C103.09 110.441 103.311 110.5 103.578 110.5ZM108.472 111.091C108.063 111.091 107.711 110.994 107.415 110.801C107.12 110.608 106.893 110.342 106.734 110.003C106.575 109.664 106.495 109.277 106.495 108.841C106.495 108.398 106.576 108.007 106.739 107.668C106.904 107.327 107.133 107.061 107.427 106.869C107.722 106.676 108.067 106.58 108.461 106.58C108.768 106.58 109.044 106.636 109.29 106.75C109.537 106.864 109.738 107.023 109.896 107.227C110.053 107.432 110.15 107.67 110.188 107.943H109.518C109.467 107.744 109.353 107.568 109.177 107.415C109.003 107.259 108.768 107.182 108.472 107.182C108.211 107.182 107.982 107.25 107.785 107.386C107.59 107.521 107.437 107.711 107.327 107.957C107.219 108.202 107.165 108.489 107.165 108.818C107.165 109.155 107.219 109.449 107.325 109.699C107.433 109.949 107.584 110.143 107.779 110.281C107.976 110.42 108.207 110.489 108.472 110.489C108.647 110.489 108.805 110.458 108.947 110.398C109.089 110.337 109.209 110.25 109.308 110.136C109.406 110.023 109.476 109.886 109.518 109.727H110.188C110.15 109.985 110.057 110.217 109.907 110.423C109.759 110.628 109.563 110.791 109.319 110.912C109.076 111.031 108.794 111.091 108.472 111.091ZM108.154 110.977H108.711L108.665 111.205C108.813 111.227 108.949 111.289 109.072 111.389C109.195 111.491 109.256 111.653 109.256 111.875C109.256 112.119 109.155 112.318 108.952 112.472C108.752 112.627 108.455 112.705 108.063 112.705L108.04 112.261C108.217 112.261 108.362 112.233 108.478 112.176C108.595 112.121 108.654 112.028 108.654 111.898C108.654 111.767 108.606 111.678 108.509 111.631C108.413 111.583 108.256 111.551 108.04 111.534L108.154 110.977ZM112.452 111.102C112.176 111.102 111.925 111.05 111.7 110.946C111.474 110.84 111.295 110.688 111.163 110.489C111.03 110.288 110.964 110.045 110.964 109.761C110.964 109.511 111.013 109.309 111.112 109.153C111.21 108.996 111.342 108.873 111.506 108.784C111.671 108.695 111.853 108.629 112.052 108.585C112.253 108.54 112.454 108.504 112.657 108.477C112.922 108.443 113.137 108.418 113.302 108.401C113.469 108.382 113.59 108.35 113.665 108.307C113.743 108.263 113.782 108.187 113.782 108.08V108.057C113.782 107.777 113.705 107.559 113.552 107.403C113.4 107.248 113.17 107.17 112.862 107.17C112.541 107.17 112.29 107.241 112.109 107.381C111.927 107.521 111.799 107.67 111.725 107.83L111.089 107.602C111.202 107.337 111.354 107.131 111.543 106.983C111.735 106.833 111.943 106.729 112.168 106.67C112.396 106.61 112.619 106.58 112.839 106.58C112.979 106.58 113.14 106.597 113.322 106.631C113.505 106.663 113.683 106.73 113.853 106.832C114.025 106.935 114.168 107.089 114.282 107.295C114.396 107.502 114.452 107.778 114.452 108.125V111H113.782V110.409H113.748C113.702 110.504 113.627 110.605 113.521 110.713C113.415 110.821 113.273 110.913 113.097 110.989C112.921 111.064 112.706 111.102 112.452 111.102ZM112.555 110.5C112.82 110.5 113.043 110.448 113.225 110.344C113.409 110.24 113.547 110.105 113.64 109.94C113.735 109.776 113.782 109.602 113.782 109.42V108.807C113.754 108.841 113.691 108.872 113.594 108.901C113.5 108.927 113.39 108.951 113.265 108.972C113.142 108.991 113.022 109.008 112.904 109.023C112.789 109.036 112.695 109.047 112.623 109.057C112.449 109.08 112.286 109.116 112.134 109.168C111.985 109.217 111.863 109.292 111.771 109.392C111.68 109.491 111.634 109.625 111.634 109.795C111.634 110.028 111.72 110.205 111.893 110.324C112.067 110.441 112.288 110.5 112.555 110.5ZM112.009 106.114L111.487 106.091C111.487 105.801 111.569 105.564 111.734 105.381C111.9 105.195 112.106 105.102 112.35 105.102C112.458 105.102 112.554 105.121 112.637 105.159C112.72 105.195 112.8 105.237 112.876 105.284C112.951 105.331 113.029 105.374 113.109 105.412C113.19 105.448 113.282 105.466 113.384 105.466C113.492 105.466 113.583 105.424 113.657 105.341C113.733 105.256 113.771 105.153 113.771 105.034L114.282 105.08C114.282 105.375 114.199 105.61 114.032 105.784C113.867 105.958 113.663 106.045 113.418 106.045C113.288 106.045 113.18 106.027 113.094 105.991C113.009 105.954 112.933 105.911 112.867 105.864C112.801 105.816 112.731 105.775 112.657 105.739C112.583 105.701 112.492 105.682 112.384 105.682C112.276 105.682 112.186 105.724 112.114 105.81C112.044 105.893 112.009 105.994 112.009 106.114ZM117.449 111.091C117.055 111.091 116.709 110.997 116.412 110.81C116.116 110.622 115.885 110.36 115.719 110.023C115.554 109.686 115.472 109.292 115.472 108.841C115.472 108.386 115.554 107.99 115.719 107.651C115.885 107.312 116.116 107.048 116.412 106.861C116.709 106.673 117.055 106.58 117.449 106.58C117.843 106.58 118.188 106.673 118.483 106.861C118.78 107.048 119.011 107.312 119.176 107.651C119.343 107.99 119.426 108.386 119.426 108.841C119.426 109.292 119.343 109.686 119.176 110.023C119.011 110.36 118.78 110.622 118.483 110.81C118.188 110.997 117.843 111.091 117.449 111.091ZM117.449 110.489C117.748 110.489 117.994 110.412 118.188 110.259C118.381 110.105 118.524 109.903 118.616 109.653C118.709 109.403 118.756 109.133 118.756 108.841C118.756 108.549 118.709 108.277 118.616 108.026C118.524 107.774 118.381 107.57 118.188 107.415C117.994 107.259 117.748 107.182 117.449 107.182C117.15 107.182 116.903 107.259 116.71 107.415C116.517 107.57 116.374 107.774 116.281 108.026C116.188 108.277 116.142 108.549 116.142 108.841C116.142 109.133 116.188 109.403 116.281 109.653C116.374 109.903 116.517 110.105 116.71 110.259C116.903 110.412 117.15 110.489 117.449 110.489ZM124.586 111H122.79V105.182H124.665C125.23 105.182 125.713 105.298 126.114 105.531C126.516 105.762 126.824 106.095 127.038 106.528C127.252 106.96 127.359 107.477 127.359 108.08C127.359 108.686 127.251 109.207 127.035 109.645C126.819 110.08 126.504 110.416 126.092 110.651C125.679 110.884 125.177 111 124.586 111ZM123.495 110.375H124.54C125.022 110.375 125.42 110.282 125.737 110.097C126.053 109.911 126.289 109.647 126.444 109.304C126.599 108.961 126.677 108.553 126.677 108.08C126.677 107.61 126.6 107.205 126.447 106.866C126.293 106.526 126.064 106.264 125.759 106.082C125.454 105.899 125.075 105.807 124.62 105.807H123.495V110.375ZM128.45 111V106.636H129.12V111H128.45ZM128.79 105.909C128.66 105.909 128.547 105.865 128.452 105.776C128.36 105.687 128.313 105.58 128.313 105.455C128.313 105.33 128.36 105.223 128.452 105.134C128.547 105.045 128.66 105 128.79 105C128.921 105 129.033 105.045 129.126 105.134C129.22 105.223 129.268 105.33 129.268 105.455C129.268 105.58 129.22 105.687 129.126 105.776C129.033 105.865 128.921 105.909 128.79 105.909ZM132.109 112.727C131.786 112.727 131.507 112.686 131.274 112.602C131.041 112.521 130.847 112.413 130.692 112.278C130.538 112.146 130.416 112.004 130.325 111.852L130.859 111.477C130.92 111.557 130.997 111.648 131.089 111.75C131.182 111.854 131.309 111.944 131.47 112.02C131.633 112.098 131.846 112.136 132.109 112.136C132.462 112.136 132.752 112.051 132.982 111.881C133.211 111.71 133.325 111.443 133.325 111.08V110.193H133.268C133.219 110.273 133.149 110.371 133.058 110.489C132.969 110.604 132.84 110.707 132.672 110.798C132.505 110.887 132.28 110.932 131.996 110.932C131.643 110.932 131.327 110.848 131.047 110.682C130.768 110.515 130.548 110.273 130.385 109.955C130.224 109.636 130.143 109.25 130.143 108.795C130.143 108.348 130.222 107.959 130.379 107.628C130.536 107.295 130.755 107.037 131.036 106.855C131.316 106.671 131.64 106.58 132.007 106.58C132.291 106.58 132.517 106.627 132.683 106.722C132.852 106.814 132.981 106.92 133.07 107.04C133.161 107.157 133.231 107.254 133.28 107.33H133.348V106.636H133.996V111.125C133.996 111.5 133.911 111.805 133.74 112.04C133.571 112.277 133.344 112.45 133.058 112.56C132.774 112.671 132.458 112.727 132.109 112.727ZM132.087 110.33C132.356 110.33 132.583 110.268 132.768 110.145C132.954 110.022 133.095 109.845 133.192 109.614C133.288 109.383 133.337 109.106 133.337 108.784C133.337 108.47 133.289 108.192 133.195 107.952C133.1 107.711 132.96 107.523 132.774 107.386C132.589 107.25 132.359 107.182 132.087 107.182C131.803 107.182 131.566 107.254 131.376 107.398C131.189 107.542 131.048 107.735 130.953 107.977C130.86 108.22 130.814 108.489 130.814 108.784C130.814 109.087 130.861 109.355 130.956 109.588C131.053 109.819 131.195 110.001 131.382 110.134C131.571 110.264 131.806 110.33 132.087 110.33ZM135.223 111V106.636H135.893V111H135.223ZM135.564 105.909C135.433 105.909 135.321 105.865 135.226 105.776C135.133 105.687 135.087 105.58 135.087 105.455C135.087 105.33 135.133 105.223 135.226 105.134C135.321 105.045 135.433 105 135.564 105C135.695 105 135.806 105.045 135.899 105.134C135.994 105.223 136.041 105.33 136.041 105.455C136.041 105.58 135.994 105.687 135.899 105.776C135.806 105.865 135.695 105.909 135.564 105.909ZM139.019 106.636V107.205H136.758V106.636H139.019ZM137.417 105.591H138.087V109.75C138.087 109.939 138.115 110.081 138.17 110.176C138.227 110.269 138.299 110.331 138.386 110.364C138.475 110.394 138.568 110.409 138.667 110.409C138.741 110.409 138.801 110.405 138.849 110.398C138.896 110.388 138.934 110.381 138.962 110.375L139.099 110.977C139.053 110.994 138.99 111.011 138.908 111.028C138.827 111.047 138.724 111.057 138.599 111.057C138.409 111.057 138.224 111.016 138.042 110.935C137.862 110.853 137.712 110.729 137.593 110.562C137.476 110.396 137.417 110.186 137.417 109.932V105.591ZM141.312 111.102C141.035 111.102 140.784 111.05 140.559 110.946C140.334 110.84 140.155 110.688 140.022 110.489C139.889 110.288 139.823 110.045 139.823 109.761C139.823 109.511 139.872 109.309 139.971 109.153C140.069 108.996 140.201 108.873 140.366 108.784C140.531 108.695 140.712 108.629 140.911 108.585C141.112 108.54 141.314 108.504 141.516 108.477C141.781 108.443 141.996 108.418 142.161 108.401C142.328 108.382 142.449 108.35 142.525 108.307C142.603 108.263 142.641 108.187 142.641 108.08V108.057C142.641 107.777 142.565 107.559 142.411 107.403C142.26 107.248 142.03 107.17 141.721 107.17C141.401 107.17 141.15 107.241 140.968 107.381C140.786 107.521 140.658 107.67 140.585 107.83L139.948 107.602C140.062 107.337 140.213 107.131 140.403 106.983C140.594 106.833 140.802 106.729 141.028 106.67C141.255 106.61 141.478 106.58 141.698 106.58C141.838 106.58 141.999 106.597 142.181 106.631C142.365 106.663 142.542 106.73 142.712 106.832C142.885 106.935 143.028 107.089 143.141 107.295C143.255 107.502 143.312 107.778 143.312 108.125V111H142.641V110.409H142.607C142.562 110.504 142.486 110.605 142.38 110.713C142.274 110.821 142.133 110.913 141.957 110.989C141.781 111.064 141.566 111.102 141.312 111.102ZM141.414 110.5C141.679 110.5 141.903 110.448 142.085 110.344C142.268 110.24 142.406 110.105 142.499 109.94C142.594 109.776 142.641 109.602 142.641 109.42V108.807C142.613 108.841 142.55 108.872 142.454 108.901C142.359 108.927 142.249 108.951 142.124 108.972C142.001 108.991 141.881 109.008 141.763 109.023C141.648 109.036 141.554 109.047 141.482 109.057C141.308 109.08 141.145 109.116 140.994 109.168C140.844 109.217 140.723 109.292 140.63 109.392C140.539 109.491 140.494 109.625 140.494 109.795C140.494 110.028 140.58 110.205 140.752 110.324C140.926 110.441 141.147 110.5 141.414 110.5ZM145.206 105.182V111H144.536V105.182H145.206Z" fill="black"/>
<mask id="mask3_944_21779" style="mask-type:alpha" maskUnits="userSpaceOnUse" x="188" y="100" width="16" height="16">
<rect x="188" y="100" width="16" height="16" fill="#D9D9D9"/>
</mask>
<g mask="url(#mask3_944_21779)">
<path d="M191.333 112.667H192.283L198.8 106.15L197.85 105.2L191.333 111.717V112.667ZM190 114V111.167L198.8 102.383C198.933 102.261 199.081 102.167 199.242 102.1C199.403 102.033 199.572 102 199.75 102C199.928 102 200.1 102.033 200.267 102.1C200.433 102.167 200.578 102.267 200.7 102.4L201.617 103.333C201.75 103.456 201.847 103.6 201.908 103.767C201.969 103.933 202 104.1 202 104.267C202 104.444 201.969 104.614 201.908 104.775C201.847 104.936 201.75 105.083 201.617 105.217L192.833 114H190ZM198.317 105.683L197.85 105.2L198.8 106.15L198.317 105.683Z" fill="#364153"/>
</g>
<mask id="mask4_944_21779" style="mask-type:alpha" maskUnits="userSpaceOnUse" x="212" y="100" width="16" height="16">
<rect x="212" y="100" width="16" height="16" fill="#D9D9D9"/>
</mask>
<g mask="url(#mask4_944_21779)">
<path d="M217.6 111.333L216.667 110.4L219.067 108L216.667 105.617L217.6 104.683L220 107.083L222.384 104.683L223.317 105.617L220.917 108L223.317 110.4L222.384 111.333L220 108.933L217.6 111.333Z" fill="#364153"/>
</g>
</g>
<defs>
<filter id="filter0_d_944_21779" x="0" y="0" width="240" height="148" filterUnits="userSpaceOnUse" color-interpolation-filters="sRGB">
<feFlood flood-opacity="0" result="BackgroundImageFix"/>
<feColorMatrix in="SourceAlpha" type="matrix" values="0 0 0 0 0 0 0 0 0 0 0 0 0 0 0 0 0 0 127 0" result="hardAlpha"/>
<feOffset dy="4"/>
<feGaussianBlur stdDeviation="2"/>
<feComposite in2="hardAlpha" operator="out"/>
<feColorMatrix type="matrix" values="0 0 0 0 0 0 0 0 0 0 0 0 0 0 0 0 0 0 0.25 0"/>
<feBlend mode="normal" in2="BackgroundImageFix" result="effect1_dropShadow_944_21779"/>
<feBlend mode="normal" in="SourceGraphic" in2="effect1_dropShadow_944_21779" result="shape"/>
</filter>
</defs>
</svg>
