<svg width="85" height="384" viewBox="0 0 85 384" fill="none" xmlns="http://www.w3.org/2000/svg">
<g filter="url(#filter0_d_1044_4206)">
<rect x="4" width="77" height="376" rx="8" fill="#F6F7F9" shape-rendering="crispEdges"/>
<path d="M34.0278 20.8182H35.8921L39.1336 28.733H39.2529L42.4944 20.8182H44.3588V31H42.8971V23.6321H42.8026L39.7998 30.9851H38.5867L35.5839 23.6271H35.4894V31H34.0278V20.8182ZM50.316 20.8182V31H48.7748V22.3594H48.7151L46.279 23.9503V22.4787L48.8195 20.8182H50.316Z" fill="black"/>
<path d="M32.6186 56.8182H34.483L37.7244 64.733H37.8438L41.0852 56.8182H42.9496V67H41.4879V59.6321H41.3935L38.3906 66.9851H37.1776L34.1747 59.6271H34.0803V67H32.6186V56.8182ZM45.0439 67V65.8864L48.4892 62.3168C48.8571 61.929 49.1603 61.5893 49.399 61.2976C49.6409 61.0026 49.8216 60.7225 49.9409 60.4574C50.0602 60.1922 50.1199 59.9105 50.1199 59.6122C50.1199 59.2741 50.0403 58.9825 49.8812 58.7372C49.7221 58.4886 49.505 58.2981 49.2299 58.1655C48.9548 58.0296 48.6449 57.9616 48.3002 57.9616C47.9357 57.9616 47.6175 58.0362 47.3457 58.1854C47.0739 58.3345 46.8651 58.545 46.7193 58.8168C46.5734 59.0885 46.5005 59.4067 46.5005 59.7713H45.0339C45.0339 59.1515 45.1764 58.6096 45.4615 58.1456C45.7465 57.6816 46.1376 57.322 46.6348 57.0668C47.1319 56.8082 47.697 56.679 48.3301 56.679C48.9698 56.679 49.5332 56.8066 50.0204 57.0618C50.5109 57.3137 50.8938 57.6584 51.1689 58.0959C51.444 58.5301 51.5815 59.0206 51.5815 59.5675C51.5815 59.9453 51.5102 60.3149 51.3677 60.6761C51.2285 61.0374 50.9849 61.4401 50.6369 61.8842C50.2889 62.325 49.805 62.8603 49.1852 63.4901L47.1618 65.608V65.6825H51.7456V67H45.0439Z" fill="black"/>
<path d="M32.6186 92.8182H34.483L37.7244 100.733H37.8438L41.0852 92.8182H42.9496V103H41.4879V95.6321H41.3935L38.3906 102.985H37.1776L34.1747 95.6271H34.0803V103H32.6186V92.8182ZM48.5886 103.139C47.9058 103.139 47.296 103.022 46.7591 102.786C46.2254 102.551 45.8029 102.224 45.4913 101.807C45.1831 101.386 45.0173 100.899 44.9941 100.345H46.5552C46.5751 100.647 46.6762 100.909 46.8585 101.131C47.0441 101.349 47.286 101.518 47.5843 101.638C47.8826 101.757 48.2141 101.817 48.5787 101.817C48.9797 101.817 49.3343 101.747 49.6426 101.608C49.9541 101.469 50.1977 101.275 50.3734 101.026C50.5491 100.774 50.6369 100.484 50.6369 100.156C50.6369 99.8149 50.5491 99.5149 50.3734 99.2564C50.2011 98.9946 49.9475 98.7891 49.6127 98.6399C49.2813 98.4908 48.8803 98.4162 48.4096 98.4162H47.5495V97.1634H48.4096C48.7875 97.1634 49.1189 97.0954 49.4039 96.9595C49.6923 96.8236 49.9177 96.6347 50.0801 96.3928C50.2425 96.1475 50.3237 95.8608 50.3237 95.5327C50.3237 95.2178 50.2524 94.9444 50.1099 94.7124C49.9707 94.477 49.7718 94.2931 49.5133 94.1605C49.2581 94.0279 48.9565 93.9616 48.6085 93.9616C48.277 93.9616 47.9672 94.023 47.6788 94.1456C47.3938 94.2649 47.1618 94.4373 46.9828 94.6626C46.8038 94.8847 46.7077 95.1515 46.6944 95.4631H45.2079C45.2245 94.9129 45.3869 94.429 45.6951 94.0114C46.0067 93.5937 46.4177 93.2673 46.9281 93.032C47.4385 92.7966 48.0053 92.679 48.6284 92.679C49.2813 92.679 49.8448 92.8066 50.3187 93.0618C50.796 93.3137 51.1639 93.6501 51.4224 94.071C51.6842 94.492 51.8135 94.9527 51.8102 95.4531C51.8135 96.0232 51.6544 96.5071 51.3329 96.9048C51.0147 97.3026 50.5905 97.5694 50.0602 97.7053V97.7848C50.7363 97.8875 51.26 98.156 51.6312 98.5902C52.0057 99.0244 52.1913 99.563 52.188 100.206C52.1913 100.766 52.0356 101.268 51.7207 101.712C51.4092 102.156 50.9833 102.506 50.443 102.761C49.9028 103.013 49.2846 103.139 48.5886 103.139Z" fill="black"/>
<path d="M39.6548 128.818V139H38.1186V128.818H39.6548ZM45.6158 128.818V139H44.0746V130.359H44.0149L41.5788 131.95V130.479L44.1193 128.818H45.6158Z" fill="black"/>
<path d="M35.1165 166.141V164.818H42.9964V166.141H39.8196V175H38.2884V166.141H35.1165ZM48.4615 164.818V175H46.9203V166.359H46.8606L44.4245 167.95V166.479L46.965 164.818H48.4615Z" fill="black"/>
<path d="M34.1165 202.141V200.818H41.9964V202.141H38.8196V211H37.2884V202.141H34.1165ZM43.5985 211V209.886L47.0439 206.317C47.4118 205.929 47.715 205.589 47.9537 205.298C48.1956 205.003 48.3762 204.723 48.4956 204.457C48.6149 204.192 48.6745 203.911 48.6745 203.612C48.6745 203.274 48.595 202.982 48.4359 202.737C48.2768 202.489 48.0597 202.298 47.7846 202.165C47.5095 202.03 47.1996 201.962 46.8549 201.962C46.4904 201.962 46.1722 202.036 45.9004 202.185C45.6286 202.335 45.4198 202.545 45.274 202.817C45.1281 203.089 45.0552 203.407 45.0552 203.771H43.5886C43.5886 203.152 43.7311 202.61 44.0162 202.146C44.3012 201.682 44.6923 201.322 45.1895 201.067C45.6866 200.808 46.2517 200.679 46.8848 200.679C47.5244 200.679 48.0879 200.807 48.5751 201.062C49.0656 201.314 49.4484 201.658 49.7235 202.096C49.9986 202.53 50.1362 203.021 50.1362 203.567C50.1362 203.945 50.0649 204.315 49.9224 204.676C49.7832 205.037 49.5396 205.44 49.1916 205.884C48.8436 206.325 48.3597 206.86 47.7399 207.49L45.7164 209.608V209.683H50.3002V211H43.5985Z" fill="black"/>
<path d="M34.1165 238.141V236.818H41.9964V238.141H38.8196V247H37.2884V238.141H34.1165ZM43.5985 247V245.886L47.0439 242.317C47.4118 241.929 47.715 241.589 47.9537 241.298C48.1956 241.003 48.3762 240.723 48.4956 240.457C48.6149 240.192 48.6745 239.911 48.6745 239.612C48.6745 239.274 48.595 238.982 48.4359 238.737C48.2768 238.489 48.0597 238.298 47.7846 238.165C47.5095 238.03 47.1996 237.962 46.8549 237.962C46.4904 237.962 46.1722 238.036 45.9004 238.185C45.6286 238.335 45.4198 238.545 45.274 238.817C45.1281 239.089 45.0552 239.407 45.0552 239.771H43.5886C43.5886 239.152 43.7311 238.61 44.0162 238.146C44.3012 237.682 44.6923 237.322 45.1895 237.067C45.6866 236.808 46.2517 236.679 46.8848 236.679C47.5244 236.679 48.0879 236.807 48.5751 237.062C49.0656 237.314 49.4484 237.658 49.7235 238.096C49.9986 238.53 50.1362 239.021 50.1362 239.567C50.1362 239.945 50.0649 240.315 49.9224 240.676C49.7832 241.037 49.5396 241.44 49.1916 241.884C48.8436 242.325 48.3597 242.86 47.7399 243.49L45.7164 245.608V245.683H50.3002V247H43.5985Z" fill="black"/>
<path d="M33.6165 274.141V272.818H41.4964V274.141H38.3196V283H36.7884V274.141H33.6165ZM46.6433 283.139C45.9605 283.139 45.3507 283.022 44.8137 282.786C44.2801 282.551 43.8575 282.224 43.546 281.807C43.2377 281.386 43.072 280.899 43.0488 280.345H44.6099C44.6298 280.647 44.7309 280.909 44.9132 281.131C45.0988 281.349 45.3407 281.518 45.639 281.638C45.9373 281.757 46.2688 281.817 46.6333 281.817C47.0344 281.817 47.389 281.747 47.6973 281.608C48.0088 281.469 48.2524 281.275 48.4281 281.026C48.6038 280.774 48.6916 280.484 48.6916 280.156C48.6916 279.815 48.6038 279.515 48.4281 279.256C48.2557 278.995 48.0022 278.789 47.6674 278.64C47.336 278.491 46.935 278.416 46.4643 278.416H45.6042V277.163H46.4643C46.8422 277.163 47.1736 277.095 47.4586 276.96C47.747 276.824 47.9724 276.635 48.1348 276.393C48.2972 276.147 48.3784 275.861 48.3784 275.533C48.3784 275.218 48.3071 274.944 48.1646 274.712C48.0254 274.477 47.8265 274.293 47.568 274.161C47.3128 274.028 47.0112 273.962 46.6632 273.962C46.3317 273.962 46.0218 274.023 45.7335 274.146C45.4484 274.265 45.2164 274.437 45.0375 274.663C44.8585 274.885 44.7624 275.152 44.7491 275.463H43.2626C43.2792 274.913 43.4416 274.429 43.7498 274.011C44.0614 273.594 44.4724 273.267 44.9828 273.032C45.4932 272.797 46.06 272.679 46.6831 272.679C47.336 272.679 47.8994 272.807 48.3734 273.062C48.8507 273.314 49.2186 273.65 49.4771 274.071C49.7389 274.492 49.8682 274.953 49.8649 275.453C49.8682 276.023 49.7091 276.507 49.3876 276.905C49.0694 277.303 48.6452 277.569 48.1149 277.705V277.785C48.791 277.888 49.3147 278.156 49.6859 278.59C50.0604 279.024 50.246 279.563 50.2427 280.206C50.246 280.766 50.0903 281.268 49.7754 281.712C49.4638 282.156 49.0379 282.506 48.4977 282.761C47.9574 283.013 47.3393 283.139 46.6433 283.139Z" fill="black"/>
<path d="M42.8366 308.818V319H41.4247L36.2493 311.533H36.1548V319H34.6186V308.818H36.0405L41.2209 316.295H41.3153V308.818H42.8366ZM48.8013 308.818V319H47.2601V310.359H47.2005L44.7644 311.95V310.479L47.3049 308.818H48.8013Z" fill="black"/>
<path d="M41.8366 344.818V355H40.4247L35.2493 347.533H35.1548V355H33.6186V344.818H35.0405L40.2209 352.295H40.3153V344.818H41.8366ZM43.9384 355V353.886L47.3837 350.317C47.7516 349.929 48.0549 349.589 48.2935 349.298C48.5355 349.003 48.7161 348.723 48.8354 348.457C48.9547 348.192 49.0144 347.911 49.0144 347.612C49.0144 347.274 48.9348 346.982 48.7757 346.737C48.6167 346.489 48.3996 346.298 48.1245 346.165C47.8494 346.03 47.5395 345.962 47.1948 345.962C46.8302 345.962 46.512 346.036 46.2402 346.185C45.9685 346.335 45.7596 346.545 45.6138 346.817C45.468 347.089 45.3951 347.407 45.3951 347.771H43.9284C43.9284 347.152 44.071 346.61 44.356 346.146C44.641 345.682 45.0321 345.322 45.5293 345.067C46.0265 344.808 46.5916 344.679 47.2246 344.679C47.8643 344.679 48.4277 344.807 48.915 345.062C49.4055 345.314 49.7883 345.658 50.0634 346.096C50.3385 346.53 50.476 347.021 50.476 347.567C50.476 347.945 50.4048 348.315 50.2623 348.676C50.123 349.037 49.8794 349.44 49.5314 349.884C49.1834 350.325 48.6995 350.86 48.0797 351.49L46.0563 353.608V353.683H50.6401V355H43.9384Z" fill="black"/>
</g>
<defs>
<filter id="filter0_d_1044_4206" x="0" y="0" width="85" height="384" filterUnits="userSpaceOnUse" color-interpolation-filters="sRGB">
<feFlood flood-opacity="0" result="BackgroundImageFix"/>
<feColorMatrix in="SourceAlpha" type="matrix" values="0 0 0 0 0 0 0 0 0 0 0 0 0 0 0 0 0 0 127 0" result="hardAlpha"/>
<feOffset dy="4"/>
<feGaussianBlur stdDeviation="2"/>
<feComposite in2="hardAlpha" operator="out"/>
<feColorMatrix type="matrix" values="0 0 0 0 0 0 0 0 0 0 0 0 0 0 0 0 0 0 0.25 0"/>
<feBlend mode="normal" in2="BackgroundImageFix" result="effect1_dropShadow_1044_4206"/>
<feBlend mode="normal" in="SourceGraphic" in2="effect1_dropShadow_1044_4206" result="shape"/>
</filter>
</defs>
</svg>
