<svg width="263" height="96" viewBox="0 0 263 96" fill="none" xmlns="http://www.w3.org/2000/svg">
<g filter="url(#filter0_d_1027_178)">
<rect x="4" width="255" height="88" rx="8" fill="#F6F7F9" shape-rendering="crispEdges"/>
<path d="M21.1186 31V20.8182H24.7479C25.54 20.8182 26.1963 20.9624 26.7166 21.2507C27.237 21.5391 27.6264 21.9335 27.8849 22.4339C28.1435 22.9311 28.2727 23.4912 28.2727 24.1143C28.2727 24.7408 28.1418 25.3042 27.88 25.8047C27.6214 26.3018 27.2304 26.6963 26.7067 26.9879C26.1863 27.2763 25.5317 27.4205 24.7429 27.4205H22.2472V26.1179H24.6037C25.1042 26.1179 25.5102 26.0317 25.8217 25.8594C26.1333 25.6837 26.362 25.4451 26.5078 25.1435C26.6536 24.8419 26.7266 24.4988 26.7266 24.1143C26.7266 23.7299 26.6536 23.3885 26.5078 23.0902C26.362 22.7919 26.1316 22.5582 25.8168 22.3892C25.5052 22.2202 25.0942 22.1357 24.5838 22.1357H22.6548V31H21.1186ZM29.9544 31V23.3636H31.3912V24.5767H31.4707C31.6099 24.1657 31.8552 23.8426 32.2065 23.6072C32.5611 23.3686 32.9622 23.2493 33.4096 23.2493C33.5024 23.2493 33.6118 23.2526 33.7377 23.2592C33.867 23.2659 33.9681 23.2741 34.041 23.2841V24.706C33.9814 24.6894 33.8753 24.6712 33.7228 24.6513C33.5704 24.6281 33.4179 24.6165 33.2654 24.6165C32.9141 24.6165 32.6009 24.6911 32.3258 24.8402C32.054 24.986 31.8386 25.1899 31.6795 25.4517C31.5204 25.7102 31.4409 26.0052 31.4409 26.3366V31H29.9544ZM38.3452 31.1541C37.5928 31.1541 36.9448 30.9934 36.4013 30.6719C35.861 30.3471 35.4434 29.8913 35.1484 29.3047C34.8568 28.7147 34.7109 28.0237 34.7109 27.2315C34.7109 26.4493 34.8568 25.7599 35.1484 25.1634C35.4434 24.5668 35.8544 24.1011 36.3814 23.7663C36.9117 23.4316 37.5315 23.2642 38.2408 23.2642C38.6716 23.2642 39.0893 23.3355 39.4936 23.478C39.898 23.6205 40.2609 23.8442 40.5824 24.1491C40.9039 24.4541 41.1574 24.8501 41.343 25.3374C41.5286 25.8213 41.6214 26.4096 41.6214 27.1023V27.6293H35.5511V26.5156H40.1648C40.1648 26.1245 40.0852 25.7782 39.9261 25.4766C39.767 25.1716 39.5433 24.9313 39.255 24.7557C38.9699 24.58 38.6352 24.4922 38.2507 24.4922C37.8331 24.4922 37.4685 24.5949 37.157 24.8004C36.8487 25.0026 36.6101 25.2678 36.4411 25.5959C36.2753 25.9207 36.1925 26.2737 36.1925 26.6548V27.5249C36.1925 28.0353 36.282 28.4695 36.4609 28.8274C36.6432 29.1854 36.8968 29.4588 37.2216 29.6477C37.5464 29.8333 37.9259 29.9261 38.3601 29.9261C38.6418 29.9261 38.8987 29.8864 39.1307 29.8068C39.3627 29.724 39.5632 29.6013 39.7322 29.4389C39.9013 29.2765 40.0305 29.076 40.12 28.8374L41.527 29.0909C41.4143 29.5052 41.2121 29.8681 40.9205 30.1797C40.6321 30.4879 40.2692 30.7282 39.8317 30.9006C39.3975 31.0696 38.902 31.1541 38.3452 31.1541ZM48.9931 25.228L47.6458 25.4666C47.5894 25.2943 47.4999 25.1302 47.3773 24.9744C47.258 24.8187 47.0956 24.6911 46.8901 24.5916C46.6846 24.4922 46.4277 24.4425 46.1195 24.4425C45.6986 24.4425 45.3472 24.5369 45.0655 24.7259C44.7838 24.9115 44.6429 25.1518 44.6429 25.4467C44.6429 25.7019 44.7374 25.9074 44.9263 26.0632C45.1152 26.219 45.4202 26.3466 45.8411 26.446L47.0542 26.7244C47.7568 26.8868 48.2805 27.1371 48.6252 27.4751C48.9699 27.8132 49.1422 28.2524 49.1422 28.7926C49.1422 29.25 49.0096 29.6577 48.7445 30.0156C48.4827 30.3703 48.1164 30.6487 47.6458 30.8509C47.1784 31.053 46.6365 31.1541 46.0201 31.1541C45.165 31.1541 44.4673 30.9718 43.927 30.6072C43.3868 30.2393 43.0553 29.7173 42.9327 29.0412L44.3695 28.8224C44.459 29.197 44.6429 29.4804 44.9213 29.6726C45.1998 29.8615 45.5627 29.956 46.0101 29.956C46.4973 29.956 46.8868 29.8549 47.1784 29.6527C47.4701 29.4472 47.6159 29.197 47.6159 28.902C47.6159 28.6634 47.5265 28.4628 47.3475 28.3004C47.1718 28.138 46.9017 28.0154 46.5371 27.9325L45.2445 27.6491C44.5319 27.4867 44.0049 27.2282 43.6635 26.8736C43.3255 26.5189 43.1564 26.0698 43.1564 25.5263C43.1564 25.0755 43.2824 24.6811 43.5343 24.343C43.7862 24.005 44.1342 23.7415 44.5783 23.5526C45.0224 23.3603 45.5312 23.2642 46.1046 23.2642C46.9299 23.2642 47.5795 23.4432 48.0534 23.8011C48.5274 24.1558 48.8406 24.6314 48.9931 25.228ZM54.0678 31.1541C53.3155 31.1541 52.6675 30.9934 52.1239 30.6719C51.5837 30.3471 51.1661 29.8913 50.8711 29.3047C50.5794 28.7147 50.4336 28.0237 50.4336 27.2315C50.4336 26.4493 50.5794 25.7599 50.8711 25.1634C51.1661 24.5668 51.5771 24.1011 52.104 23.7663C52.6344 23.4316 53.2541 23.2642 53.9634 23.2642C54.3943 23.2642 54.8119 23.3355 55.2163 23.478C55.6206 23.6205 55.9835 23.8442 56.305 24.1491C56.6265 24.4541 56.8801 24.8501 57.0657 25.3374C57.2513 25.8213 57.3441 26.4096 57.3441 27.1023V27.6293H51.2738V26.5156H55.8874C55.8874 26.1245 55.8079 25.7782 55.6488 25.4766C55.4897 25.1716 55.266 24.9313 54.9776 24.7557C54.6926 24.58 54.3578 24.4922 53.9734 24.4922C53.5558 24.4922 53.1912 24.5949 52.8796 24.8004C52.5714 25.0026 52.3327 25.2678 52.1637 25.5959C51.998 25.9207 51.9151 26.2737 51.9151 26.6548V27.5249C51.9151 28.0353 52.0046 28.4695 52.1836 28.8274C52.3659 29.1854 52.6194 29.4588 52.9442 29.6477C53.2691 29.8333 53.6486 29.9261 54.0827 29.9261C54.3645 29.9261 54.6213 29.8864 54.8533 29.8068C55.0853 29.724 55.2859 29.6013 55.4549 29.4389C55.6239 29.2765 55.7532 29.076 55.8427 28.8374L57.2496 29.0909C57.137 29.5052 56.9348 29.8681 56.6431 30.1797C56.3548 30.4879 55.9918 30.7282 55.5543 30.9006C55.1201 31.0696 54.6246 31.1541 54.0678 31.1541ZM60.4799 26.4659V31H58.9934V23.3636H60.4203V24.6065H60.5147C60.6904 24.2022 60.9655 23.8774 61.34 23.6321C61.7179 23.3868 62.1935 23.2642 62.7669 23.2642C63.2872 23.2642 63.743 23.3736 64.1341 23.5923C64.5252 23.8078 64.8284 24.1293 65.0439 24.5568C65.2593 24.9844 65.367 25.513 65.367 26.1428V31H63.8805V26.3217C63.8805 25.7682 63.7363 25.3357 63.448 25.0241C63.1596 24.7093 62.7636 24.5518 62.2598 24.5518C61.9151 24.5518 61.6085 24.6264 61.34 24.7756C61.0749 24.9247 60.8644 25.1435 60.7086 25.4318C60.5562 25.7169 60.4799 26.0616 60.4799 26.4659ZM70.5772 31.1541C69.8381 31.1541 69.2018 30.9867 68.6681 30.652C68.1378 30.3139 67.7302 29.8482 67.4451 29.255C67.1601 28.6617 67.0176 27.9822 67.0176 27.2166C67.0176 26.4411 67.1634 25.7566 67.4551 25.1634C67.7467 24.5668 68.1577 24.1011 68.688 23.7663C69.2183 23.4316 69.8431 23.2642 70.5623 23.2642C71.1423 23.2642 71.6594 23.3719 72.1135 23.5874C72.5675 23.7995 72.9338 24.0978 73.2122 24.4822C73.4939 24.8667 73.6613 25.3158 73.7143 25.8295H72.2676C72.188 25.4716 72.0057 25.1634 71.7207 24.9048C71.439 24.6463 71.0611 24.517 70.5872 24.517C70.1729 24.517 69.81 24.6264 69.4984 24.8452C69.1902 25.0606 68.9499 25.3688 68.7775 25.7699C68.6052 26.1676 68.519 26.6383 68.519 27.1818C68.519 27.7386 68.6035 28.2192 68.7725 28.6236C68.9416 29.0279 69.1802 29.3411 69.4885 29.5632C69.8 29.7853 70.1663 29.8963 70.5872 29.8963C70.8689 29.8963 71.1241 29.8449 71.3528 29.7422C71.5848 29.6361 71.7787 29.4853 71.9345 29.2898C72.0936 29.0942 72.2046 28.8589 72.2676 28.5838H73.7143C73.6613 29.0777 73.5005 29.5185 73.2321 29.9062C72.9636 30.294 72.604 30.599 72.1532 30.821C71.7058 31.0431 71.1805 31.1541 70.5772 31.1541ZM75.304 31V23.3636H76.7905V31H75.304ZM76.0547 22.1854C75.7962 22.1854 75.5741 22.0992 75.3885 21.9268C75.2062 21.7512 75.1151 21.5424 75.1151 21.3004C75.1151 21.0552 75.2062 20.8464 75.3885 20.674C75.5741 20.4983 75.7962 20.4105 76.0547 20.4105C76.3132 20.4105 76.5336 20.4983 76.7159 20.674C76.9015 20.8464 76.9943 21.0552 76.9943 21.3004C76.9943 21.5424 76.9015 21.7512 76.7159 21.9268C76.5336 22.0992 76.3132 22.1854 76.0547 22.1854ZM81.0126 31.169C80.5287 31.169 80.0912 31.0795 79.7001 30.9006C79.309 30.7183 78.9991 30.4548 78.7704 30.1101C78.545 29.7654 78.4324 29.3428 78.4324 28.8423C78.4324 28.4115 78.5152 28.0568 78.6809 27.7784C78.8467 27.5 79.0704 27.2796 79.3521 27.1172C79.6338 26.9548 79.9487 26.8321 80.2967 26.7493C80.6447 26.6664 80.9993 26.6035 81.3606 26.5604C81.818 26.5073 82.1892 26.4643 82.4743 26.4311C82.7593 26.3946 82.9664 26.3366 83.0957 26.2571C83.225 26.1776 83.2896 26.0483 83.2896 25.8693V25.8345C83.2896 25.4003 83.167 25.0639 82.9217 24.8253C82.6797 24.5866 82.3185 24.4673 81.8379 24.4673C81.3374 24.4673 80.943 24.5784 80.6547 24.8004C80.3696 25.0192 80.1724 25.2628 80.063 25.5312L78.666 25.2131C78.8317 24.7491 79.0737 24.3745 79.3919 24.0895C79.7134 23.8011 80.0829 23.5923 80.5005 23.4631C80.9181 23.3305 81.3573 23.2642 81.818 23.2642C82.1229 23.2642 82.4461 23.3007 82.7875 23.3736C83.1322 23.4432 83.4537 23.5724 83.752 23.7614C84.0536 23.9503 84.3005 24.2204 84.4927 24.5717C84.685 24.9197 84.7811 25.3722 84.7811 25.929V31H83.3294V29.956H83.2697C83.1736 30.1482 83.0294 30.3371 82.8372 30.5227C82.6449 30.7083 82.398 30.8625 82.0964 30.9851C81.7948 31.1077 81.4335 31.169 81.0126 31.169ZM81.3358 29.9759C81.7467 29.9759 82.0981 29.8946 82.3897 29.7322C82.6847 29.5698 82.9084 29.3577 83.0609 29.0959C83.2167 28.8307 83.2946 28.5473 83.2946 28.2457V27.2614C83.2415 27.3144 83.1388 27.3641 82.9863 27.4105C82.8372 27.4536 82.6665 27.4917 82.4743 27.5249C82.282 27.5547 82.0948 27.5829 81.9125 27.6094C81.7302 27.6326 81.5777 27.6525 81.4551 27.669C81.1667 27.7055 80.9032 27.7668 80.6646 27.853C80.4293 27.9392 80.2404 28.0634 80.0978 28.2259C79.9586 28.3849 79.889 28.5971 79.889 28.8622C79.889 29.2301 80.0249 29.5085 80.2967 29.6974C80.5685 29.883 80.9148 29.9759 81.3358 29.9759ZM88.2475 20.8182V31H86.761V20.8182H88.2475Z" fill="black"/>
<path d="M29.9631 61.9091C29.9631 62.9962 29.7642 63.9309 29.3665 64.7131C28.9688 65.492 28.4235 66.0919 27.7308 66.5128C27.0414 66.9304 26.2576 67.1392 25.3793 67.1392C24.4976 67.1392 23.7105 66.9304 23.0178 66.5128C22.3284 66.0919 21.7848 65.4903 21.3871 64.7081C20.9893 63.9259 20.7905 62.9929 20.7905 61.9091C20.7905 60.822 20.9893 59.889 21.3871 59.1101C21.7848 58.3279 22.3284 57.728 23.0178 57.3104C23.7105 56.8894 24.4976 56.679 25.3793 56.679C26.2576 56.679 27.0414 56.8894 27.7308 57.3104C28.4235 57.728 28.9688 58.3279 29.3665 59.1101C29.7642 59.889 29.9631 60.822 29.9631 61.9091ZM28.4418 61.9091C28.4418 61.0805 28.3075 60.3828 28.0391 59.8161C27.7739 59.246 27.4093 58.8151 26.9453 58.5234C26.4846 58.2285 25.9626 58.081 25.3793 58.081C24.7926 58.081 24.2689 58.2285 23.8082 58.5234C23.3475 58.8151 22.983 59.246 22.7145 59.8161C22.4493 60.3828 22.3168 61.0805 22.3168 61.9091C22.3168 62.7377 22.4493 63.437 22.7145 64.0071C22.983 64.5739 23.3475 65.0047 23.8082 65.2997C24.2689 65.5914 24.7926 65.7372 25.3793 65.7372C25.9626 65.7372 26.4846 65.5914 26.9453 65.2997C27.4093 65.0047 27.7739 64.5739 28.0391 64.0071C28.3075 63.437 28.4418 62.7377 28.4418 61.9091ZM33.2456 62.4659V67H31.7591V59.3636H33.1859V60.6065H33.2804C33.456 60.2022 33.7311 59.8774 34.1056 59.6321C34.4835 59.3868 34.9591 59.2642 35.5325 59.2642C36.0529 59.2642 36.5086 59.3736 36.8997 59.5923C37.2908 59.8078 37.594 60.1293 37.8095 60.5568C38.0249 60.9844 38.1326 61.513 38.1326 62.1428V67H36.6461V62.3217C36.6461 61.7682 36.502 61.3357 36.2136 61.0241C35.9252 60.7093 35.5292 60.5518 35.0254 60.5518C34.6807 60.5518 34.3741 60.6264 34.1056 60.7756C33.8405 60.9247 33.63 61.1435 33.4743 61.4318C33.3218 61.7169 33.2456 62.0616 33.2456 62.4659ZM41.6127 56.8182V67H40.1262V56.8182H41.6127ZM43.6126 67V59.3636H45.0991V67H43.6126ZM44.3633 58.1854C44.1048 58.1854 43.8827 58.0992 43.6971 57.9268C43.5148 57.7512 43.4237 57.5424 43.4237 57.3004C43.4237 57.0552 43.5148 56.8464 43.6971 56.674C43.8827 56.4983 44.1048 56.4105 44.3633 56.4105C44.6218 56.4105 44.8422 56.4983 45.0245 56.674C45.2101 56.8464 45.3029 57.0552 45.3029 57.3004C45.3029 57.5424 45.2101 57.7512 45.0245 57.9268C44.8422 58.0992 44.6218 58.1854 44.3633 58.1854ZM48.5854 62.4659V67H47.0989V59.3636H48.5257V60.6065H48.6202C48.7959 60.2022 49.071 59.8774 49.4455 59.6321C49.8233 59.3868 50.2989 59.2642 50.8723 59.2642C51.3927 59.2642 51.8484 59.3736 52.2395 59.5923C52.6306 59.8078 52.9339 60.1293 53.1493 60.5568C53.3648 60.9844 53.4725 61.513 53.4725 62.1428V67H51.986V62.3217C51.986 61.7682 51.8418 61.3357 51.5534 61.0241C51.2651 60.7093 50.869 60.5518 50.3652 60.5518C50.0205 60.5518 49.714 60.6264 49.4455 60.7756C49.1803 60.9247 48.9699 61.1435 48.8141 61.4318C48.6616 61.7169 48.5854 62.0616 48.5854 62.4659ZM58.7573 67.1541C58.0049 67.1541 57.3569 66.9934 56.8134 66.6719C56.2731 66.3471 55.8555 65.8913 55.5605 65.3047C55.2689 64.7147 55.123 64.0237 55.123 63.2315C55.123 62.4493 55.2689 61.7599 55.5605 61.1634C55.8555 60.5668 56.2665 60.1011 56.7935 59.7663C57.3238 59.4316 57.9436 59.2642 58.6529 59.2642C59.0837 59.2642 59.5014 59.3355 59.9057 59.478C60.3101 59.6205 60.673 59.8442 60.9945 60.1491C61.316 60.4541 61.5695 60.8501 61.7551 61.3374C61.9408 61.8213 62.0336 62.4096 62.0336 63.1023V63.6293H55.9632V62.5156H60.5769C60.5769 62.1245 60.4973 61.7782 60.3382 61.4766C60.1792 61.1716 59.9554 60.9313 59.6671 60.7557C59.382 60.58 59.0473 60.4922 58.6628 60.4922C58.2452 60.4922 57.8806 60.5949 57.5691 60.8004C57.2608 61.0026 57.0222 61.2678 56.8532 61.5959C56.6874 61.9207 56.6046 62.2737 56.6046 62.6548V63.5249C56.6046 64.0353 56.6941 64.4695 56.873 64.8274C57.0553 65.1854 57.3089 65.4588 57.6337 65.6477C57.9585 65.8333 58.338 65.9261 58.7722 65.9261C59.0539 65.9261 59.3108 65.8864 59.5428 65.8068C59.7748 65.724 59.9753 65.6013 60.1444 65.4389C60.3134 65.2765 60.4426 65.076 60.5321 64.8374L61.9391 65.0909C61.8264 65.5052 61.6242 65.8681 61.3326 66.1797C61.0442 66.4879 60.6813 66.7282 60.2438 66.9006C59.8096 67.0696 59.3141 67.1541 58.7573 67.1541Z" fill="black"/>
</g>
<defs>
<filter id="filter0_d_1027_178" x="0" y="0" width="263" height="96" filterUnits="userSpaceOnUse" color-interpolation-filters="sRGB">
<feFlood flood-opacity="0" result="BackgroundImageFix"/>
<feColorMatrix in="SourceAlpha" type="matrix" values="0 0 0 0 0 0 0 0 0 0 0 0 0 0 0 0 0 0 127 0" result="hardAlpha"/>
<feOffset dy="4"/>
<feGaussianBlur stdDeviation="2"/>
<feComposite in2="hardAlpha" operator="out"/>
<feColorMatrix type="matrix" values="0 0 0 0 0 0 0 0 0 0 0 0 0 0 0 0 0 0 0.25 0"/>
<feBlend mode="normal" in2="BackgroundImageFix" result="effect1_dropShadow_1027_178"/>
<feBlend mode="normal" in="SourceGraphic" in2="effect1_dropShadow_1027_178" result="shape"/>
</filter>
</defs>
</svg>
