<svg width="195" height="118" viewBox="0 0 195 118" fill="none" xmlns="http://www.w3.org/2000/svg">
<path d="M166.745 1.57458C168.083 1.44495 170.668 1.51394 172.095 1.51297C175.625 1.52124 179.155 1.51006 182.685 1.47946C185.104 1.43561 187.524 1.36847 189.942 1.27804C190.526 1.2578 192.886 1.13695 193.364 1.20908C193.581 1.49161 193.518 1.81579 193.511 2.19556C191.379 2.11664 189.283 2.15147 187.136 2.02174C185.247 1.90768 183.208 1.64837 181.343 1.63775L171.956 1.64236C170.422 1.6441 168.203 1.70656 166.745 1.57458Z" fill="white"/>
<path d="M166.745 1.57458C168.083 1.44495 170.668 1.51394 172.095 1.51297C175.625 1.52124 179.155 1.51006 182.685 1.47946C185.104 1.43561 187.524 1.36847 189.942 1.27804C190.526 1.2578 192.886 1.13695 193.364 1.20908C193.581 1.49161 193.518 1.81579 193.511 2.19556L193.507 11.6161L163.264 11.6468C163.223 16.888 163.216 22.1294 163.242 27.3706C172.683 27.5393 182.485 27.3993 191.958 27.4028L191.918 36.8495L163.271 36.8498C163.217 42.6466 163.208 48.4436 163.247 54.2406L194.943 54.2439L194.942 64.1691L157.252 64.2014C155.738 64.2012 153.259 64.2612 151.835 64.1193L151.85 1.58714L166.745 1.57458Z" fill="white"/>
<path d="M121.774 0.0605811C129.072 -0.439742 135.519 2.19354 141.138 6.67892C138.483 9.92913 136.905 11.8712 133.902 14.8752C130.58 11.7195 126.277 9.41303 121.548 9.70196C116.978 9.9812 112.041 12.0358 111.604 17.2265C111.131 22.557 115.282 24.6412 119.625 26.2204C127.774 29.1828 138.764 31.202 140.975 41.1911C142.504 48.091 140.639 56.3291 134.991 60.8974C129.79 65.1044 121.702 66.222 115.155 65.5511C109.469 65.2472 100.297 61.8673 97.3221 56.7688C98.364 55.436 99.8 54.2476 101.048 53.099L105.218 49.227C108.624 53.3665 114.011 56.4118 119.55 56.1309C122.354 55.9887 126.018 55.0186 127.938 52.8069C129.502 51.0076 130.184 48.7485 130.042 46.3551C129.409 39.2669 119.776 38.0206 114.519 36.0411C111.617 34.9482 107.373 33.0803 105.17 31.0786C102.163 28.3465 100.293 24.8619 99.9938 20.7974C99.571 15.0574 100.408 11.6229 104.162 7.12426C106.685 4.10141 111.684 1.76789 115.462 0.808371C117.265 0.350504 119.869 0.182401 121.774 0.0605811Z" fill="white"/>
<path d="M77.7869 1.47493C81.3239 1.39841 85.2437 1.60411 88.8636 1.59665L88.8683 64.1619C85.3407 64.2517 81.2838 64.2234 77.7618 64.1623C77.5429 47.7187 77.8978 31.1975 77.7447 14.7476C77.7039 10.3652 77.6844 5.85367 77.7869 1.47493Z" fill="white"/>
<path d="M0.0280843 1.56005C4.54452 1.64183 9.29287 1.56736 13.8252 1.55866L29.068 1.592L29.0961 26.6903C28.3632 27.1672 27.6565 27.7768 26.9778 28.3354C26.1722 29.1044 25.7854 29.5238 25.0955 30.3947C22.147 30.6369 18.3647 30.5433 15.3579 30.542L0.0283386 30.5291L0.0280843 1.56005Z" fill="white"/>
<path d="M32.2152 1.58171L61.2456 1.5706C61.3552 11.1729 61.2323 20.8997 61.2596 30.5125L44.7148 30.5508C42.7482 30.5518 37.8522 30.6676 36.2118 30.3601C35.1671 28.6789 33.9169 27.7186 32.2027 26.7609L32.2152 1.58171Z" fill="white"/>
<path d="M36.2671 33.7062C39.1031 33.5795 42.4619 33.6625 45.3511 33.6617L61.1332 33.6929C60.8189 35.8611 60.4363 38.3559 59.735 40.472C58.2631 44.9134 55.6788 49.7163 52.7814 53.389C51.8132 54.616 49.7955 56.4305 48.6508 57.4989C43.9334 61.8678 38.5136 64.6059 32.1595 65.6903C32.2922 63.3391 32.2109 60.408 32.2086 58.0105L32.1981 44.6169C32.1973 42.4847 32.1411 39.8641 32.2755 37.7683C33.2663 37.111 34.1348 36.5023 34.9955 35.6681C35.6431 35.0403 35.8289 33.9876 36.2671 33.7062Z" fill="white"/>
<path d="M0.296451 33.6803C8.27069 33.6525 17.0656 33.504 25.0007 33.7083C26.0218 35.3662 27.4139 36.7645 29.0675 37.7927L29.0533 65.7635C20.5149 63.9999 13.4568 59.4338 7.99523 52.6682C4.23383 48.0088 0.642512 39.7207 0.296451 33.6803Z" fill="white"/>
<path d="M0 78.9977L185.919 78.9675C188.811 78.9676 192.09 78.8926 194.949 79.0276L194.935 81.366C189.75 81.2957 184.277 81.3871 179.075 81.3875L0.0647366 81.3687L0 78.9977Z" fill="white"/>
<path d="M75.9625 98.9771C79.0768 98.533 80.8068 100.71 81.6246 103.44C82.1733 105.272 82.0943 107.187 82.0914 109.082C79.5159 108.898 75.6613 109.052 73.0035 109.086C73.2195 111.414 74.011 116.222 77.7584 114.115C78.4652 113.717 78.8903 113.076 79.2935 112.385L80.6275 112.991C80.8913 113.185 81.3122 113.469 81.3414 113.791C81.4884 115.427 78.9586 117.304 77.5904 117.519C76.0645 117.816 74.4346 117.569 73.1129 116.671C68.8645 113.787 69.2436 105.261 71.5894 101.336C72.5412 99.7431 74.236 99.2912 75.9625 98.9771ZM29.0504 116.994C27.9863 116.991 26.9221 116.967 25.859 116.922L26.3209 114.823C24.9496 115.936 23.4092 117.658 21.5435 117.58C16.6312 117.373 16.9792 110.661 16.9605 107.287L16.9469 99.3971C18.0636 99.3707 19.224 99.3978 20.3443 99.4088C20.3977 101.87 19.9862 112.301 20.8502 113.769C21.1877 114.342 21.9137 114.461 22.5064 114.611C22.8842 114.531 23.5572 114.394 23.8521 114.193C27.0227 112.03 25.0533 102.658 25.732 99.5592C25.9557 99.3296 26.2457 99.3885 26.648 99.3541C27.4808 99.3456 28.2062 99.396 29.065 99.3541L29.0504 116.994ZM101.228 98.9781C102.713 98.8261 104.272 98.9587 105.56 99.7564C107.211 100.779 106.022 101.846 105.333 102.925C103.662 102.126 99.9133 100.308 99.9547 104.328C99.9707 105.878 103.295 106.61 104.513 107.645C107.543 110.221 107.099 115.687 103.176 117.176C102.506 117.432 101.855 117.489 101.131 117.577C101.024 117.58 100.917 117.581 100.809 117.582C98.7045 117.587 97.5177 116.511 96.1197 115.129C96.67 114.456 97.2278 113.788 97.7935 113.128C99.348 114.486 102.048 115.825 103.258 113.146C103.507 112.595 103.437 111.784 103.421 111.171C101.658 108.906 97.7006 108.794 97.0767 105.596C96.8131 104.245 97.0078 102.001 97.7926 100.829C98.6247 99.5862 99.8412 99.2278 101.228 98.9781ZM37.482 98.9654C39.6269 98.7002 41.1816 99.261 42.6285 100.842C42.3072 101.46 41.7219 102.314 41.3267 102.922C39.6323 102.174 36.1489 100.273 36.1305 104.263C36.1232 105.895 39.293 106.678 40.4019 107.742C41.4783 108.638 42.5074 109.934 42.5846 111.421C42.7765 115.121 40.5136 117.3 36.9742 117.58C34.539 117.332 33.6864 116.678 31.8805 115.098C32.538 114.44 33.2046 113.79 33.8785 113.149C35.0663 114.087 37.3557 115.379 38.7379 114.004C39.4516 113.294 39.3802 112.222 39.3629 111.281C38.4661 109.947 36.579 109.028 35.0767 108.218C32.3735 106.76 32.4323 103.366 33.692 100.95C34.3469 99.6935 36.1153 99.2525 37.482 98.9654ZM136.467 98.9713C138.023 98.7879 139.767 99.3497 141.177 99.9459C140.796 100.888 140.404 101.825 140.001 102.758C133.781 99.5856 133.887 107.892 134.682 111.663C135.385 114.99 137.687 114.591 140.294 113.827C140.45 114.219 140.676 114.645 140.868 115.027C141.269 116.487 139.943 117.215 138.7 117.439C130.066 118.997 129.521 106.719 132.358 101.567C133.243 99.9601 134.783 99.3324 136.467 98.9713ZM165.621 98.9869C165.953 98.9524 166.264 99.0016 166.592 99.0348C171.196 99.5508 172.144 104.378 172.145 108.161C172.149 112.77 171.346 116.138 166.368 117.517C162.925 117.948 160.187 114.664 159.896 111.444C159.604 108.225 159.348 103.946 161.377 101.159C162.521 99.5882 163.825 99.2098 165.621 98.9869ZM89.5094 98.9781C91.4508 98.7145 93.445 99.1239 94.609 100.819C94.3596 101.679 93.948 102.258 93.4449 102.971C92.3924 102.504 90.8997 101.732 89.7467 101.757C88.6427 101.791 87.9195 103.258 88.0738 104.25C88.3931 106.301 91.4569 106.626 92.7887 107.792C94.9231 109.641 95.2557 113.581 93.4029 115.731C92.235 117.087 90.8232 117.389 89.1412 117.522C86.9576 117.674 85.6165 116.451 84.1002 115.093L85.9508 113.153C87.978 115.096 91.5244 115.616 91.3023 111.584C91.2052 109.82 87.0002 108.688 85.9527 107.294C84.9783 105.996 84.996 104.77 85.1627 103.181C85.4319 100.329 86.892 99.4443 89.5094 98.9781ZM122.413 91.7096C124.753 91.4988 126.595 92.9164 128.306 94.317C127.703 94.9089 126.886 95.9046 126.399 96.5924C124.534 95.1044 122.091 94.2369 120.045 96.1891C119.463 96.7733 119.238 97.9447 119.329 98.734C119.984 104.357 128.262 103.533 128.118 110.073C128.072 112.173 128.145 113.538 126.512 115.215C124.901 116.874 123.073 117.465 120.826 117.534C118.56 117.406 116.658 116.291 114.942 114.888C115.667 113.782 116.09 113.267 116.943 112.268C118.876 113.921 122.657 115.714 124.197 112.952C126.262 109.248 122.596 106.622 119.794 105.18C118.025 104.271 116.537 102.511 116.127 100.653C115.036 95.7064 117.732 92.6532 122.413 91.7096ZM181.355 98.983C188.611 98.8688 189.177 109.671 186.628 114.425C185.691 116.173 183.848 117.039 181.989 117.486C178.335 117.806 175.608 114.106 175.194 110.801C174.832 107.539 175.041 103.962 177.062 101.23C178.26 99.6097 179.49 99.22 181.355 98.983ZM3.14315 92.4859C8.93061 91.9915 14.1492 93.7971 12.3648 100.813C12.0502 102.05 11.1015 103.235 10.2223 104.25C10.3949 104.324 10.5639 104.407 10.7281 104.498C13.7679 106.172 14.2722 111.16 12.6842 114.001C9.67385 117.761 4.40566 117.097 0.0259638 116.999C-0.0119971 108.84 -0.0067995 100.681 0.0415888 92.5221C0.848061 92.5004 2.35327 92.5535 3.14315 92.4859ZM191.717 90.6051C192.787 90.6362 193.857 90.645 194.927 90.6324C194.673 99.2027 195.207 108.348 194.868 116.976C194.023 117.04 192.597 117.013 191.706 117.026C191.65 108.323 191.599 99.2973 191.717 90.6051ZM61.3424 98.9342C62.3525 98.9144 63.6202 99.0997 64.3658 99.8473C66.8056 102.294 66.1092 113.365 66.0758 117L63.0074 117.024C62.9377 113.033 63.1835 108.661 62.8111 104.69C62.5447 101.851 60.5404 100.816 58.3473 103.186C56.6367 105.908 57.1644 113.479 57.1383 116.98L54.2828 117.005C54.1909 110.983 54.3384 105.445 54.0182 99.3834C55.0326 99.4336 56.1726 99.4304 57.1978 99.4508C57.1086 100.277 57.0098 101.103 56.901 101.927L57.1666 101.417C58.0168 99.7616 59.1454 99.4879 60.7916 98.9605C60.9749 98.9471 61.1587 98.9384 61.3424 98.9342ZM49.1353 99.3326C49.1771 105.077 49.2517 111.275 49.1041 116.996L46.0484 117.016C46.0157 111.126 46.0147 105.236 46.0455 99.3463C47.052 99.362 48.138 99.4009 49.1353 99.3326ZM143.945 90.6148C144.951 90.6412 145.957 90.6448 146.962 90.6256C146.993 94.0638 147.165 98.6486 146.848 101.989C147.207 101.254 147.544 100.595 148.13 100.007C148.896 99.24 149.814 98.9224 150.885 98.9225C152.042 98.9226 153.359 99.1949 154.2 100.049C156.342 102.229 155.722 113.479 155.712 116.975C154.688 116.998 153.627 116.985 152.599 116.985C152.54 113.992 152.585 110.844 152.583 107.838C152.58 105.936 152.947 101.845 150.142 101.904C146.536 101.979 146.989 107.849 146.989 110.289C147.001 112.524 146.989 114.76 146.952 116.996L143.885 117.008L143.865 100.769C143.864 97.5816 143.775 93.7618 143.945 90.6148ZM183.513 103.29C182.726 102.143 182.055 101.911 180.753 101.98C178.067 103.373 178.091 110.653 179.346 113.075C180.073 114.478 180.991 114.665 182.405 114.383C185.232 112.438 185.366 105.991 183.513 103.29ZM164.922 101.976C163.26 103.301 162.835 105.599 162.813 107.616C162.784 110.365 162.695 115.204 166.756 114.379C168.907 113.024 169.095 110.118 169.021 107.811C168.935 105.057 168.383 101.743 164.922 101.976ZM3.44003 105.621C3.41623 108.353 3.33646 111.357 3.4205 114.074C5.81287 114.135 7.13241 114.329 9.191 112.9C9.98417 112.094 10.3065 111.412 10.2808 110.261C10.1775 105.636 6.96546 105.581 3.44003 105.621ZM76.1978 101.888C73.8476 102.256 73.2503 104.444 73.0426 106.497C73.9761 106.536 74.9488 106.591 75.8795 106.579C76.9096 106.574 78.0186 106.591 79.0416 106.556C78.9333 105.209 78.7239 103.23 77.6324 102.297C77.1553 101.89 76.8135 101.922 76.1978 101.888ZM3.49081 95.1685C3.41593 97.6156 3.35004 100.454 3.4078 102.91C5.35564 102.918 6.85211 103.049 8.39022 101.698C8.90474 101.122 9.31408 100.602 9.4537 99.8258C10.2409 95.4438 6.5653 95.2858 3.49081 95.1685ZM47.7047 92.3756C48.4617 92.5829 49.1525 93.1872 49.3726 93.9527C49.523 94.4859 49.4463 95.0581 49.1607 95.5328C48.793 96.1469 48.3865 96.2428 47.7262 96.4156C46.2074 96.3543 46.1495 95.6874 45.8062 94.4166C45.9416 94.0044 46.176 93.5458 46.3658 93.148C46.8111 92.8279 47.2227 92.626 47.7047 92.3756Z" fill="white"/>
</svg>
