<svg width="62" height="65" viewBox="0 0 62 65" fill="none" xmlns="http://www.w3.org/2000/svg">
<path d="M0 0.00139228C4.51643 0.083179 9.26478 0.00870664 13.7971 0L29.0399 0.033349L29.068 25.1317C28.3351 25.6085 27.6284 26.2181 26.9497 26.7767C26.1442 27.5458 25.7573 27.9651 25.0674 28.836C22.1189 29.0782 18.3366 28.9846 15.3298 28.9833L0.000254296 28.9705L0 0.00139228Z" fill="white"/>
<path d="M32.1871 0.0230565L61.2175 0.01194C61.3271 9.61423 61.2042 19.3411 61.2316 28.9539L44.6868 28.9921C42.7201 28.9931 37.8241 29.109 36.1837 28.8014C35.139 27.1203 33.8888 26.16 32.1746 25.2023L32.1871 0.0230565Z" fill="white"/>
<path d="M36.239 32.1476C39.075 32.0208 42.4338 32.1039 45.323 32.103L61.1051 32.1343C60.7908 34.3025 60.4082 36.7972 59.7069 38.9133C58.235 43.3547 55.6507 48.1576 52.7533 51.8303C51.7852 53.0573 49.7674 54.8718 48.6227 55.9402C43.9053 60.3092 38.4856 63.0472 32.1314 64.1316C32.2641 61.7804 32.1829 58.8494 32.1806 56.4518L32.17 43.0583C32.1692 40.926 32.113 38.3055 32.2474 36.2097C33.2382 35.5524 34.1067 34.9436 34.9674 34.1094C35.615 33.4817 35.8008 32.4289 36.239 32.1476Z" fill="white"/>
<path d="M0.268366 32.1217C8.24261 32.0938 17.0376 31.9454 24.9726 32.1497C25.9938 33.8075 27.3859 35.2058 29.0394 36.234L29.0252 64.2049C20.4868 62.4413 13.4287 57.8752 7.96714 51.1095C4.20574 46.4501 0.614428 38.1621 0.268366 32.1217Z" fill="white"/>
</svg>
