<svg width="195" height="118" viewBox="0 0 195 118" fill="none" xmlns="http://www.w3.org/2000/svg">
<g clip-path="url(#clip0_1572_876)">
<path d="M166.745 1.57377C168.083 1.44414 170.668 1.51313 172.095 1.51216C175.625 1.52043 179.155 1.50925 182.685 1.47865C185.104 1.4348 187.524 1.36766 189.942 1.27723C190.526 1.25699 192.886 1.13614 193.364 1.20827C193.581 1.4908 193.518 1.81498 193.511 2.19475C191.379 2.11583 189.283 2.15066 187.136 2.02093C185.247 1.90687 183.208 1.64756 181.343 1.63694L171.956 1.64155C170.422 1.64329 168.203 1.70575 166.745 1.57377Z" fill="#013561"/>
<path d="M166.745 1.57377C168.083 1.44414 170.668 1.51313 172.095 1.51216C175.625 1.52043 179.155 1.50925 182.685 1.47865C185.104 1.4348 187.524 1.36766 189.942 1.27723C190.526 1.25699 192.886 1.13614 193.364 1.20827C193.581 1.4908 193.518 1.81498 193.511 2.19475L193.507 11.6153L163.264 11.646C163.223 16.8872 163.216 22.1286 163.242 27.3698C172.683 27.5385 182.485 27.3985 191.958 27.402L191.918 36.8487L163.271 36.849C163.217 42.6458 163.208 48.4428 163.247 54.2398L194.943 54.2431L194.942 64.1683L157.252 64.2006C155.738 64.2004 153.259 64.2604 151.835 64.1185L151.85 1.58633L166.745 1.57377Z" fill="#013561"/>
<path d="M121.774 0.0605811C129.072 -0.439742 135.519 2.19354 141.138 6.67892C138.483 9.92913 136.905 11.8712 133.902 14.8752C130.58 11.7195 126.277 9.41303 121.548 9.70196C116.978 9.9812 112.041 12.0358 111.604 17.2265C111.131 22.557 115.282 24.6412 119.625 26.2204C127.774 29.1828 138.764 31.202 140.975 41.1911C142.504 48.091 140.639 56.3291 134.991 60.8974C129.79 65.1044 121.702 66.222 115.155 65.5511C109.469 65.2472 100.297 61.8673 97.3223 56.7688C98.3642 55.436 99.8002 54.2476 101.048 53.099L105.218 49.227C108.624 53.3665 114.011 56.4118 119.55 56.1309C122.354 55.9887 126.018 55.0186 127.938 52.8069C129.502 51.0076 130.184 48.7485 130.042 46.3551C129.409 39.2669 119.776 38.0206 114.519 36.0411C111.617 34.9482 107.373 33.0803 105.17 31.0786C102.163 28.3465 100.293 24.8619 99.994 20.7974C99.5712 15.0574 100.408 11.6229 104.162 7.12426C106.685 4.10141 111.684 1.76789 115.462 0.808371C117.265 0.350504 119.869 0.182401 121.774 0.0605811Z" fill="#013561"/>
<path d="M77.7871 1.47412C81.3241 1.3976 85.2439 1.6033 88.8638 1.59584L88.8685 64.1611C85.3409 64.2509 81.284 64.2226 77.762 64.1615C77.5431 47.7179 77.898 31.1967 77.7449 14.7468C77.7041 10.3644 77.6846 5.85286 77.7871 1.47412Z" fill="#013561"/>
<path d="M0.0283203 1.55998C4.54476 1.64176 9.29311 1.56729 13.8254 1.55859L29.0682 1.59193L29.0963 26.6902C28.3634 27.1671 27.6567 27.7767 26.978 28.3353C26.1724 29.1043 25.7856 29.5237 25.0957 30.3946C22.1472 30.6368 18.3649 30.5432 15.3581 30.5419L0.0285746 30.529L0.0283203 1.55998Z" fill="#013561"/>
<path d="M32.2151 1.58142L61.2455 1.57031C61.3551 11.1726 61.2322 20.8994 61.2595 30.5122L44.7147 30.5505C42.7481 30.5515 37.8521 30.6673 36.2117 30.3598C35.167 28.6786 33.9168 27.7183 32.2026 26.7606L32.2151 1.58142Z" fill="#013561"/>
<path d="M36.2673 33.7052C39.1033 33.5785 42.4621 33.6615 45.3513 33.6607L61.1334 33.6919C60.8191 35.8601 60.4365 38.3549 59.7352 40.471C58.2633 44.9124 55.679 49.7153 52.7816 53.388C51.8134 54.615 49.7957 56.4295 48.651 57.4979C43.9336 61.8668 38.5138 64.6049 32.1597 65.6893C32.2924 63.3381 32.2111 60.407 32.2088 58.0095L32.1983 44.6159C32.1975 42.4837 32.1413 39.8631 32.2757 37.7673C33.2665 37.11 34.135 36.5013 34.9957 35.6671C35.6433 35.0393 35.8291 33.9866 36.2673 33.7052Z" fill="#013561"/>
<path d="M0.296387 33.6797C8.27063 33.6519 17.0655 33.5034 25.0006 33.7077C26.0217 35.3656 27.4138 36.7639 29.0674 37.7921L29.0532 65.7629C20.5148 63.9993 13.4567 59.4332 7.99517 52.6676C4.23377 48.0082 0.642448 39.7201 0.296387 33.6797Z" fill="#013561"/>
<path d="M0 78.9982L185.919 78.9679C188.811 78.968 192.09 78.8931 194.949 79.0281L194.935 81.3664C189.75 81.2961 184.277 81.3875 179.075 81.3879L0.0647366 81.3691L0 78.9982Z" fill="#013561"/>
<path d="M75.9626 98.9775C79.0769 98.5334 80.8069 100.71 81.6247 103.44C82.1734 105.272 82.0944 107.187 82.0915 109.082C79.516 108.898 75.6614 109.052 73.0036 109.086C73.2196 111.414 74.0111 116.222 77.7585 114.115C78.4653 113.717 78.8904 113.076 79.2936 112.385L80.6276 112.991C80.8914 113.185 81.3123 113.469 81.3415 113.791C81.4885 115.427 78.9587 117.304 77.5905 117.519C76.0646 117.816 74.4347 117.569 73.113 116.671C68.8646 113.787 69.2437 105.261 71.5895 101.336C72.5413 99.7435 74.2361 99.2916 75.9626 98.9775ZM29.0505 116.994C27.9864 116.991 26.9222 116.967 25.8591 116.922L26.321 114.823C24.9497 115.936 23.4093 117.658 21.5436 117.58C16.6313 117.373 16.9793 110.661 16.9606 107.287L16.947 99.3975C18.0637 99.3711 19.2241 99.3982 20.3444 99.4092C20.3978 101.87 19.9863 112.301 20.8503 113.769C21.1878 114.342 21.9138 114.461 22.5065 114.611C22.8843 114.531 23.5573 114.394 23.8522 114.193C27.0228 112.03 25.0534 102.658 25.7321 99.5596C25.9558 99.33 26.2458 99.3889 26.6481 99.3545C27.4809 99.346 28.2063 99.3964 29.0651 99.3545L29.0505 116.994ZM101.228 98.9785C102.713 98.8265 104.272 98.9591 105.56 99.7568C107.211 100.779 106.022 101.846 105.333 102.925C103.662 102.126 99.9134 100.308 99.9548 104.328C99.9708 105.878 103.295 106.61 104.513 107.645C107.543 110.221 107.099 115.687 103.176 117.176C102.506 117.432 101.855 117.489 101.131 117.577C101.024 117.58 100.917 117.581 100.809 117.582C98.7046 117.587 97.5178 116.511 96.1198 115.129C96.6701 114.456 97.2279 113.788 97.7936 113.128C99.3481 114.486 102.048 115.825 103.258 113.146C103.507 112.595 103.437 111.784 103.421 111.171C101.658 108.906 97.7007 108.794 97.0768 105.596C96.8132 104.245 97.0079 102.001 97.7927 100.829C98.6248 99.5866 99.8413 99.2282 101.228 98.9785ZM37.4821 98.9658C39.627 98.7006 41.1817 99.2614 42.6286 100.842C42.3073 101.46 41.722 102.314 41.3268 102.922C39.6324 102.174 36.149 100.273 36.1306 104.263C36.1233 105.895 39.2931 106.678 40.402 107.742C41.4784 108.638 42.5075 109.934 42.5847 111.421C42.7766 115.121 40.5137 117.3 36.9743 117.58C34.5391 117.332 33.6865 116.678 31.8806 115.098C32.5381 114.44 33.2047 113.79 33.8786 113.149C35.0664 114.087 37.3558 115.379 38.738 114.004C39.4517 113.294 39.3803 112.222 39.363 111.281C38.4662 109.947 36.5791 109.028 35.0768 108.218C32.3736 106.76 32.4324 103.366 33.6921 100.95C34.347 99.6939 36.1154 99.2529 37.4821 98.9658ZM136.467 98.9717C138.023 98.7883 139.767 99.3501 141.177 99.9463C140.796 100.888 140.404 101.825 140.001 102.758C133.781 99.586 133.887 107.892 134.682 111.663C135.385 114.99 137.687 114.591 140.294 113.827C140.45 114.219 140.676 114.645 140.868 115.027C141.269 116.487 139.943 117.215 138.7 117.439C130.066 118.997 129.521 106.719 132.358 101.567C133.243 99.9605 134.783 99.3328 136.467 98.9717ZM165.621 98.9873C165.953 98.9528 166.264 99.002 166.592 99.0352C171.196 99.5512 172.144 104.378 172.145 108.161C172.149 112.77 171.346 116.138 166.368 117.517C162.925 117.948 160.187 114.664 159.896 111.444C159.604 108.225 159.348 103.946 161.377 101.159C162.521 99.5886 163.825 99.2102 165.621 98.9873ZM89.5095 98.9785C91.4509 98.7149 93.4451 99.1243 94.6091 100.819C94.3597 101.679 93.9481 102.258 93.445 102.971C92.3925 102.504 90.8997 101.732 89.7467 101.757C88.6427 101.791 87.9196 103.258 88.0739 104.25C88.3932 106.301 91.4569 106.626 92.7887 107.792C94.9231 109.641 95.2558 113.581 93.403 115.731C92.2351 117.087 90.8233 117.389 89.1413 117.522C86.9577 117.674 85.6166 116.451 84.1003 115.093L85.9509 113.153C87.9781 115.096 91.5245 115.616 91.3024 111.584C91.2053 109.82 87.0003 108.688 85.9528 107.294C84.9784 105.996 84.9961 104.77 85.1628 103.181C85.432 100.329 86.8921 99.4447 89.5095 98.9785ZM122.413 91.71C124.753 91.4992 126.595 92.9168 128.306 94.3174C127.703 94.9093 126.886 95.905 126.399 96.5928C124.534 95.1048 122.091 94.2373 120.045 96.1895C119.463 96.7737 119.238 97.9451 119.329 98.7344C119.984 104.357 128.262 103.533 128.118 110.073C128.072 112.173 128.145 113.538 126.512 115.215C124.901 116.874 123.073 117.465 120.826 117.534C118.56 117.406 116.658 116.291 114.942 114.888C115.667 113.782 116.09 113.267 116.943 112.268C118.876 113.921 122.657 115.714 124.197 112.952C126.262 109.248 122.596 106.622 119.794 105.18C118.025 104.271 116.537 102.511 116.127 100.653C115.036 95.7068 117.732 92.6536 122.413 91.71ZM181.355 98.9834C188.611 98.8692 189.177 109.671 186.628 114.425C185.691 116.173 183.848 117.039 181.989 117.486C178.335 117.806 175.608 114.106 175.194 110.801C174.832 107.539 175.041 103.962 177.062 101.23C178.26 99.6101 179.49 99.2204 181.355 98.9834ZM3.1432 92.4863C8.93066 91.9919 14.1493 93.7975 12.3649 100.813C12.0503 102.05 11.1016 103.235 10.2224 104.25C10.395 104.324 10.564 104.407 10.7282 104.498C13.768 106.172 14.2723 111.16 12.6843 114.001C9.6739 117.761 4.40571 117.097 0.0260158 116.999C-0.0119451 108.84 -0.00674754 100.681 0.0416408 92.5225C0.848113 92.5008 2.35332 92.5539 3.1432 92.4863ZM191.717 90.6055C192.787 90.6366 193.857 90.6454 194.927 90.6328C194.673 99.2031 195.207 108.348 194.868 116.976C194.023 117.04 192.597 117.013 191.706 117.026C191.65 108.323 191.599 99.2977 191.717 90.6055ZM61.3425 98.9346C62.3526 98.9148 63.6203 99.1001 64.3659 99.8477C66.8057 102.294 66.1093 113.365 66.0759 117L63.0075 117.024C62.9378 113.033 63.1836 108.661 62.8112 104.69C62.5448 101.851 60.5405 100.816 58.3474 103.186C56.6368 105.908 57.1645 113.479 57.1384 116.98L54.2829 117.005C54.191 110.983 54.3385 105.445 54.0183 99.3838C55.0327 99.434 56.1727 99.4308 57.1979 99.4512C57.1087 100.277 57.0099 101.103 56.9011 101.927L57.1667 101.417C58.0169 99.762 59.1455 99.4883 60.7917 98.9609C60.975 98.9475 61.1588 98.9388 61.3425 98.9346ZM49.1354 99.333C49.1772 105.077 49.2518 111.275 49.1042 116.996L46.0485 117.016C46.0158 111.126 46.0148 105.236 46.0456 99.3467C47.0521 99.3624 48.1381 99.4013 49.1354 99.333ZM143.945 90.6152C144.951 90.6416 145.957 90.6452 146.962 90.626C146.993 94.0642 147.165 98.649 146.848 101.989C147.207 101.254 147.544 100.595 148.13 100.007C148.896 99.2404 149.814 98.9228 150.885 98.9229C152.042 98.923 153.359 99.1953 154.2 100.049C156.342 102.229 155.722 113.479 155.712 116.975C154.688 116.998 153.627 116.985 152.599 116.985C152.54 113.992 152.585 110.844 152.583 107.838C152.58 105.936 152.947 101.845 150.142 101.904C146.536 101.979 146.989 107.849 146.989 110.289C147.001 112.524 146.989 114.76 146.952 116.996L143.885 117.008L143.865 100.769C143.864 97.582 143.775 93.7622 143.945 90.6152ZM183.513 103.29C182.726 102.143 182.055 101.911 180.753 101.98C178.067 103.373 178.091 110.653 179.346 113.075C180.073 114.478 180.991 114.665 182.405 114.383C185.232 112.438 185.366 105.991 183.513 103.29ZM164.922 101.976C163.26 103.301 162.835 105.599 162.813 107.616C162.784 110.365 162.695 115.204 166.756 114.379C168.907 113.024 169.095 110.118 169.021 107.811C168.935 105.057 168.383 101.743 164.922 101.976ZM3.44008 105.621C3.41628 108.353 3.33651 111.357 3.42055 114.074C5.81292 114.135 7.13246 114.329 9.19105 112.9C9.98422 112.094 10.3066 111.412 10.2809 110.261C10.1776 105.636 6.96551 105.581 3.44008 105.621ZM76.1979 101.888C73.8477 102.256 73.2504 104.444 73.0427 106.497C73.9762 106.536 74.9489 106.591 75.8796 106.579C76.9097 106.574 78.0187 106.591 79.0417 106.556C78.9334 105.209 78.724 103.23 77.6325 102.297C77.1554 101.89 76.8136 101.922 76.1979 101.888ZM3.49086 95.1689C3.41598 97.616 3.35009 100.454 3.40785 102.91C5.35569 102.918 6.85216 103.049 8.39027 101.698C8.90479 101.122 9.31413 100.602 9.45375 99.8262C10.241 95.4442 6.56535 95.2862 3.49086 95.1689ZM47.7048 92.376C48.4618 92.5833 49.1526 93.1876 49.3727 93.9531C49.5231 94.4863 49.4464 95.0585 49.1608 95.5332C48.7931 96.1473 48.3866 96.2432 47.7263 96.416C46.2075 96.3547 46.1496 95.6878 45.8063 94.417C45.9417 94.0048 46.1761 93.5462 46.3659 93.1484C46.8112 92.8283 47.2228 92.6264 47.7048 92.376Z" fill="#013561"/>
</g>
<defs>
<clipPath id="clip0_1572_876">
<rect width="195" height="118" fill="white"/>
</clipPath>
</defs>
</svg>
