<svg width="195" height="66" viewBox="0 0 195 66" fill="none" xmlns="http://www.w3.org/2000/svg">
<path d="M166.717 1.57458C168.055 1.44495 170.64 1.51394 172.067 1.51297C175.597 1.52124 179.127 1.51006 182.657 1.47946C185.076 1.43561 187.496 1.36847 189.914 1.27805C190.498 1.2578 192.858 1.13695 193.336 1.20908C193.553 1.49161 193.49 1.81579 193.483 2.19556L193.479 11.6161L163.236 11.6468C163.195 16.888 163.187 22.1294 163.214 27.3706C172.655 27.5393 182.457 27.3993 191.93 27.4028L191.89 36.8495L163.243 36.8498C163.189 42.6466 163.18 48.4436 163.219 54.2406L194.915 54.2439L194.914 64.1691L157.224 64.2014C155.71 64.2012 153.231 64.2612 151.807 64.1193L151.822 1.58714L166.717 1.57458Z" fill="white"/>
<path d="M121.745 0.0605811C129.044 -0.439742 135.491 2.19354 141.11 6.67892C138.455 9.92913 136.877 11.8712 133.874 14.8752C130.551 11.7195 126.249 9.41303 121.52 9.70196C116.95 9.9812 112.013 12.0358 111.576 17.2265C111.103 22.557 115.254 24.6412 119.597 26.2204C127.746 29.1828 138.736 31.202 140.947 41.1911C142.476 48.091 140.611 56.3291 134.963 60.8974C129.762 65.1044 121.674 66.222 115.127 65.5511C109.441 65.2472 100.269 61.8673 97.294 56.7688C98.3359 55.436 99.7719 54.2476 101.02 53.099L105.19 49.227C108.596 53.3665 113.983 56.4118 119.522 56.1309C122.326 55.9887 125.99 55.0186 127.91 52.8069C129.474 51.0076 130.155 48.7485 130.014 46.3551C129.38 39.2669 119.747 38.0206 114.491 36.0411C111.589 34.9482 107.345 33.0803 105.142 31.0786C102.135 28.3465 100.265 24.8619 99.9657 20.7974C99.543 15.0574 100.38 11.6229 104.134 7.12426C106.656 4.10141 111.656 1.76789 115.434 0.808371C117.237 0.350504 119.841 0.182401 121.745 0.0605811Z" fill="white"/>
<path d="M77.7588 1.47493C81.2958 1.39841 85.2156 1.60411 88.8355 1.59665L88.8402 64.1619C85.3126 64.2517 81.2557 64.2234 77.7337 64.1623C77.5148 47.7187 77.8697 31.1975 77.7167 14.7476C77.6758 10.3652 77.6564 5.85367 77.7588 1.47493Z" fill="white"/>
<path d="M0 1.56005C4.51643 1.64183 9.26478 1.56736 13.7971 1.55866L29.0399 1.592L29.068 26.6903C28.3351 27.1672 27.6284 27.7768 26.9497 28.3354C26.1442 29.1044 25.7573 29.5238 25.0674 30.3947C22.1189 30.6369 18.3366 30.5433 15.3298 30.542L0.000254296 30.5291L0 1.56005Z" fill="white"/>
<path d="M32.1871 1.58171L61.2175 1.5706C61.3271 11.1729 61.2042 20.8997 61.2316 30.5125L44.6868 30.5508C42.7201 30.5518 37.8241 30.6676 36.1837 30.3601C35.139 28.6789 33.8888 27.7186 32.1746 26.7609L32.1871 1.58171Z" fill="white"/>
<path d="M36.239 33.7062C39.075 33.5795 42.4338 33.6625 45.323 33.6617L61.1051 33.6929C60.7908 35.8611 60.4082 38.3559 59.7069 40.472C58.235 44.9134 55.6507 49.7163 52.7533 53.389C51.7852 54.616 49.7674 56.4305 48.6227 57.4989C43.9053 61.8678 38.4856 64.6059 32.1314 65.6903C32.2641 63.3391 32.1829 60.408 32.1806 58.0105L32.17 44.6169C32.1692 42.4847 32.113 39.8641 32.2474 37.7683C33.2382 37.111 34.1067 36.5023 34.9674 35.6681C35.615 35.0403 35.8008 33.9876 36.239 33.7062Z" fill="white"/>
<path d="M0.268366 33.6803C8.24261 33.6525 17.0376 33.504 24.9726 33.7083C25.9938 35.3662 27.3859 36.7645 29.0394 37.7927L29.0252 65.7635C20.4868 63.9999 13.4287 59.4338 7.96714 52.6682C4.20574 48.0088 0.614428 39.7207 0.268366 33.6803Z" fill="white"/>
</svg>
